<svg id="Groep_1" data-name="Groep 1" xmlns="http://www.w3.org/2000/svg" viewBox="0 0 996.739 261.766">
  <defs>
    <style>
      .cls-1 {
        fill: #32a43f;
      }

      .cls-2 {
        fill: #c4c6c8;
      }

      .cls-3 {
        fill: #fefefe;
      }

      .cls-4 {
        fill: #dd8700;
      }

      .cls-5 {
        fill: #e0001a;
      }

      .cls-6 {
        fill: #306381;
      }

      .cls-7 {
        fill: #8bd1ef;
      }

      .cls-8 {
        fill: #f19400;
      }

      .cls-9 {
        fill: #5cc5ec;
      }

      .cls-10 {
        fill: #003c5c;
      }

      .cls-11 {
        fill: #005683;
      }

      .cls-12 {
        fill: #fcdfb9;
      }

      .cls-13 {
        fill: #c27701;
      }

      .cls-14 {
        fill: #622e22;
      }

      .cls-15 {
        fill: #c17801;
      }

      .cls-16 {
        fill: #9e5911;
      }

      .cls-17 {
        fill: #582624;
      }

      .cls-18 {
        fill: #ed0012;
      }

      .cls-19 {
        fill: #e30010;
      }

      .cls-20 {
        fill: #056a9c;
      }

      .cls-21 {
        fill: #f09400;
      }

      .cls-22 {
        fill: #31a53f;
      }

      .cls-23 {
        fill: #32a53f;
      }

      .cls-24 {
        fill: #169e2e;
      }

      .cls-25 {
        fill: #306380;
      }

      .cls-26 {
        fill: #89acbc;
      }

      .cls-27 {
        fill: #b5cadd;
      }

      .cls-28 {
        fill: #8d5340;
      }

      .cls-29 {
        fill: #8e533f;
      }

      .cls-30 {
        fill: #8d5540;
      }

      .cls-31 {
        fill: #8e5540;
      }

      .cls-32 {
        fill: #895541;
      }

      .cls-33 {
        fill: #129f2e;
      }

      .cls-34 {
        fill: #8e5340;
      }

      .cls-35 {
        fill: #8c5541;
      }

      .cls-36 {
        fill: #8c533f;
      }

      .cls-37 {
        fill: #159f2f;
      }

      .cls-38 {
        fill: #149e2e;
      }

      .cls-39 {
        fill: #2ea33a;
      }

      .cls-40 {
        fill: #0e9e2c;
      }

      .cls-41 {
        fill: #139f2e;
      }

      .cls-42 {
        fill: #2da33b;
      }

      .cls-43 {
        fill: #0a9822;
      }

      .cls-44 {
        fill: #07971f;
      }

      .cls-45 {
        fill: #0b9822;
      }

      .cls-46 {
        fill: #98cea6;
      }

      .cls-47 {
        fill: #a9dcf5;
      }

      .cls-48 {
        fill: #b5d4c4;
      }

      .cls-49 {
        fill: #099922;
      }

      .cls-50 {
        fill: #26a035;
      }

      .cls-51 {
        fill: #25a036;
      }

      .cls-52 {
        fill: #5d6a4a;
      }

      .cls-53 {
        fill: #b1b3b5;
      }

      .cls-54 {
        fill: #8c8e8f;
      }

      .cls-55 {
        fill: #9fa1a3;
      }

      .cls-56 {
        fill: #bcbec0;
      }

      .cls-57 {
        fill: #23475d;
      }

      .cls-58 {
        fill: #23475e;
      }

      .cls-59 {
        fill: #bc6b62;
      }

      .cls-60 {
        fill: #e61819;
      }

      .cls-61 {
        fill: #8b513f;
      }

      .cls-62 {
        fill: #875241;
      }

      .cls-63 {
        fill: #865341;
      }

      .cls-64 {
        fill: #fde9d1;
      }

      .cls-65 {
        fill: #8bd1f0;
      }

      .cls-66 {
        fill: #c17701;
      }

      .cls-67 {
        fill: #dd8600;
      }

      .cls-68 {
        fill: #169e2d;
      }

      .cls-69 {
        fill: #92bed0;
      }

      .cls-70 {
        fill: #de8702;
      }

      .cls-71 {
        fill: #de8703;
      }

      .cls-72 {
        fill: #8dbdd0;
      }

      .cls-73 {
        fill: #e9e8ee;
      }

      .cls-74 {
        fill: #f1dec4;
      }

      .cls-75 {
        fill: #f29912;
      }

      .cls-76 {
        fill: #ecede7;
      }

      .cls-77 {
        fill: #763b28;
      }

      .cls-78 {
        fill: #7c4130;
      }

      .cls-79 {
        fill: #f3dbbb;
      }

      .cls-80 {
        fill: #f29911;
      }

      .cls-81 {
        fill: #ea961a;
      }

      .cls-82 {
        fill: #db7d00;
      }

      .cls-83 {
        fill: #fef2e1;
      }

      .cls-84 {
        fill: #0a9821;
      }

      .cls-85 {
        fill: #259f34;
      }

      .cls-86 {
        fill: #269f32;
      }

      .cls-87 {
        fill: #feedd9;
      }

      .cls-88 {
        fill: #9dafb3;
      }

      .cls-89 {
        fill: #d8e6cb;
      }

      .cls-90 {
        fill: #628b9f;
      }

      .cls-91 {
        fill: #046b9e;
      }

      .cls-92 {
        fill: #056b9e;
      }

      .cls-93 {
        fill: #06699b;
      }

      .cls-94 {
        fill: #87c6dc;
      }

      .cls-95 {
        fill: #662918;
      }

      .cls-96 {
        fill: #17455f;
      }

      .cls-97 {
        fill: #8ebdcf;
      }

      .cls-98 {
        fill: #005784;
      }

      .cls-99 {
        fill: #522316;
      }

      .cls-100 {
        fill: #e88f00;
      }

      .cls-101 {
        fill: #179d2d;
      }

      .cls-102 {
        fill: #1d9e31;
      }

      .cls-103 {
        fill: #209e31;
      }

      .cls-104 {
        fill: #289f36;
      }

      .cls-105 {
        fill: #1d9e30;
      }

      .cls-106 {
        fill: #179d2e;
      }

      .cls-107 {
        fill: #219f32;
      }

      .cls-108 {
        fill: #269f35;
      }

      .cls-109 {
        fill: #1a9e2f;
      }

      .cls-110 {
        fill: #1c9e30;
      }

      .cls-111 {
        fill: #1f9e30;
      }

      .cls-112 {
        fill: #1a9e2e;
      }

      .cls-113 {
        fill: #209f33;
      }

      .cls-114 {
        fill: #1b9e2f;
      }

      .cls-115 {
        fill: #1e9e30;
      }

      .cls-116 {
        fill: #1c9e2f;
      }

      .cls-117 {
        fill: #1d9e2f;
      }

      .cls-118 {
        fill: #1e9e31;
      }

      .cls-119 {
        fill: #1b9e30;
      }

      .cls-120 {
        fill: #089821;
      }

      .cls-121 {
        fill: #818284;
      }

      .cls-122 {
        fill: #939597;
      }

      .cls-123 {
        fill: #8a8c8e;
      }

      .cls-124 {
        fill: #898b8f;
      }

      .cls-125 {
        fill: #919395;
      }

      .cls-126 {
        fill: #294052;
      }

      .cls-127 {
        fill: #8ad1ef;
      }

      .cls-128 {
        fill: #612d21;
      }

      .cls-129 {
        fill: #88c5db;
      }

      .cls-130 {
        fill: #642414;
      }

      .cls-131 {
        fill: #445767;
      }

      .cls-132 {
        fill: #2b4053;
      }

      .cls-133 {
        fill: #622e21;
      }

      .cls-134 {
        fill: #5e2b1a;
      }

      .cls-135 {
        fill: #e30211;
      }

      .cls-136 {
        fill: #93becf;
      }

      .cls-137 {
        fill: #88c7dc;
      }

      .cls-138 {
        fill: #174860;
      }

      .cls-139 {
        fill: #c27801;
      }

      .cls-140 {
        fill: #6a2413;
      }

      .cls-141 {
        fill: #1b9e2e;
      }

      .cls-142 {
        fill: #199d2e;
      }

      .cls-143 {
        fill: #189d2e;
      }

      .cls-144 {
        fill: #1a9d2e;
      }

      .cls-145 {
        fill: #8ad1f0;
      }

      .cls-146 {
        fill: #743926;
      }

      .cls-147 {
        fill: #9bb2b9;
      }

      .cls-148 {
        fill: #324759;
      }

      .cls-149 {
        fill: #602c19;
      }

      .cls-150 {
        fill: #5a2823;
      }
    </style>
  </defs>
  <title>footer STO HIRES DEF</title>
  <g id="Afgeronde_rechthoek_1_kopiëren_Afbeelding" data-name="Afgeronde rechthoek 1 kopiëren Afbeelding">
    <rect class="cls-1" x="4.579" y="149.165" width="277.843" height="12.838"/>
    <path class="cls-1" d="M.257,567.118l.052-53.227a4.119,4.119,0,0,1,3.2-.9c12.459.029,24.919-.139,37.377.082.809-.009,1.62.029,2.431.026.628,0,1.257,0,1.885,0,.944,0,1.889.025,2.832-.068,3.586-.009,7.171-.048,10.757,0,1.842.186,3.686-.137,5.529.017,32.914-.185,65.827-.052,98.74-.072,12.989-.008,25.978-.125,38.966.075,1.676-.191,3.353.166,5.029-.014,3.751-.053,7.5-.025,11.252-.016a23.322,23.322,0,0,0,2.337.075c.909.03,1.819-.008,2.729,0,.769.027,1.538.006,2.308,0,.649.007,1.3-.025,1.945-.014,1.67-.107,3.34-.1,5.01-.1q78.855,0,157.71,0c.967,0,1.937-.051,2.9,0,1.953.112,2.726-.76,3.039-2.712,1.114-6.95,5.183-10.4,12.323-10.453,12.659-.09,25.318-.027,37.977-.027s25.318-.01,37.977.006c4.737.006,8.58,1.656,11.012,5.93a11.076,11.076,0,0,1,1.387,4.776,2.3,2.3,0,0,0,2.694,2.464c1.229-.023,2.461.01,3.692.01q241.575,0,483.151.021c1.889,0,3.9-.479,5.609.838,0,16.97-.039,33.941.052,50.911.011,1.98-.448,2.425-2.426,2.424q-188.082-.082-376.165-.049Z" transform="translate(4.579 -305.401)"/>
    <path class="cls-2" d="M992.108,513.832q-246.227,0-492.453.051c-2.544,0-3.58-.339-3.592-3.291-.022-5.768-4.76-9.922-10.806-9.936-16.178-.036-32.355-.013-48.533-.013q-13.98,0-27.959,0c-7.33.008-11.591,3.971-11.7,11.217-.035,2.338-1.332,1.969-2.7,1.969q-54.468,0-108.936,0-29.144-.011-58.288-.082c-.124-1.847,1.455-2.756,2.4-3.885a18.069,18.069,0,0,0,3.213-6.247c.952-2.934,1.851-3.661,4.935-3.68,7.365-.045,14.741-.256,22.094.047a13.826,13.826,0,0,0,14.639-14.819c-.3-5.24.418-10.511-.453-15.744a2.75,2.75,0,0,1,.831-2.884,7.657,7.657,0,0,1,3.622-.489c11.692-.012,23.385-.036,35.077,0,10.087.034,16.489,5.671,17.769,15.757.256,2.019,1.074,2.8,3,2.7.788-.044,1.582,0,2.373,0H517.038c.615,0,1.231.008,1.846,0,3.069-.057,3.2-.183,3.38-3.3.594-10.111,7.319-16.7,17.4-16.715q69.758-.086,139.516,0c9.685.012,16.6,6.6,17.225,16.064.259,3.942.259,3.954,4.329,3.954q80.175,0,160.351,0c1.494,0,2.988-.025,4.482.057a2.634,2.634,0,0,1,2.807,2.55c.091.785.21,1.568.37,2.344,1.539,7.468,6.984,12.1,14.629,12.432,1.142.05,2.285.024,3.428.025q46.945,0,93.889.008a29.539,29.539,0,0,0,9.14-.923,2.387,2.387,0,0,1,2.277.17Z" transform="translate(4.579 -305.401)"/>
    <path class="cls-1" d="M992.108,501.17c-3.743,1.507-7.653,1.614-11.628,1.609q-47.47-.069-94.941-.026c-11.014,0-16.676-5.035-17.916-16-.109-.964-.325-1.477-1.37-1.41-.7.045-1.406,0-2.109,0q-82.677,0-165.355.072c-2.763,0-3.275-.78-3.244-3.344.124-10.148-6.625-16.772-16.839-16.773q-69.228-.008-138.455,0c-10.577,0-17.2,6.522-17.108,17.044.021,2.329-.485,3.066-2.976,3.063q-93.358-.115-186.716,0c-2.48,0-2.979-.726-2.993-3.055-.052-8.193-6.619-15.256-14.716-15.383-13.708-.215-27.422-.018-41.134.006a1.745,1.745,0,0,1-.781.3,1.294,1.294,0,0,1-1.108-.54,3.746,3.746,0,0,1-.4-1.686,20.142,20.142,0,0,0-1.052-7.768,2.322,2.322,0,0,1,.147-2.5l35.916-.048c1.156.564.825,1.594.8,2.531a8.528,8.528,0,0,0,.448,4.415c.924-1.484.52-2.813.665-4.046.125-1.063-.285-2.339,1.089-2.946l61.389,0c1.518.462,1.01,1.79,1.2,2.817.15.809-.222,2.152.821,2.2,1.116.046.789-1.293.9-2.093.144-1.008-.162-2.134.811-2.909l49.382,0c1.562,1.416.342,3.482,1.172,5.179.966-1.665-.6-3.943,1.471-5.172l53.4.01c1.416,1.459.926,3.458,1.422,5.35,1.165-.44.95-1.377,1.039-2.157.125-1.1-.234-2.315.765-3.207l56.777-.031c1.655,1.332.237,3.54,1.479,5.19,1.183-1.625-.108-3.783,1.359-5.158l48.6.007c1.27.343.967,1.452,1.112,2.325.151.907-.165,1.87.359,2.906.812-1.742-.291-3.75,1.069-5.217l44.787-.02c.853.711.63,1.726.778,2.648.138.858-.341,2.362.9,2.311,1.1-.045.675-1.544.807-2.43.137-.918-.1-1.946.839-2.6q20.368.053,40.735.1c5.081.008,10.162-.036,15.243-.056,1.382.614.952,1.9,1.08,2.968a13.317,13.317,0,0,0,.283,3.3c.99-2.085-.5-4.516,1.244-6.265l39.894-.031c4.923-.447,9.864.06,14.788-.3,1.054.052,2.111-.015,3.168.024,6.374.167,12.747.153,19.119-.01,1.62-.019,3.241.348,4.866-.007a5.157,5.157,0,0,1,.936,0c9.365.15,18.727.21,28.087-.052a5.5,5.5,0,0,1,.964-.015c4.413.41,8.84.053,13.258.218.965.011,1.916-.254,2.886-.159,11.037.253,22.075-.066,33.111.152.84-.036,1.68-.04,2.52,0q10.645-.163,21.29,0c1.687-.073,3.374-.069,5.062,0q15.692-.181,31.382-.005c4.9-.077,9.8-.11,14.7.01.854-.044,1.707-.037,2.561,0,16.5-.234,33.007.149,49.51.044a3.362,3.362,0,0,1,2.461.731Z" transform="translate(4.579 -305.401)"/>
    <path class="cls-3" d="M743.618,395.648q0-.538-.009-1.075c-.567-5.3-.1-10.625-.243-15.936-.029-1.047,0-2.1,0-3.143.008-1.428-.017-2.858.015-4.289a5.3,5.3,0,0,1,4.1-3.657c12.727-.167,25.452-.068,38.178-.065,18.606,0,37.212-.09,55.814.048a5.476,5.476,0,0,1,2.511,1.032c2.458.611,4.925,1.626,7.289-.3a2.294,2.294,0,0,1,1.99-.3q35.666-.006,71.317-.01-35.248-.011-70.487-.007c-.793-.01-1.775.117-1.156-1.213a7.5,7.5,0,0,1,1.691-2q22.521-22.53,45.057-45.045c.91-.909,1.71-2.069,3.243-2a5.576,5.576,0,0,1,2.723,1.964c11.284,11.27,22.608,22.5,33.8,33.858,2.946,2.989,5.607,6.262,8.719,9.1a1.88,1.88,0,0,1,.575,2.523c-1.081,2.271-.674,2.845,1.852,2.972.7.035,1.4-.019,2.1-.026q1.136-.007,2.27,0c2.393.4,4.1-.616,5.774-2.308q14.122-14.3,28.416-28.44c.812-.807,1.43-2.087,2.946-1.818V379.3c-1.111.96-2.471.787-3.773.79-8.258.019-16.517.038-24.775-.01a18.6,18.6,0,0,0-6.65,1.363c-2.56.945-3.978,2.447-3.6,5.284-.022.431-.032.864-.041,1.294a3.4,3.4,0,0,0,.459,2.246c1.708.9,3.535.284,5.3.442,1.267.114,2.575-.183,3.8.392a.875.875,0,0,1,.454.761c1.071,6.52.443,13.086.53,19.629.107,7.962.035,15.926.015,23.889,0,1.208.2,2.466-.534,3.574a21.7,21.7,0,0,1-12.341-.006c-1.521-.938-.729-2.337-.624-3.542.4-4.645-.695-8.614-4.812-11.315-5.519-3.693-13.526-2.169-16.663,3.3a12.024,12.024,0,0,0-1.5,4.175,6.423,6.423,0,0,0-.081,4.25c.038.969.614,1.989-.268,2.872a2.943,2.943,0,0,1-3.068-.165,4.5,4.5,0,0,1-.6-3.033q-.023-11.726,0-23.452c.012-3.425.5-3.91,4.017-3.937,5.973-.045,11.946.006,17.919-.021,3.1-.014,3.36-.231,3.326-3.27-.119-10.407,1.243-7.259-5.841-14.373-5.015-5.037-9.79-10.329-15.279-14.88a4.669,4.669,0,0,0-.866-.22q-19.851-.014-39.7-.008a14.585,14.585,0,0,0-5.794,1.536c-5.074,2.171-10.138,4.363-15.243,6.446-.627.34-1.518.325-1.705,1.263-.147.886-.139,1.711.8,2.207,6.057.516,12.11.066,18.155.227,3.53.094,5.2,1.621,5.222,5.16.08,14.658.047,29.316.02,43.975a3.728,3.728,0,0,1-.52,2.272c-3.867,1.51-7.83.776-11.77.492-1.427-.678-.869-1.929-.8-2.992.2-3.1.116-6.094-1.791-8.787a8.653,8.653,0,0,0-2.9-2.932c-6.731-4.719-16.776-1.379-18.253,7.374a7.463,7.463,0,0,0,.1,4.716c.026.845.454,1.754-.379,2.467-4.287,1.5-8.665,1.076-13.044.611-.763-1.071-.256-2.211-.144-3.319.445-4.4-1.007-7.936-4.736-10.438-3.909-2.343-7.924-2.7-11.864-.25-4.025,2.5-5.647,6.251-5.053,10.958.129,1.02.548,2.054-.083,3.059-1.272.473-2.522.838-3.346-.736-.43-8.518-.1-17.043-.176-25.565-.015-1.812.889-2.42,2.645-2.388,5.889.11,11.78.059,17.67.035,3.046-.012,3.073-.342,3.42-3.3.614-5.234-1.028-9.157-5.081-12.689a168.472,168.472,0,0,1-13.6-13.611,6.615,6.615,0,0,0-1.356-1.186,3.621,3.621,0,0,0-2.033-.4q-18.114-.025-36.228,0a3.627,3.627,0,0,0-1.284.2c-5.837,2.276-11.538,4.89-17.334,7.267a5.037,5.037,0,0,0-2.072,1.144,2.071,2.071,0,0,0-.138,2.113,1.674,1.674,0,0,0,.636.377c5.305.169,10.6.019,15.89.075a10.087,10.087,0,0,1,2.846.229,5.566,5.566,0,0,1,3.028,3.689,28.181,28.181,0,0,1,.234,5.511c.038,12.282-.05,24.564.049,36.846a5.181,5.181,0,0,1-.177,1.821c-.672.875-1.677.838-2.612.877-2.513.105-5.03.019-7.546.065-.776.014-1.595.052-2.025-.82a3.137,3.137,0,0,1-.25-1.328c.316-1.725.707-3.454.055-5.193a9.1,9.1,0,0,0-4.639-6.858,10.93,10.93,0,0,0-16.86,10.631,3.853,3.853,0,0,1-.367,2.572c-2.513,1.188-3.114.861-3.118-1.8q-.025-15.056-.007-30.111C743.527,403.1,743.029,399.364,743.618,395.648Z" transform="translate(4.579 -305.401)"/>
    <path class="cls-4" d="M952.555,368.61c-1.605-.051-3.3.7-4.752-.672-.942-.888-1.6-1.676-.193-2.682,1.113-.795,1.076-1.447.058-2.463q-22.38-22.321-44.679-44.725a9.175,9.175,0,0,1-2.581-1.846c-1.576-1.005-2.233.443-3.02,1.225q-12.033,11.954-24,23.971-12.923,12.923-25.852,25.841a8.214,8.214,0,0,1-2.6,2.179,1.278,1.278,0,0,1-1.081-.1l-1.352-1.214a9.188,9.188,0,0,1-1.271-.639c-.968-.752-1.379-1.784-.573-2.732,1.341-1.578.376-2.461-.68-3.509q-7.184-7.123-14.316-14.3-14.213-14.216-28.433-28.425a32,32,0,0,0-2.3-2.268c-1.409-1.044-2.085.227-2.835.968-4.125,4.073-8.21,8.186-12.309,12.285q-18.819,18.818-37.642,37.632a9.7,9.7,0,0,1-2.574,2.23.688.688,0,0,1-.7-.014.74.74,0,0,1-.25-.079c-4.064-3.3-4.068-3.308-.435-6.927q26.135-26.035,52.28-52.06c.99-.985,2.06-1.891,3.093-2.834,1.593-.481,2.407.7,3.347,1.585,16.2,15.2,31.58,31.223,47.367,46.837,2.505,2.478,2.5,2.488,5.028-.044q23.092-23.092,46.177-46.193a23,23,0,0,1,3.193-2.691l.034.017c1.378-.5,2.106.523,2.913,1.279,15.7,14.728,30.626,30.244,45.928,45.378,1.131,1.118,1.985,2.461,3.083,3.6,1.89,1.963,2.35,2,4.254.116,3.312-3.273,6.587-6.585,9.881-9.876,1.116-1.038,2.181-2.129,3.255-3.21.583-.559,1.158-1.126,1.714-1.713.662-.655,1.324-1.309,1.971-1.98.242-.262.494-.512.747-.762,2.739-2.709,5.437-5.458,8.174-8.168.426-.421.854-.841,1.269-1.272,2.553-2.528,5.071-5.093,7.626-7.619.246-.256.505-.5.768-.739.555-.378.969-1.116,1.829-.735v7.386c-.591,2.149-2.315,3.469-3.792,4.892-11.226,10.813-21.852,22.223-33.027,33.087A7.008,7.008,0,0,1,952.555,368.61Z" transform="translate(4.579 -305.401)"/>
    <path class="cls-5" d="M992.108,421.506v32.71c-1,.78-2.181.5-3.294.516-7.169.1-14.34-.156-21.508.139-1.527-.458-1.212-1.776-1.232-2.842-.072-3.862-.021-7.726-.035-11.589-.008-.335-.007-.669-.005-1s0-.673,0-1.01c.019-13.166,0-26.332.012-39.5a13.56,13.56,0,0,1,.215-3.665c.551-1.269,1.356-.755,2.065-.228a7.02,7.02,0,0,1,2.71,3.7c.39,5.966.069,11.94.189,17.91.022,1.127-.222,2.292.365,3.357a3.883,3.883,0,0,0,.741.538c5.422.506,10.852.083,16.273.23C989.812,420.8,991.082,420.583,992.108,421.506Z" transform="translate(4.579 -305.401)"/>
    <path class="cls-6" d="M966.576,439.035a.467.467,0,0,1,.016.493,5.037,5.037,0,0,1-1.115.515c-1.621-.007-2.311.687-2.229,2.414.144,3.055-.017,6.121.076,9.18.031,1.014-.228,2.6,1.762,1.761.951-3.375.158-6.81.457-10.193.1-1.124-.482-2.534,1.072-3.189.044,4.119.059,8.238.159,12.356.019.786-.51,1.774.535,2.354,5.657-.552,11.327-.148,16.99-.209,2.6-.028,5.221-.329,7.809.226v.528q-24.17,0-48.341,0c-1.313,0-2.626-.037-3.939-.057-1.334-2.675-.674-5.478-.532-8.245a2.333,2.333,0,0,1,1.81-1.733,12.907,12.907,0,0,0,8.264-6.079,1.59,1.59,0,0,1,1.066-.715c4.185,1,8.419.813,12.657.526a2.051,2.051,0,0,1,.609-.479,4.056,4.056,0,0,1,1.947-.107A1.278,1.278,0,0,1,966.576,439.035Z" transform="translate(4.579 -305.401)"/>
    <path class="cls-7" d="M992.108,407.261v13.19a2.27,2.27,0,0,1-1.464.5c-5.793.044-11.586.013-17.379.019-1.722,0-2.278-.886-2.263-2.484.061-6.318-.087-12.638.079-18.951.833-1.817,1.764-.458,2.4.07a57.4,57.4,0,0,1,5.035,4.936,5.944,5.944,0,0,0,4.874,2.014c2-.089,4.006-.032,6.01-.011A3.73,3.73,0,0,1,992.108,407.261Z" transform="translate(4.579 -305.401)"/>
    <path class="cls-8" d="M952.614,387.207c-.259-4.625-.219-4.537,3.971-6.454a17.746,17.746,0,0,1,7.874-1.6c9.215.138,18.432.108,27.648.142v3.693c-.6,1.208-1.8,1.535-2.923,1.99-2.8,1.138-5.466,2.622-8.483,3.205a3.433,3.433,0,0,1-.915-.133c-7.895-.236-15.786-.023-23.675-.11C954.908,387.932,953.627,388.173,952.614,387.207Z" transform="translate(4.579 -305.401)"/>
    <path class="cls-9" d="M992.108,407.261c-3.159,0-6.323-.092-9.476.051a5.026,5.026,0,0,1-4.137-1.766c-2.254-2.324-4.644-4.517-6.977-6.765-1.475-3.376-.641-4.917,2.881-5,5-.116,10-.064,15.006-.015a3.815,3.815,0,0,1,2.7.831Z" transform="translate(4.579 -305.401)"/>
    <path class="cls-10" d="M982.09,330.813l-1.01,1-.385.026c-4.893.352-9.8-.014-15.023.21,2.086,2.21,4.11,4.109,6.036,6.1.5.622,1.171,1.171.885,2.118l-.505.514a4.2,4.2,0,0,1-1.813-.905,43.053,43.053,0,0,1-6.121-5.761,6.682,6.682,0,0,0-5.126-2.149c-4.109-.039-8.234.411-12.33-.281-.385-.24-.691-.516-.472-1.032,1.6-1.033,3.4-.552,5.119-.6,2.706-.078,5.416-.02,8.707-.015-3.606-3.488-6.7-6.829-10.084-9.885-.983-.888-2.277-.763-3.5-.8-4.107-.109-8.223.248-12.327-.21-.71-.288-1.284-.683-1.216-1.57.934-.9,2.124-.678,3.238-.689,3.474-.035,6.949-.015,10.706,0-2.722-2.8-5.371-5.33-7.9-7.974-.737-.77-1.848-1.475-1.216-2.866l1.066.015a11.553,11.553,0,0,1,4.939,4.25c4.1,5.591,9.432,7.645,16.208,6.644a19.069,19.069,0,0,1,5.717.1c-3.5-3.225-6.9-6.9-10.511-10.364a1.219,1.219,0,0,1-.481-1.152l1.55-.007a11.653,11.653,0,0,1,4.92,4.247c4.409,6.06,10.2,8.295,17.507,7.167a24.74,24.74,0,0,1,4.856,0c-3.323-3.111-6.581-6.431-9.809-9.78a1.657,1.657,0,0,1-.6-1.644l1.062.007c2.264.951,3.59,3,5.309,4.579a45.993,45.993,0,0,1,3.509,3.519c1.917,2.193,4.007,3.862,7.184,3.33a2.167,2.167,0,0,1,1.93.62v1.055a2.723,2.723,0,0,1-.591.427,8.921,8.921,0,0,1-3.036.131c.541.49.918.83,1.269,1.2.461.577,1.105,1.08.809,1.967l-.484.5a2.945,2.945,0,0,1-1.692-.954c-1.652-2.15-3.845-2.75-6.5-2.638-3.681.156-7.376.079-11.133.008q4.964,4.943,9.854,9.839C981.1,329.673,981.787,330.078,982.09,330.813Z" transform="translate(4.579 -305.401)"/>
    <path class="cls-11" d="M992.108,317.572c-4.4.779-7.671-.87-10.456-4.3-2.256-2.776-4.967-5.182-7.476-7.752,5.232-.029,10.465-.079,15.7-.063a10.351,10.351,0,0,1,2.235.5Z" transform="translate(4.579 -305.401)"/>
    <path class="cls-12" d="M992.108,335.51c-2.959,2.868-5.948,5.706-8.871,8.611-7.477,7.431-14.978,14.84-22.345,22.381-1.693,1.733-3.4,2.643-5.773,2.2-.163-1.264.833-1.87,1.551-2.573,8.194-8.026,16.082-16.358,24.481-24.185,2.926-2.727,5.493-5.877,8.386-8.676.707-.684,1.267-1.769,2.572-1.448Z" transform="translate(4.579 -305.401)"/>
    <path class="cls-13" d="M992.108,331.817,955.119,368.7l-2.564-.089c7.992-8.041,16.148-15.929,23.919-24.179,5.084-5.4,10.7-10.247,15.634-15.78Z" transform="translate(4.579 -305.401)"/>
    <path class="cls-14" d="M992.108,394.6q-8.557.029-17.114.057c-3.927.009-3.927,0-3.477,4.125-.035,6.763-.056,13.526-.122,20.288-.011,1.1.314,1.581,1.49,1.564,6.407-.091,12.815-.128,19.222-.183v.528a170.341,170.341,0,0,1-20.547.013l-.563-.279c-.549-4.318-.14-8.655-.236-12.982-.064-2.866-.012-5.734-.012-8.593.041-.991-.08-2,.059-2.994-.195.619.015,1.273-.123,1.9-.078.1-.157.189-.237.284a19.4,19.4,0,0,0-3.651-3.686,2.048,2.048,0,0,1,.015-2.9,4.7,4.7,0,0,1,2.8-.518q9.752-.028,19.5,0a4.047,4.047,0,0,1,2.99.738Z" transform="translate(4.579 -305.401)"/>
    <path class="cls-15" d="M981.034,387.744l11.074-4.752v7.914c-3.671.969-7.366.622-11.064.195A2.45,2.45,0,0,1,981.034,387.744Z" transform="translate(4.579 -305.401)"/>
    <path class="cls-16" d="M981,390.866l11.1.04v.528c-2.936.581-5.9.2-8.853.235-5.325.071-10.652.023-15.978.019-.539.014-1.012-.074-1.106-.733a1.8,1.8,0,0,1,.8-.579,91.89,91.89,0,0,1,13.2-.021A2.986,2.986,0,0,1,981,390.866Z" transform="translate(4.579 -305.401)"/>
    <path class="cls-17" d="M966.722,391.494l25.386-.06v.528l-25.336,0a.32.32,0,0,1-.124-.3Q966.677,391.494,966.722,391.494Z" transform="translate(4.579 -305.401)"/>
    <path class="cls-18" d="M992.108,454.743l-24.8-.017c.787-.837,1.812-.491,2.734-.495,7.355-.027,14.71-.015,22.065-.015Z" transform="translate(4.579 -305.401)"/>
    <path class="cls-19" d="M971.56,420.991l20.547-.013v.528c-5.943,0-11.885.016-17.828-.017C973.364,421.484,972.336,421.853,971.56,420.991Z" transform="translate(4.579 -305.401)"/>
    <path class="cls-20" d="M991.576,318.618l.532.009v2.638l-1.55,1.087-1.094-1.613C989.664,319.53,990.774,319.227,991.576,318.618Z" transform="translate(4.579 -305.401)"/>
    <path class="cls-21" d="M898.664,306.947c-.236.919-1.021,1.408-1.631,2.017q-24.216,24.239-48.405,48.5c-1.652,1.667-2.4,1.331-3.847-.129q-17.431-17.6-35.017-35.056c-4.665-4.636-9.466-9.134-14.193-13.706a3.217,3.217,0,0,0-2.018-1.123c.892-.858,2-.453,3.007-.455,19.215-.027,38.429,0,57.644-.027,13.86-.022,27.72-.117,41.58-.167C896.743,306.8,897.7,306.9,898.664,306.947Z" transform="translate(4.579 -305.401)"/>
    <path class="cls-22" d="M362.672,442.168c-2.637-1.386-4.329-3.773-6.263-5.9-.706-1.581-2.006-2.9-2.128-4.739-1.856-8.609-.681-16.333,6.406-22.4,6.726-5.759,18.776-5.9,25.559-.234a4.626,4.626,0,0,1,.7,1.024c.572,1.941,1.683,3.723,1.711,5.828.123,1.5.072,3,.068,4.5a7.357,7.357,0,0,1-.114,1.222c-1.513,8.57-6.369,14.433-14.488,17.467a18.3,18.3,0,0,1-13.476-.324C361.358,439.977,363.124,440.448,362.672,442.168Z" transform="translate(4.579 -305.401)"/>
    <path class="cls-2" d="M41.352,513.741q-18.418.046-36.836.093c-1.4,0-2.805.037-4.208.056q0-23.536,0-47.071c2.8-1.4,5.758-.569,8.654-.639a2.8,2.8,0,0,1,1.325.466,3.118,3.118,0,0,1,.69,2.2,166.327,166.327,0,0,1,.524,17.86c-.372,7.431,5.678,11.613,11.6,12.088,2.448.2,4.914.026,7.371.076a3.862,3.862,0,0,1,4.037,3.121,19.048,19.048,0,0,0,6.044,9.934A1.785,1.785,0,0,1,41.352,513.741Z" transform="translate(4.579 -305.401)"/>
    <path class="cls-21" d="M965.211,347.682c-3.688,3.757-7.391,7.5-11.055,11.28-1.082,1.116-1.959.852-2.868-.173-1.509-1.7-2.962-3.459-4.564-5.068q-18.135-18.2-36.334-36.33c-3.291-3.274-6.732-6.4-10.094-9.6a2.642,2.642,0,0,0-1.6-.828c2.286-.748,4.6-.1,6.906-.166,3.562-.644,7.151-.219,10.727-.242,1.452-.009,2.269,1.221,3.185,2.136q17.854,17.823,35.69,35.665a7.409,7.409,0,0,0,2.842,2.27,21.5,21.5,0,0,0,4.572.273C963.542,346.954,964.515,346.867,965.211,347.682Z" transform="translate(4.579 -305.401)"/>
    <path class="cls-22" d="M658.717,431.524a14.628,14.628,0,0,1-5.785,9.1c-.562-.44-.224-1.1-.275-1.665-12.872,2.99-22.805-3.863-24.814-17-.053-.349-.179-.677-.243-1.023-.748-3.854.646-7.434,1.421-11.094,5.99-6.494,17.244-6.965,23.795-.947a18.236,18.236,0,0,1,5.907,9.426,14.518,14.518,0,0,0,.261,3.882,14.731,14.731,0,0,1-.278,6.705C658.46,429.752,657.915,430.657,658.717,431.524Z" transform="translate(4.579 -305.401)"/>
    <path class="cls-23" d="M466.095,424.136a16.168,16.168,0,0,1,14.117-11.266c5.24-.424,10.179.146,13.986,4.345-.315,1.476.377,2.7.992,3.945a7.98,7.98,0,0,1,.457,4.877,18.77,18.77,0,0,1-5.554,11.809c-5.1,4.894-10.946,6.564-17.839,4.739.305.969,1.774,1.445,1.207,2.763-4.23-2.593-7.182-6.091-7.917-11.163C465.633,430.83,465.429,427.459,466.095,424.136Z" transform="translate(4.579 -305.401)"/>
    <path class="cls-22" d="M531.475,417.257a15.227,15.227,0,0,1,19.657-1.88c7.33,5.391,9.375,17.955,4.106,25.394a10.367,10.367,0,0,1-1.5,1.42c-1.706-.035-3.2.884-4.87,1.052-6.268.632-11.156-1.839-14.835-6.763a20.079,20.079,0,0,1-3.665-14.474A15.283,15.283,0,0,1,531.475,417.257Z" transform="translate(4.579 -305.401)"/>
    <path class="cls-22" d="M416.508,446.849c-5.195-3.491-6.256-9.69-4.915-15.488a13.788,13.788,0,0,1,12.33-10.57c4.536-.361,8.924-.088,12.09,3.891.171,1.386,1.041,2.571,1.149,3.978a24.966,24.966,0,0,1,.093,3.254,7.06,7.06,0,0,1-.119,1.207,17.406,17.406,0,0,1-4.4,8.757c-3.96,3.984-8.711,5.24-14.143,4.411C417.823,446.171,416.889,445.488,416.508,446.849Z" transform="translate(4.579 -305.401)"/>
    <path class="cls-23" d="M299.866,448.562c-7.113-4.122-7.584-15.631-3.18-21.166a15.15,15.15,0,0,1,21.078-2.678,14.871,14.871,0,0,1-1.7,17.689,15.119,15.119,0,0,1-17.664,3.957C299.032,446.784,300.339,447.008,299.866,448.562Z" transform="translate(4.579 -305.401)"/>
    <path class="cls-22" d="M585.411,423.646c3.816-3.564,8.4-3.8,12.907-2.206,5.066,1.788,7.874,5.793,8.638,11.151a14.481,14.481,0,0,0-.017,5.787,11.724,11.724,0,0,1-4.68,8.527c-.344-1-1.03-.811-1.87-.692a15.264,15.264,0,0,1-16.9-18.305A12.906,12.906,0,0,1,585.411,423.646Z" transform="translate(4.579 -305.401)"/>
    <path class="cls-23" d="M713.554,439.973a9.107,9.107,0,0,1-3.1,6.446c-8.5,3.1-14.161-.177-17.518-5.115a16.407,16.407,0,0,1-2.585-12.26,20.36,20.36,0,0,0,.411-2.845c5.7-7.232,17.526-5.724,21.174,2.7A25.658,25.658,0,0,1,713.554,439.973Z" transform="translate(4.579 -305.401)"/>
    <path class="cls-24" d="M362.672,442.168c-.7-1.639-2.452-2.431-3.354-3.981,1.179-.77,2.132.052,3.051.27,12.177,2.879,22.688-3.747,25.249-15.983a5.373,5.373,0,0,1,.407-.967c.849-1.76,2.335-3.343,1.5-5.57a.661.661,0,0,1,.364-.873.9.9,0,0,1,1.142.365,6.732,6.732,0,0,1,1.251,2.836c.223,1.247.328-.373.557-.057a20.154,20.154,0,0,1-1.108,16.489c-1.666,2.7-3.276,5.454-6.386,6.8-2.784,2.659-6.471,3.078-9.951,4.011-1.2,1.168-2.344.887-3.46-.132A20.2,20.2,0,0,1,362.672,442.168Z" transform="translate(4.579 -305.401)"/>
    <path class="cls-24" d="M628.089,420.962c.962,3.037,1.357,6.222,3.129,9.035,3.9,6.186,11.84,11.684,20.853,8.369.563-.207,1.154-.335,1.986-.572.017,1.239-1.508,1.713-1.125,2.831-2.577,3.282-6.373,4-10.124,4.808-1.01,1.168-2.045,1.075-3.1.062A20.062,20.062,0,0,1,625,434.875a16.193,16.193,0,0,1-1.752-5.411c.164-3.011.092-6.023.041-9.035.49-3.022,1.4-5.854,3.662-8.07.96,1.224.218,2.521.04,3.73A5.95,5.95,0,0,0,628.089,420.962Z" transform="translate(4.579 -305.401)"/>
    <path class="cls-24" d="M473.461,445.348c-.518-1.448-2.123-2.035-2.907-3.763,2.478.065,4.614,1.008,6.9,1.113,7.606.351,16.906-7.442,17.18-15.3a3.546,3.546,0,0,1,.5-1.146,2.823,2.823,0,0,0,1.137-2.484c-.113-1.946.954-1.555,2.068-1.295,4.942,9.879-.653,22.188-11.27,24.794-1.02.25-2.039.508-3.058.762a2.311,2.311,0,0,1-2.919-.072A17.83,17.83,0,0,1,473.461,445.348Z" transform="translate(4.579 -305.401)"/>
    <path class="cls-24" d="M531,421.505c-.317,5.172.391,10.05,3.478,14.453a14.924,14.924,0,0,0,17,5.937c.686-.213,1.746-1.481,2.259.3-2.366,3.749-6.147,5-10.2,5.782a2.133,2.133,0,0,1-2.6.091,17.781,17.781,0,0,1-12.847-9.321,5.706,5.706,0,0,1-.859-2.959c-.714-3.155-.33-6.369-.507-9.552a8.51,8.51,0,0,1,1.631-4.723c2.154.266.664,2.189,1.386,3.076C529.634,423.353,529.346,422.043,531,421.505Z" transform="translate(4.579 -305.401)"/>
    <path class="cls-11" d="M973.113,305.518l11.7,12.038c-5.679,0-10.8,0-15.921,0a2.214,2.214,0,0,1-1.6-.8q-5.531-5.616-11.061-11.234Z" transform="translate(4.579 -305.401)"/>
    <path class="cls-11" d="M954.687,305.532c4.209,3.571,7.854,7.7,12.349,12.023-5.828,0-10.954,0-16.081,0a2.507,2.507,0,0,1-1.792-.982q-5.175-5.257-10.347-10.516A83.934,83.934,0,0,1,954.687,305.532Z" transform="translate(4.579 -305.401)"/>
    <path class="cls-25" d="M756.708,454.777a46.772,46.772,0,0,1-15.264-.122q.038-7.587.077-15.174c1.552-.757,3.222-.03,4.805-.378,1.451-.069,1.763,1.238,2.487,2.05a11.333,11.333,0,0,0,6.307,4.2c.909.227,1.851.5,2.218,1.557C757.513,449.564,758.353,452.271,756.708,454.777Z" transform="translate(4.579 -305.401)"/>
    <path class="cls-24" d="M299.866,448.562c-.138-1.058-1.256-1.424-1.752-2.567,2.368.356,4.6.714,6.837.919,5.848.534,12.964-5.567,14.053-11.967.577-3.389.373-6.394-1.4-9.3a.667.667,0,0,1,.162-.926c5.212,3.755,6.946,9.044,5.691,15.031-1.274,6.074-5.429,9.81-11.48,11.346-.679.172-1.35.375-2.024.563a1.807,1.807,0,0,1-2.465-.06C304.773,451.018,302.014,450.556,299.866,448.562Z" transform="translate(4.579 -305.401)"/>
    <path class="cls-11" d="M937.75,306.043c.865,2.332,3.017,3.552,4.612,5.236,1.85,1.954,3.923,3.7,5.9,5.532l-.346.779h-15c-.087.014-.2.072-.255.035a56.324,56.324,0,0,1-11.3-11.139c-.092-.114.008-.327.107-.486Z" transform="translate(4.579 -305.401)"/>
    <path class="cls-24" d="M585.411,423.646c.209,1.62-.943,2.846-1.241,4.373-1.529,7.83,3.769,15.028,8.769,17.056,3.233,1.311,6.474.885,9.887-.234.2.805-.891,1.309-.565,2.064-1.9,2.476-4.791,2.89-7.523,3.639a1.668,1.668,0,0,1-2.146.083c-3.96-.933-7.42-2.675-9.842-6.091A15.534,15.534,0,0,1,585.411,423.646Z" transform="translate(4.579 -305.401)"/>
    <path class="cls-24" d="M690.759,426.2c1.045.866.525,1.873.305,2.891-1.473,6.819,2.349,14.426,8.764,17.1,2.643,1.1,5.472.875,8.265.267.746-.162,1.566-1.112,2.358-.038-2.047,3.394-5.458,4.435-9.014,5.228a1.7,1.7,0,0,1-2.143.02c-4.637-1.014-8.362-3.3-10.748-7.547a11.332,11.332,0,0,1-1.381-4.148c.033-2.286.011-4.571.013-6.857A10.5,10.5,0,0,1,690.759,426.2Z" transform="translate(4.579 -305.401)"/>
    <path class="cls-24" d="M416.508,446.849l-.627-1.9c9.405,2.6,14.651-.731,18.382-6.054,1.23-1.754,1.526-3.863,2.3-5.788.52-1.238,1.389-2.343,1.294-3.81-.061-.939.5-1.178,1.338-.925a1.1,1.1,0,0,1,.549,1.041c-.376.5.014.985.05,1.475.009.127-.205.458.171.41.079-.01.168-.276.32-.374a2.066,2.066,0,0,1,.461,1.667,15.254,15.254,0,0,0-.01,5.781c-1.225,6.195-5.236,9.729-11.039,11.543-.828.259-1.67.474-2.505.709a1.9,1.9,0,0,1-2.292-.05C421.905,449.785,418.707,449.442,416.508,446.849Z" transform="translate(4.579 -305.401)"/>
    <path class="cls-26" d="M957.287,347.2c-3.14-3.056-6.308-6.082-9.413-9.172q-14.564-14.489-29.064-29.041a5.833,5.833,0,0,0-4.788-2.1c-2.8.149-5.612-.046-8.419-.093-.018-.359.005-.691.476-.731a34.051,34.051,0,0,0,7.975-.043l4.7-.017a9.642,9.642,0,0,1,2.544,1.839Q938.549,324.5,955.458,341.5c.982.987,2.132,1.873,2.408,3.377A2.531,2.531,0,0,1,957.287,347.2Z" transform="translate(4.579 -305.401)"/>
    <path class="cls-1" d="M4.337,521.512l-4.056.007c-.008-1.553.018-3.107-.039-4.659-.026-.7.227-.872.882-.849,1.073.038,2.149-.013,3.223-.027.05.057.1.115.152.172A10.488,10.488,0,0,1,4.337,521.512Z" transform="translate(4.579 -305.401)"/>
    <path class="cls-27" d="M957.287,344.5c-2.8-2.883-5.564-5.8-8.4-8.643-4.5-4.508-9.115-8.9-13.555-13.466-5.418-5.572-11.452-10.517-16.573-16.385l2.709-.006a134.717,134.717,0,0,0,11.448,11.589L934,318.658c3.545,2.06,5.9,5.419,8.816,8.16,1.243,1.167,2.794,2.15,3.31,3.954l.556.572c2.11.87,3.323,2.791,4.955,4.222,2.42,2.123,4.226,4.925,7.163,6.476,2.754.274,5.509.034,8.257.129,1.012.035,2.1-.149,2.888.751l-1.593,1.6A16.569,16.569,0,0,1,957.287,344.5Z" transform="translate(4.579 -305.401)"/>
    <path class="cls-28" d="M371.929,445.374a8.308,8.308,0,0,0,3.462.131c.5,3.062-.171,6.13.058,9.193-.031,1.313-.086,2.625-.087,3.938,0,1.187.072,2.383-1.654,2.335-1.744-.049-1.47-1.326-1.556-2.453-.1-1.28.41-2.636-.438-3.83C372.418,451.6,371.75,448.476,371.929,445.374Z" transform="translate(4.579 -305.401)"/>
    <path class="cls-29" d="M639.71,445.5a7.026,7.026,0,0,0,3.1-.064q.076,4.6.154,9.205c-.052,1.47-.135,2.94-.146,4.41-.008,1.069-.2,1.909-1.518,1.926-1.278.017-1.6-.725-1.591-1.846.015-1.472-.043-2.945-.07-4.417Q639.674,450.1,639.71,445.5Z" transform="translate(4.579 -305.401)"/>
    <path class="cls-30" d="M481.082,447.954l2.92.071q.047,3.341.1,6.681c-.028,1.661-.1,3.323-.072,4.983.017,1.177-.579,1.467-1.63,1.488-1.206.025-1.1-.642-1.117-1.515-.037-1.65-.261-3.3-.407-4.943C481.593,452.484,480.58,450.2,481.082,447.954Z" transform="translate(4.579 -305.401)"/>
    <path class="cls-31" d="M540.947,448.064l2.6-.092q.084,3.369.17,6.736c-.039,1.651-.09,3.3-.112,4.952-.012.9-.268,1.5-1.331,1.491-1.079-.009-1.27-.643-1.279-1.528-.017-1.649-.074-3.3-.116-4.947A31.31,31.31,0,0,1,540.947,448.064Z" transform="translate(4.579 -305.401)"/>
    <path class="cls-32" d="M307.485,451.6l2.465.06q.188,1.514.376,3.027c-.771,2.034-.212,4.147-.365,6.219-.065.886.057,1.8-1.268,1.812-1.3.008-1.212-.88-1.329-1.779-.27-2.073.5-4.143-.036-6.206Q307.407,453.164,307.485,451.6Z" transform="translate(4.579 -305.401)"/>
    <path class="cls-33" d="M392.835,418.209l-.175,1.481c-1.237-1.355-1.092-3.183-2.686-4.541,1.035,2.876.246,4.883-1.95,6.357q.009-.531.018-1.061a7.287,7.287,0,0,0-.016-5.272c-.022-1.823-1.7-3.307-1.077-5.261C389.735,412.093,392.035,414.619,392.835,418.209Z" transform="translate(4.579 -305.401)"/>
    <path class="cls-34" d="M424.9,450.579l2.292.05q.14,2.041.279,4.081c-.7,1.777-.2,3.632-.347,5.446-.059.727-.065,1.427-1.071,1.452s-1.111-.633-1.124-1.389q-.049-2.759-.1-5.517C424.884,453.328,424.492,451.946,424.9,450.579Z" transform="translate(4.579 -305.401)"/>
    <path class="cls-35" d="M592.591,450.628l2.146-.084q.057,2.094.114,4.186c-.018,1.739-.026,3.479-.06,5.217-.015.772.088,1.69-1.109,1.645s-.941-1-1.013-1.737c-.167-1.71.365-3.469-.357-5.14Q592.452,452.671,592.591,450.628Z" transform="translate(4.579 -305.401)"/>
    <path class="cls-36" d="M699.294,451.667l2.143-.02q.055,1.52.111,3.039c-.04,2.1-.072,4.2-.128,6.3-.02.767.118,1.7-1.094,1.673s-.967-.988-1.031-1.734c-.179-2.076.377-4.194-.355-6.238Q699.119,453.175,699.294,451.667Z" transform="translate(4.579 -305.401)"/>
    <path class="cls-37" d="M628.089,420.962c-1.935-.569-2.088-2.186-1.979-3.744a45.688,45.688,0,0,1,.837-4.859,4.752,4.752,0,0,1,2.075-2.52c1.007,1.53.008,3.041-.337,4.388A26.587,26.587,0,0,0,628.089,420.962Z" transform="translate(4.579 -305.401)"/>
    <path class="cls-38" d="M498.33,422.47l-.079,1.029c-.9.171-.216-1.159-1.346-.847.184-.13-.039,0-.029.024.877,1.781-.656,2.875-1.273,4.2-.117.251-.42-.307-.478-.623a14.23,14.23,0,0,0-.536-5.267c-.885-2.409-.885-2.409.011-3.17A9.346,9.346,0,0,1,498.33,422.47Z" transform="translate(4.579 -305.401)"/>
    <path class="cls-39" d="M658.717,431.524c-.383-.083-1.119.925-.954.238a34.856,34.856,0,0,0,.425-12.336c-.04-.344.347-.738.536-1.109a18.735,18.735,0,0,1,.181,11.44A8.732,8.732,0,0,0,658.717,431.524Z" transform="translate(4.579 -305.401)"/>
    <path class="cls-40" d="M531,421.505c-1.465,1.382-.452,3.1-.518,4.772-2.166-1.071-.718-3.535-2.121-4.769.785-1.6,1.5-3.252,3.11-4.251C532.229,418.774,530.821,420.051,531,421.505Z" transform="translate(4.579 -305.401)"/>
    <path class="cls-41" d="M439.2,428.376c-.125.477-1.1.118-.891.65.778,1.992-.612,2.963-1.741,4.086q.007-.53.015-1.06a4.219,4.219,0,0,0-.013-3.687c-.358-1.2-1.17-2.334-.556-3.683C437.147,425.85,438.785,426.585,439.2,428.376Z" transform="translate(4.579 -305.401)"/>
    <path class="cls-42" d="M713.554,439.973c-.657-.5-.57-1.223-.526-1.893a17,17,0,0,0-1.2-7.811c-.2-.481-.457-.954.106-1.37C714.42,432.305,714.2,436.108,713.554,439.973Z" transform="translate(4.579 -305.401)"/>
    <path class="cls-39" d="M466.095,424.136a29.541,29.541,0,0,1-.55,10.049C464.954,430.793,464.664,427.418,466.095,424.136Z" transform="translate(4.579 -305.401)"/>
    <path class="cls-43" d="M526.734,426.232c1.041,3.138.586,6.355.507,9.552C525.8,432.667,526.1,429.459,526.734,426.232Z" transform="translate(4.579 -305.401)"/>
    <path class="cls-44" d="M623.286,420.429a14.713,14.713,0,0,1-.041,9.035A20.188,20.188,0,0,1,623.286,420.429Z" transform="translate(4.579 -305.401)"/>
    <path class="cls-45" d="M687.178,433.115a9.5,9.5,0,0,1-.013,6.857A12.855,12.855,0,0,1,687.178,433.115Z" transform="translate(4.579 -305.401)"/>
    <path class="cls-46" d="M385.341,441.5c2.511-1.907,4.344-4.45,6.386-6.8C390.484,437.8,388.824,440.5,385.341,441.5Z" transform="translate(4.579 -305.401)"/>
    <path class="cls-47" d="M914.054,306.025a15.109,15.109,0,0,1-7.975.043Z" transform="translate(4.579 -305.401)"/>
    <path class="cls-48" d="M354.28,431.525c.633,1.614,1.939,2.926,2.128,4.739C355.033,434.984,353.9,433.595,354.28,431.525Z" transform="translate(4.579 -305.401)"/>
    <path class="cls-49" d="M440.739,438.376a7.367,7.367,0,0,1,.01-5.781A17.371,17.371,0,0,1,440.739,438.376Z" transform="translate(4.579 -305.401)"/>
    <path class="cls-50" d="M606.94,438.378a7.174,7.174,0,0,1,.017-5.787A23.1,23.1,0,0,1,606.94,438.378Z" transform="translate(4.579 -305.401)"/>
    <path class="cls-41" d="M440.288,430.928c-.037.691-.375,1.132-1.423,1.357.789-.958-.045-2.078.882-2.868A2.093,2.093,0,0,1,440.288,430.928Z" transform="translate(4.579 -305.401)"/>
    <path class="cls-51" d="M494.6,417.813c-1.194,1.052.393,2.114-.011,3.17-.984-1.167-1.7-2.363-.391-3.768C494.491,417.307,494.708,417.45,494.6,417.813Z" transform="translate(4.579 -305.401)"/>
    <path class="cls-52" d="M743.5,369.716l-1.48.128c-1.021-.365-2.2.319-3.156-.491l.585-.133a4.055,4.055,0,0,1,3.924-.245A.448.448,0,0,1,743.5,369.716Z" transform="translate(4.579 -305.401)"/>
    <path class="cls-53" d="M273.046,466.848l1.034.112a96.64,96.64,0,0,1,.452,21.219,13.559,13.559,0,0,1-13.539,11.928c-7.554.024-15.109-.005-22.664.01-3.709.008-4.2.388-5.476,3.97-1.419,3.98-3.6,7.389-7.291,9.655l-2.073.008c-.064-1.274,1.036-1.769,1.75-2.459a21.226,21.226,0,0,0,5.367-8.3c1.528-4.3,2.85-5.156,7.409-5.164,7.022-.013,14.068-.371,21.06.091,8.491.56,15.143-7.556,12.767-15.628a114.909,114.909,0,0,0,.372-12C272.227,469.092,272.041,467.816,273.046,466.848Z" transform="translate(4.579 -305.401)"/>
    <path class="cls-54" d="M272.433,482.647c2.65,7.2-3.637,15.8-11.686,15.867-7.73.067-15.46.013-23.19.017-3.863,0-4.938.621-6.156,4.38a22.494,22.494,0,0,1-7.912,10.838l-2.673.017c4.431-2.991,7.75-6.734,9.334-12.045.555-1.862,1.6-4.184,4.35-4.247,2.327-.544,4.689-.213,7.032-.235,5.947-.058,11.894-.008,17.841-.031a4.568,4.568,0,0,0,2.564-.26c4.51-.3,6.687-3.643,8.962-6.861.149-1.233.949-2.372.532-3.687l-.976-.015A3.811,3.811,0,0,1,272.433,482.647Z" transform="translate(4.579 -305.401)"/>
    <path class="cls-55" d="M41.352,513.741c-3.646-3.343-6.724-7.015-7.686-12.1a2.6,2.6,0,0,0-2.951-2.073c-2.188.075-4.381,0-6.571.02-6.457.057-14.027-4.706-13.378-13.221.493-6.466-.488-12.919-.524-19.387a.876.876,0,0,1,1.221-.144c.969,1.647.536,3.5.784,5.257a39.746,39.746,0,0,0,.008,8.578,5.568,5.568,0,0,1,.205.817,11,11,0,0,1,.326,2.895c-1.1,8.112,3.284,13.1,11.539,13.093a67.413,67.413,0,0,1,7.879.326,3.344,3.344,0,0,1,3.275,2.916c.591,4.774,3.267,8.206,6.7,11.241.557.492,1.45.778,1.306,1.795Z" transform="translate(4.579 -305.401)"/>
    <path class="cls-56" d="M225.562,513.742a27.752,27.752,0,0,0,7.512-11.528c.73-2.3,3.074-2.621,5.276-2.622q11.465,0,22.93,0c6.53-.012,11.95-5.481,12.893-11.924,1.019-6.96-.425-13.807-.093-20.7l.527.01c.717,6.026.252,12.093.576,18.123a14.674,14.674,0,0,1-15.458,15.626c-7.453-.371-14.939-.04-22.41-.1-1.686-.014-3.156.355-3.5,2.065-.92,4.515-3.729,7.813-6.67,11.066Z" transform="translate(4.579 -305.401)"/>
    <path class="cls-5" d="M922.839,455.146l-31.5.007a3.694,3.694,0,0,1-.808-2.938c-.007-4.364-.1-8.729.038-13.093,0-.342.011-.683.015-1.024.029-14.331,0-28.662.02-42.992a8.7,8.7,0,0,1,.394-3.9c2.077-.324,4.231,1.5,4.662,3.985a15.393,15.393,0,0,1,.1,2.627c.005,5.7-.015,11.405.018,17.108.006,1.011-.315,2.139.665,2.942a2.2,2.2,0,0,0,.885.146c6.991.091,13.977.029,20.963.023,3.132,0,3.263-.235,3.368-3.505.086-2.693-.371-5.414.381-8.079a1.562,1.562,0,0,1,1.163-.884,1.06,1.06,0,0,1,.755.628c.693,1.751-.258,3.428-.237,5.173.108,8.947.065,17.9.045,26.846.148,4.781.045,9.562.022,14.343A2.882,2.882,0,0,1,922.839,455.146Z" transform="translate(4.579 -305.401)"/>
    <path class="cls-5" d="M812.727,454.7a2.973,2.973,0,0,1-.937.347q-13.616.026-27.232-.005a3.071,3.071,0,0,1-.953-.344,2.6,2.6,0,0,1-.6-1.941c.028-4.6-.215-9.209.134-13.809a11.3,11.3,0,0,0,.359-3.9q.009-17.587.01-35.175a11.5,11.5,0,0,1,.254-3.648c2.23-1.488,2.654.662,3.594,1.782.574,6.135.1,12.288.272,18.431.033,1.209-.267,2.475.482,3.59a3.59,3.59,0,0,0,.745.531c7.365.471,14.732.088,22.094.2a7.874,7.874,0,0,1,2.1.055c.989.67.709,1.71.732,2.634.242,9.519-.434,19.029-.312,28.548A3.462,3.462,0,0,1,812.727,454.7Z" transform="translate(4.579 -305.401)"/>
    <path class="cls-6" d="M838.953,439.012c4.451.19,8.9.424,13.3-.594,1.255.352,1.384,1.707,2.2,2.454a12.686,12.686,0,0,0,6.506,4.281c1.019.285,2.05.608,2.438,1.789.158,2.786.918,5.612-.577,8.28H830.779a2.25,2.25,0,0,1-1.73-.426c-1.382-2.527-.687-5.193-.529-7.82a2.436,2.436,0,0,1,1.889-1.639,11.26,11.26,0,0,0,7.312-5.534A1.191,1.191,0,0,1,838.953,439.012Z" transform="translate(4.579 -305.401)"/>
    <path class="cls-6" d="M891.175,438.454a.511.511,0,0,1,.037.506c-4.028.534-4.065,3.36-3.851,6.477.155,2.259.053,4.538.017,6.807a4.014,4.014,0,0,1-.776,2.959l-21.682,0c-1.361-2.685-.663-5.5-.533-8.28a2.58,2.58,0,0,1,2.052-1.792,11.908,11.908,0,0,0,7.868-5.955c.238-.433.513-.945,1.187-.752a110.688,110.688,0,0,0,12.115-.087,2.742,2.742,0,0,1,2.6-.5A1.492,1.492,0,0,1,891.175,438.454Z" transform="translate(4.579 -305.401)"/>
    <path class="cls-6" d="M768.559,438.733a41.282,41.282,0,0,0,11.963.112,2.119,2.119,0,0,1,2.064-.4,1.476,1.476,0,0,1,.721.5.72.72,0,0,1-.289.787,2.811,2.811,0,0,1-.828.355c-1.866.1-2.479,1.17-2.452,2.925q.066,4.287,0,8.577c-.017,1.107.139,2.279-.743,3.195-1.282.846-2.714.387-4.07.407-4.442.065-8.885.04-13.328.012-.93-.006-1.933.279-2.756-.448-1.3-2.506-.638-5.136-.5-7.731a2.1,2.1,0,0,1,1.6-1.564c3.646-.874,6.054-3.274,7.982-6.3A1.1,1.1,0,0,1,768.559,438.733Z" transform="translate(4.579 -305.401)"/>
    <path class="cls-25" d="M922.839,455.146c.009-4.715,0-9.431.042-14.146.008-.9-.4-1.974.739-2.572q.182-.447.491-.075a7.707,7.707,0,0,0,3.068.064c1.248.36,1.379,1.71,2.193,2.457a12.636,12.636,0,0,0,6.5,4.278c1.019.287,2.05.607,2.439,1.787.164,2.786.906,5.609-.564,8.28Z" transform="translate(4.579 -305.401)"/>
    <path class="cls-25" d="M814.307,438.975l2.606.27c1.175-.061,1.516.912,2.052,1.645,1.292,2.269,3.539,3.229,5.768,4.216,1,.444,2.253.509,2.753,1.755.253,2.768.877,5.556-.478,8.227q-6.231.063-12.462.126a1.693,1.693,0,0,1-1.4-.534c-.317-4.8-.063-9.6-.134-14.4a1.746,1.746,0,0,1,.458-1.191A.548.548,0,0,1,814.307,438.975Z" transform="translate(4.579 -305.401)"/>
    <path class="cls-57" d="M886.6,455.2c0-4.359.191-8.731-.076-13.074-.172-2.793.838-3.617,3.381-3.218a10.592,10.592,0,0,0,1.305.047q.064,8.1.127,16.194Z" transform="translate(4.579 -305.401)"/>
    <path class="cls-58" d="M778.991,454.79q-.009-5.873-.017-11.745c0-3.643,0-3.643,3.7-3.529.836,1.081.475,2.347.5,3.535.077,3.741-.061,7.485.076,11.227l.1.47A4.939,4.939,0,0,1,778.991,454.79Z" transform="translate(4.579 -305.401)"/>
    <path class="cls-59" d="M783.143,439.438a1.1,1.1,0,0,0-.029-.451c-.875-1.15-.662-2.5-.664-3.8q-.023-19.676-.016-39.353c0-1.364.315-2.892-1.428-3.571-.31-.044-.618-.084-.93-.1a4.553,4.553,0,0,1-2.2-.746c-5.857-.045-11.715-.075-17.571-.149-.936-.012-1.922.292-2.811-.271.95-1.081,2.245-.816,3.436-.822,6.2-.035,12.408-.005,18.61-.024a13.849,13.849,0,0,1,3.406.171,1.6,1.6,0,0,1,1.333,1.308,6.649,6.649,0,0,1-.206,3.921c-.243,13.489-.033,26.978-.113,40.467a7.926,7.926,0,0,1-.179,2.863q-.088,7.908-.176,15.815l-.129.049h-.136l-.129-.019A94.907,94.907,0,0,1,783.143,439.438Z" transform="translate(4.579 -305.401)"/>
    <path class="cls-60" d="M813.819,439.038c-.824.493-.723,1.306-.72,2.084q.022,6.778.045,13.556l-.208.03-.209-.01c-.369-10.335.879-20.642.512-30.975-.032-.9.426-1.958-.57-2.674-8.216.3-16.432.314-24.648-.007l-.144-.113a.677.677,0,0,1,.325-.816,3.15,3.15,0,0,1,.9-.337c6.4-.305,12.816-.059,19.224-.14,3.412-.043,3.489-.177,3.608-3.567.088-2.523-.46-5.1.489-7.567a1.063,1.063,0,0,1,.86-.448,1.036,1.036,0,0,1,.832.525c.737,1.565-.142,3.1-.122,4.658.1,7.734.053,15.469.035,23.2A5.521,5.521,0,0,1,813.819,439.038Z" transform="translate(4.579 -305.401)"/>
    <path class="cls-61" d="M937.749,455.219q-.02-4.468-.04-8.935a1.483,1.483,0,0,1,2.144.017q-.012,4.455-.024,8.91Z" transform="translate(4.579 -305.401)"/>
    <path class="cls-61" d="M864.944,446.292q-.011,4.459-.023,8.917l-2.1.012q-.016-4.474-.032-8.947A1.509,1.509,0,0,1,864.944,446.292Z" transform="translate(4.579 -305.401)"/>
    <path class="cls-62" d="M827.008,455.088l-.036-8.734a1.327,1.327,0,0,1,2.066.015q.006,4.212.012,8.425A2.742,2.742,0,0,1,827.008,455.088Z" transform="translate(4.579 -305.401)"/>
    <path class="cls-63" d="M758.815,446.363q.012,4.2.023,8.4c-.708.37-1.415.7-2.13.017q.017-4.22.035-8.441A1.349,1.349,0,0,1,758.815,446.363Z" transform="translate(4.579 -305.401)"/>
    <path class="cls-64" d="M924.11,438.353a.956.956,0,0,1-.491.075q.012-16.375.024-32.751c-.689-5.656-.253-11.33-.24-17a1.916,1.916,0,0,1,1.444-1.98c1.87-.453,2.123-1.769,2.083-3.382-.047-1.921-.03-3.844,0-5.767a4.325,4.325,0,0,1,.76-2.977c7.169,6.45,13.7,13.553,20.6,20.275a2.516,2.516,0,0,1,1.052,1.752c.008,3.683.038,7.366-.015,11.048-.022,1.5-1.267,1.178-2.164,1.181-6.665.022-13.332.1-19.994-.036-2.3-.047-3.186.433-3.136,2.986C924.206,420.636,924.106,429.5,924.11,438.353Z" transform="translate(4.579 -305.401)"/>
    <path class="cls-64" d="M813.819,439.038q-.023-15.354-.046-30.708a2.573,2.573,0,0,1-.669-1.664c0-4.956-.323-9.917.182-14.864a2.276,2.276,0,0,1,.8-1.011c.93-.676,2.667-.623,2.54-2.272-.216-2.786,1.079-5.74-.87-8.338-11.572-.1-23.132.014-34.693-.05-1.448-.008-3.016.328-4.225-.9.716-.756,1.648-.471,2.493-.472q18.059-.026,36.117.006c.96,0,2.207-.495,2.657.99.364,3.435.04,6.858.171,10.293,0-2.533-.06-5.074.04-7.609.027-.69-.734-1.836.735-2.074,5.666,5.741,11.29,11.525,17.028,17.192a5.69,5.69,0,0,1,2,4.833,47.165,47.165,0,0,0-.01,6.313c.113,2.007-.559,2.836-2.685,2.8-6.315-.1-12.637.069-18.949-.1-1.792-.05-2.152.35-2.138,2.041.071,8.51.018,17.021.008,25.531l-.236.087Z" transform="translate(4.579 -305.401)"/>
    <path class="cls-8" d="M864.973,383.033q9.416-4.075,18.839-8.134a4.63,4.63,0,0,1,1.78-.355q20.807.019,41.613.081c-.019,1.26-1.1,1.482-1.925,1.847-5.6,2.466-11.288,4.725-16.9,7.167a7.627,7.627,0,0,1-3.07.612q-18.515.037-37.019-.015C867.107,384.233,865.605,384.725,864.973,383.033Z" transform="translate(4.579 -305.401)"/>
    <path class="cls-22" d="M853.868,441.027l-1.613-2.61-.451-2.151c.184-1.583-.082-3.162-.055-4.743,1.179-8.852,11.245-13.045,19.122-7.965,3.476,4.677,2.982,10.947-1.26,15.466C866.309,442.539,858.857,445.022,853.868,441.027Z" transform="translate(4.579 -305.401)"/>
    <path class="cls-23" d="M928.8,441.013l-1.622-2.6a6.8,6.8,0,0,1-.517-2.656c-.027-1.411.365-2.82.022-4.232,1.255-8.874,11.314-13.074,19.111-7.978,5.411,6.561.806,17.732-8.269,19.144C934.483,443.166,931.369,443.324,928.8,441.013Z" transform="translate(4.579 -305.401)"/>
    <path class="cls-21" d="M776.839,379.234l40.1.11c.036,1.293-1.068,1.516-1.894,1.854q-7.786,3.185-15.516,6.5a4.105,4.105,0,0,1-2.814.348c-11.163-.217-22.322-.008-33.48-.12-1.183-.012-2.712.5-3.275-1.27Z" transform="translate(4.579 -305.401)"/>
    <path class="cls-22" d="M746.735,439.276a1.491,1.491,0,0,0-.437-1.483c-.949-5.626.479-10.353,5.639-13.266a10.936,10.936,0,0,1,12.36.617,11.07,11.07,0,0,1-1.089,14.376,11.636,11.636,0,0,1-14.85,2.027Z" transform="translate(4.579 -305.401)"/>
    <path class="cls-23" d="M818.483,441.049q-.787-.9-1.572-1.8c-.177-1.376-.461-2.746-.515-4.126A11.575,11.575,0,0,1,834.413,425c3.909,3.415,3.406,13.2-4.219,17.04C826.013,444.147,821.527,443.772,818.483,441.049Z" transform="translate(4.579 -305.401)"/>
    <path class="cls-65" d="M905.586,342.88q6.3,6.162,12.6,12.33c.745.732,1.416,1.539,2.122,2.312-.706.952-1.749.656-2.669.658-8.58.012-17.161.046-25.734-.008-2.242-.454-1.024-1.585-.339-2.34,2.225-2.455,4.648-4.722,6.982-7.074,1.535-1.548,3.059-3.109,4.635-4.614C903.85,343.509,904.419,342.6,905.586,342.88Z" transform="translate(4.579 -305.401)"/>
    <path class="cls-12" d="M743.5,369.716a2.009,2.009,0,0,0-.273-.4c-.6-1.86.619-2.951,1.713-4.109,6.583-6.968,13.9-13.187,20.571-20.06,7.9-8.133,15.652-16.4,23.806-24.285,1.861-1.8,3.615-3.761,6-4.943a4.654,4.654,0,0,1,2.148,2.162c-3.86,4.07-7.9,7.962-11.86,11.932q-17.66,17.7-35.36,35.361a16.261,16.261,0,0,1-2.506,2.316,6.478,6.478,0,0,0-.976.511l-3.1,2.645Q743.578,370.281,743.5,369.716Z" transform="translate(4.579 -305.401)"/>
    <path class="cls-12" d="M900.821,315.941a4.349,4.349,0,0,1,2.168,2.128c-.892,0-1.41.619-1.966,1.176q-23.806,23.8-47.607,47.6a6.207,6.207,0,0,0-.606.848,1.363,1.363,0,0,1-.529.513c-2.462,2.945-5.475,1.813-8.426,1.138l1.037-.061c2.858-.187,4.1-2.513,5.817-4.284,6.72-6.916,14.016-13.243,20.705-20.2,8.749-9.095,17.477-18.215,26.761-26.776C899,317.261,899.629,316.24,900.821,315.941Z" transform="translate(4.579 -305.401)"/>
    <path class="cls-66" d="M906.145,383.537c4.308-1.124,8.222-3.252,12.308-4.93,2.957-1.214,6.067-2.149,8.752-3.982a.588.588,0,0,1,.487-.05c.019,3.6-.02,7.195.087,10.789.044,1.475-.4,2.16-1.912,1.918-1.744-.279-1.964.646-1.985,2.135-.078,5.42.387,10.85-.239,16.261l-.231-.038c-.781-.873-.61-1.956-.618-2.98-.03-3.908,0-7.817-.022-11.725-.006-.932.2-1.938-.631-2.682-3.209-.663-6.45-.131-9.667-.3-1.825-.1-3.674.238-5.477-.291a3.246,3.246,0,0,1-1.333-3.328A2.3,2.3,0,0,1,906.145,383.537Z" transform="translate(4.579 -305.401)"/>
    <path class="cls-67" d="M906.112,384.042l.516,3.13c-.877.975-2.062.759-3.16.769-3.979.037-7.958.011-11.937.02-1.187,0-2.375-.012-3.563,0-7.143-1.033-14.328-.233-21.488-.5-1.031-.039-2.1.28-3.091-.269q.017-1.568.034-3.135c1.239-.762,2.578-.228,3.854-.234q18-.073,36-.017A5.8,5.8,0,0,1,906.112,384.042Z" transform="translate(4.579 -305.401)"/>
    <path class="cls-24" d="M928.8,441.013c3.7,1.328,7.392,1.819,11.194.257,6.052-2.486,9.945-10.5,5.581-17.086-.075-.113.14-.419.22-.635,4.882,3.232,6.419,8.161,4.643,14.89-2.071,4.583-5.859,6.853-10.584,7.862l-2.144-.017C934.142,445.537,930.881,444.271,928.8,441.013Z" transform="translate(4.579 -305.401)"/>
    <path class="cls-68" d="M853.868,441.027c3.791,1.283,7.478,1.963,11.439.183a11.758,11.758,0,0,0,5.356-17.014c-.076-.123.132-.421.208-.638,4.912,3.369,6.41,8.188,4.625,14.871-2.073,4.559-5.809,6.886-10.551,7.863l-2.155-.018C859.2,445.562,855.976,444.247,853.868,441.027Z" transform="translate(4.579 -305.401)"/>
    <path class="cls-69" d="M780.232,391.482a.534.534,0,0,1,.36.011c1.25.24,2.4.162,2.386,2.216-.12,14.654-.062,29.309-.064,43.964a2.109,2.109,0,0,1-.253,1.264l-2.139-.093c-.623-1.056-.414-2.223-.416-3.352q-.044-20.686-.064-41.372C779.716,393.214,779.137,392.288,780.232,391.482Z" transform="translate(4.579 -305.401)"/>
    <path class="cls-24" d="M818.483,441.049c1.69.3,2.965,1.492,4.847,1.651,8.955.758,16.1-8.086,11.082-17.7q7.1,4.564,4.54,14.012a12.654,12.654,0,0,1-9.915,7.357l-2.066-.015C823.512,445.6,820.256,444.509,818.483,441.049Z" transform="translate(4.579 -305.401)"/>
    <path class="cls-24" d="M748.358,441.545c1.935.2,3.69,1.122,5.717,1.109a11.453,11.453,0,0,0,11.254-14.886c-.261-.952-1.723-1.379-1.033-2.625a9.487,9.487,0,0,1,4.643,6.915,42.106,42.106,0,0,0-.017,5.271q-.181.7-.363,1.4c-1.693,4.53-5.189,6.756-9.743,7.632l-2.072-.027A11.306,11.306,0,0,1,748.358,441.545Z" transform="translate(4.579 -305.401)"/>
    <path class="cls-70" d="M783.206,390.872l-3.238-.008c-6.519-.515-13.05-.08-19.573-.241-1.028-.025-2.091.261-3.084-.246-.037-.927-.519-1.918.389-2.709,6.64.1,13.28.11,19.92.062,5.159-.038,10.322.212,15.48-.214,1.448-.119,3-.339,4.329.617a1.818,1.818,0,0,1,.106,2.365c-1.145.855-2.486.607-3.759.606A93.924,93.924,0,0,1,783.206,390.872Z" transform="translate(4.579 -305.401)"/>
    <path class="cls-71" d="M966.8,390.883l-.575.187a1.911,1.911,0,0,1-1.845.9,2.6,2.6,0,0,1-.711-.115,1.407,1.407,0,0,1-.543-.456l-.01,0c-2.576-.534-5.182-.079-7.768-.246-.935-.06-1.911.26-2.8-.265l.063-2.623a2.626,2.626,0,0,1,1.974-.517c7.952.07,15.9-.076,23.851-.269a7.017,7.017,0,0,1,2.071.255q.264,0,.528.009-.015,1.561-.03,3.122l-.54-.011A80.642,80.642,0,0,0,966.8,390.883Z" transform="translate(4.579 -305.401)"/>
    <path class="cls-72" d="M884.95,357.5c5.494-5.533,11.021-11.034,16.462-16.619,1.758-1.8,2.27-.187,3.069.874a1.914,1.914,0,0,1-.675,1.374c-5.029,4.976-9.836,10.176-15.111,14.909a4.45,4.45,0,0,1-.779.21C886.877,358.2,885.561,359.243,884.95,357.5Z" transform="translate(4.579 -305.401)"/>
    <path class="cls-73" d="M746.758,368.2l.527-.518a7.25,7.25,0,0,1,4.064-.853q43.228,0,86.455-.01a24.03,24.03,0,0,1,3.906.479l.792.828c-4.043.032-8.086.091-12.129.092Q788.565,368.22,746.758,368.2Z" transform="translate(4.579 -305.401)"/>
    <path class="cls-74" d="M863.388,387.189c8.24.191,16.486-.262,24.722.253a2.235,2.235,0,0,1,.759,1.343c.346,5.521.123,11.048.147,16.573.042,9.651.025,19.3,0,28.955,0,1.379.228,2.839-.837,4.011l-.567.02q.011-23.069.016-46.137c0-3.183-1.275-4.456-4.393-4.461-5.712-.01-11.425.015-17.137-.022C865.184,387.716,864.14,388.116,863.388,387.189Z" transform="translate(4.579 -305.401)"/>
    <path class="cls-75" d="M797.418,388.256c-2.229-.685-4.448-.176-6.7-.126-10.242.229-20.491.123-30.737.093a9.926,9.926,0,0,1-2.282-.555,3.721,3.721,0,0,1,2.258-1.01c.849.944,1.974.533,2.973.536,10.509.031,21.019.008,31.528.038,1,0,2.123-.4,2.981.523q.188.176.115.34T797.418,388.256Z" transform="translate(4.579 -305.401)"/>
    <path class="cls-76" d="M852.28,368.2l.53-.512H925v.513Z" transform="translate(4.579 -305.401)"/>
    <path class="cls-77" d="M888.686,357.636l15.8-15.879,1.1,1.123c-5.053,4.759-9.985,9.64-14.729,14.71C890.161,358.887,889.436,358.838,888.686,357.636Z" transform="translate(4.579 -305.401)"/>
    <path class="cls-78" d="M888.686,357.636a1.277,1.277,0,0,0,2.171-.047l29.454-.068c.545.458,1.375,1.008-.123,1.176a28.212,28.212,0,0,1-3.151.021l-28.91-.038c-.239-.364-.294-.7.14-.969Q888.475,357.665,888.686,357.636Z" transform="translate(4.579 -305.401)"/>
    <path class="cls-79" d="M963.127,391.4a.391.391,0,0,1,.455-.049,4.889,4.889,0,0,1,.892,3.488q.02,20.427,0,40.854a4.836,4.836,0,0,1-.785,3.261l-.591.012q.007-21.436.008-42.873c0-1.03.247-2.15-.677-2.963C960.977,391.855,963.031,392.029,963.127,391.4Z" transform="translate(4.579 -305.401)"/>
    <path class="cls-80" d="M980.506,387.736c-9.3.28-18.591.736-27.9.531q0-.53,0-1.06c8.39,0,16.78-.006,25.169.022C978.7,387.231,979.728,386.885,980.506,387.736Z" transform="translate(4.579 -305.401)"/>
    <path class="cls-81" d="M906.112,384.042l-42.69.012c.183-.848.88-.915,1.552-1.021.8.813,1.825.467,2.75.469q19.21.043,38.421.035Q906.121,383.789,906.112,384.042Z" transform="translate(4.579 -305.401)"/>
    <path class="cls-82" d="M757.311,390.377c6.642,0,13.284-.014,19.926.019.917,0,1.94-.363,2.731.469L757.494,391Q757.4,390.688,757.311,390.377Z" transform="translate(4.579 -305.401)"/>
    <path class="cls-83" d="M819.053,380.369c-1.107,2.137-.292,4.424-.5,6.632a11.8,11.8,0,0,1-.447,3.334q0-5.288,0-10.576Z" transform="translate(4.579 -305.401)"/>
    <path class="cls-79" d="M952.546,390.889c3.51.451,7.082-.371,10.571.511C959.592,391.262,956.016,392.16,952.546,390.889Z" transform="translate(4.579 -305.401)"/>
    <path class="cls-84" d="M768.922,437.328a6.024,6.024,0,0,1,.017-5.271A7.81,7.81,0,0,1,768.922,437.328Z" transform="translate(4.579 -305.401)"/>
    <path class="cls-85" d="M851.749,431.523a4.8,4.8,0,0,1,.055,4.743A7.072,7.072,0,0,1,851.749,431.523Z" transform="translate(4.579 -305.401)"/>
    <path class="cls-86" d="M926.683,431.528a3.872,3.872,0,0,1-.022,4.232A6.863,6.863,0,0,1,926.683,431.528Z" transform="translate(4.579 -305.401)"/>
    <path class="cls-87" d="M780.232,391.482q-.1,1.319-.191,2.639l-2.163-2.7Z" transform="translate(4.579 -305.401)"/>
    <path class="cls-88" d="M888.266,357.711q-.069.485-.139.969a13.587,13.587,0,0,1-3.253.045c-1.409-.314-.262-.818.075-1.222C885.975,358.851,887.137,358.026,888.266,357.711Z" transform="translate(4.579 -305.401)"/>
    <path class="cls-89" d="M952.807,435.493a1.822,1.822,0,0,1-.018-1.951C953.206,434.1,953.127,434.661,952.807,435.493Z" transform="translate(4.579 -305.401)"/>
    <path class="cls-3" d="M841.709,367.3c-.764.644-1.681.382-2.532.383q-45.946.015-91.892,0c.635-.718,1.235-1.471,1.912-2.148q22.77-22.778,45.565-45.531c.78-.778,1.377-1.878,2.7-1.923q21.994,21.935,44.006,43.851c.922.916,1.3,1.617.067,2.446C839.9,365.472,840.852,366.374,841.709,367.3Z" transform="translate(4.579 -305.401)"/>
    <path class="cls-13" d="M900.821,315.941q-23.388,23.393-46.744,46.818c-1.87,1.884-4.138,3.391-5.29,6.073-.533,1.241-2.544.438-3.9.447.573-.656,1.112-1.348,1.726-1.963q25.56-25.579,51.137-51.141C898.692,315.237,899.618,313.633,900.821,315.941Z" transform="translate(4.579 -305.401)"/>
    <path class="cls-13" d="M795.312,315.918l-47.13,47.144c-1.118,1.118-2.194,2.283-3.374,3.333a4.766,4.766,0,0,0-1.581,2.922l-3.779-.1c.447-.535.854-1.109,1.344-1.6q25.8-25.818,51.6-51.631C793.405,314.979,794.286,313.929,795.312,315.918Z" transform="translate(4.579 -305.401)"/>
    <path class="cls-90" d="M957.287,344.5l11.065.018a15.237,15.237,0,0,1-3.142,3.163c-2.627-.4-5.326.4-7.924-.48Q957.287,345.852,957.287,344.5Z" transform="translate(4.579 -305.401)"/>
    <path class="cls-91" d="M982.09,330.813a1.759,1.759,0,0,1-1.6-1.105c2.4-3.089,4.674-6.311,8.455-7.926l1.124,1.072A93.006,93.006,0,0,1,982.09,330.813Z" transform="translate(4.579 -305.401)"/>
    <path class="cls-92" d="M972.594,340.268l-1.1-1.589c1.517-2.711,3.959-4.572,6.192-6.6a3.186,3.186,0,0,1,3.227-.314l.166.05A97.26,97.26,0,0,1,972.594,340.268Z" transform="translate(4.579 -305.401)"/>
    <path class="cls-93" d="M969.946,342.923c-3.234-.022-6.468-.019-9.7-.084-.827-.017-1.762.358-2.466-.437.9-.959,2.1-.843,3.2-.761a17.811,17.811,0,0,0,10.015-1.9l1.093,1.038A6.712,6.712,0,0,1,969.946,342.923Z" transform="translate(4.579 -305.401)"/>
    <path class="cls-94" d="M964.113,391.354l2.111-.285.5.424a.556.556,0,0,0,.05.465q.012,1.34.025,2.681-.057,18.522-.117,37.043c-.009,2.45-.067,4.9-.1,7.351l-.845-.091c-1.065-1.274-.837-2.816-.839-4.287q-.028-18.294-.006-36.588A18.246,18.246,0,0,0,964.113,391.354Z" transform="translate(4.579 -305.401)"/>
    <path class="cls-95" d="M970.916,398.265q.041,11.225.082,22.449c-.986-.484-.553-1.391-.556-2.1-.026-6.762,0-13.525.006-20.287l.076-.093C970.671,398.038,970.8,398.059,970.916,398.265Z" transform="translate(4.579 -305.401)"/>
    <path class="cls-96" d="M965.742,439.517l.85.01a.43.43,0,0,1,.023.489c-.753,3.9-.129,7.837-.358,11.749-.059,1,.418,2.123-.526,2.975a2.908,2.908,0,0,1-.767-1.893q-.2-5.725,0-11.45A2.612,2.612,0,0,1,965.742,439.517Z" transform="translate(4.579 -305.401)"/>
    <path class="cls-97" d="M964.113,391.354c1.523.669,1.652,1.9,1.647,3.409-.05,14.727-.029,29.453-.028,44.18l-2.047.009q-.051-23.8-.1-47.6Z" transform="translate(4.579 -305.401)"/>
    <path class="cls-58" d="M965.742,439.517q-.006,7.611-.011,15.223c-2.516.47-3.425-.492-3.233-3.092a43.7,43.7,0,0,0-.039-9.192C962.022,439.339,963.453,439.156,965.742,439.517Z" transform="translate(4.579 -305.401)"/>
    <path class="cls-11" d="M951.346,318.634c5.723,0,10.855-.017,15.987.028a2.226,2.226,0,0,1,1.378.64c3.667,3.63,7.3,7.3,11.413,11.426-5.769,0-10.963.012-16.156-.024a1.852,1.852,0,0,1-1.154-.535C959.116,326.483,955.446,322.768,951.346,318.634Z" transform="translate(4.579 -305.401)"/>
    <path class="cls-11" d="M946.128,330.773c-4.2-3.881-8.262-7.9-12.126-12.114q6.985-.022,13.97-.042c.7,0,1.471-.128,2.01.417,3.739,3.774,7.454,7.572,11.548,11.74Z" transform="translate(4.579 -305.401)"/>
    <path class="cls-11" d="M971,339.744c-2.58,3.451-6.318,2.58-9.809,2.627-1.136.015-2.271.022-3.407.032-3.858-3.526-7.54-7.23-11.1-11.058,4.569-.015,9.138.022,13.7-.076a4.374,4.374,0,0,1,3.451,1.506C966.176,335.145,968.6,337.426,971,339.744Z" transform="translate(4.579 -305.401)"/>
    <path class="cls-11" d="M988.95,321.782l-8.455,7.925L970.209,318.63c4.785,0,9.916-.1,15.039.056C987.039,318.743,987.883,320.536,988.95,321.782Z" transform="translate(4.579 -305.401)"/>
    <path class="cls-11" d="M980.915,331.762a4.54,4.54,0,0,0-3.921,1.651,38.961,38.961,0,0,1-5.5,5.265l-6.744-7.406C970.048,331.63,975.492,330.69,980.915,331.762Z" transform="translate(4.579 -305.401)"/>
    <path class="cls-98" d="M991.576,318.618a5.343,5.343,0,0,1-2.113,2.121,3.389,3.389,0,0,1-1.786-2.121Z" transform="translate(4.579 -305.401)"/>
    <path class="cls-99" d="M970.916,398.265h-.2l-.195-.032q0-1.514,0-3.026l.392-.012Z" transform="translate(4.579 -305.401)"/>
    <path class="cls-100" d="M966.8,390.883a38.541,38.541,0,0,1,13.664-.027Z" transform="translate(4.579 -305.401)"/>
    <path class="cls-101" d="M382.987,422.08a1.907,1.907,0,0,1,1.656,2.04c-.044,1.19-1.177,1.732-2.177,1.9-1.246.205-1.285-.868-1.276-1.747A2.143,2.143,0,0,1,382.987,422.08Z" transform="translate(4.579 -305.401)"/>
    <path class="cls-102" d="M372.5,434.688c-1.035.05-1.355-.5-1.349-1.447a1.975,1.975,0,0,1,1.951-2.025c1.113-.146,1.5.991,1.519,1.74C374.651,434.193,373.633,434.629,372.5,434.688Z" transform="translate(4.579 -305.401)"/>
    <path class="cls-103" d="M373.594,422.6c.845.292,1.63.72,1.549,1.58a1.553,1.553,0,0,1-1.811,1.44c-.818-.088-1.112-.738-1.1-1.509A1.4,1.4,0,0,1,373.594,422.6Z" transform="translate(4.579 -305.401)"/>
    <path class="cls-104" d="M365.7,433.575a1.013,1.013,0,0,1-.953,1.024,1.031,1.031,0,0,1-1.317-.891c-.082-.6.379-.938.926-1.027A1.1,1.1,0,0,1,365.7,433.575Z" transform="translate(4.579 -305.401)"/>
    <path class="cls-24" d="M388.027,415.173c1.644,1.753,1.141,3.512.016,5.272Q388.035,417.809,388.027,415.173Z" transform="translate(4.579 -305.401)"/>
    <path class="cls-105" d="M634.412,424.113c-.052.78.1,1.943-1.118,1.915a1.944,1.944,0,0,1-.2-3.882C634.247,422.123,634.4,423.094,634.412,424.113Z" transform="translate(4.579 -305.401)"/>
    <path class="cls-106" d="M641.943,434.635c-.743-.21-1.587-.643-1.5-1.636a1.539,1.539,0,0,1,1.62-1.377c1.124.038,1.314.9,1.309,1.84C643.364,434.322,642.949,434.726,641.943,434.635Z" transform="translate(4.579 -305.401)"/>
    <path class="cls-107" d="M641.432,422.589a1.748,1.748,0,0,1,1.321,1.836,1.115,1.115,0,0,1-1.375,1.2,1.551,1.551,0,0,1-1.486-1.553C639.951,423.215,640.727,422.827,641.432,422.589Z" transform="translate(4.579 -305.401)"/>
    <path class="cls-108" d="M650.651,433.625c.056.662-.224.984-.705.978a1.134,1.134,0,0,1-1.194-1.089.68.68,0,0,1,.717-.837A1.128,1.128,0,0,1,650.651,433.625Z" transform="translate(4.579 -305.401)"/>
    <path class="cls-109" d="M490.172,427.869c1.117.027,1.678.475,1.743,1.389a1.415,1.415,0,0,1-1.465,1.706c-.9.046-1.578-.364-1.553-1.3A1.687,1.687,0,0,1,490.172,427.869Z" transform="translate(4.579 -305.401)"/>
    <path class="cls-110" d="M481.8,435.785a1.386,1.386,0,0,1,1.515,1.467c.051.9-.709,1.092-1.456,1.122s-1.449-.048-1.454-1.043A1.4,1.4,0,0,1,481.8,435.785Z" transform="translate(4.579 -305.401)"/>
    <path class="cls-111" d="M483.492,429.391c-.011.646-.175,1.289-.882,1.391a1.168,1.168,0,0,1-1.384-1.182c0-.636.249-1.481,1.156-1.424A1.132,1.132,0,0,1,483.492,429.391Z" transform="translate(4.579 -305.401)"/>
    <path class="cls-108" d="M474.629,438.736a.852.852,0,0,1-.931-.721c-.086-.718.4-1.088,1.071-1.119a.676.676,0,0,1,.749.8A1.043,1.043,0,0,1,474.629,438.736Z" transform="translate(4.579 -305.401)"/>
    <path class="cls-112" d="M536.273,429.936c-.093.638-.136,1.46-1.174,1.2a1.664,1.664,0,0,1-1.419-1.9c.084-.79.51-1.372,1.338-1.3C536.166,428.033,536.288,428.939,536.273,429.936Z" transform="translate(4.579 -305.401)"/>
    <path class="cls-109" d="M544.128,436.93c.075,1.071-.358,1.448-1.206,1.45-.793,0-1.365-.237-1.325-1.155a1.259,1.259,0,0,1,1.226-1.382A1.224,1.224,0,0,1,544.128,436.93Z" transform="translate(4.579 -305.401)"/>
    <path class="cls-111" d="M541.164,429.543a1.364,1.364,0,0,1,1.064-1.344,1.138,1.138,0,0,1,1.247,1.091,1.392,1.392,0,0,1-1.216,1.5C541.487,430.926,541.414,430.08,541.164,429.543Z" transform="translate(4.579 -305.401)"/>
    <path class="cls-104" d="M550.351,437.781a.845.845,0,0,1-.7.925c-.729.118-1.092-.36-1.145-1.033a.675.675,0,0,1,.767-.78A1.055,1.055,0,0,1,550.351,437.781Z" transform="translate(4.579 -305.401)"/>
    <path class="cls-113" d="M426.8,441.281c-.226.894-.646,1.392-1.493,1.286-.756-.094-1.4-.411-1.174-1.324.17-.691.55-1.284,1.43-1.236C426.465,440.057,426.626,440.723,426.8,441.281Z" transform="translate(4.579 -305.401)"/>
    <path class="cls-114" d="M432.556,436.217c-.829-.185-1.294-.643-1.148-1.468a1.29,1.29,0,0,1,1.532-1.064c.794.043,1.006.572.937,1.251A1.318,1.318,0,0,1,432.556,436.217Z" transform="translate(4.579 -305.401)"/>
    <path class="cls-115" d="M426.9,434.764a1.043,1.043,0,0,1-1.036.9.682.682,0,0,1-.813-.742c.021-.677.389-1.171,1.111-1.094A.865.865,0,0,1,426.9,434.764Z" transform="translate(4.579 -305.401)"/>
    <path class="cls-24" d="M436.569,428.364c1.414,1.224.9,2.455.013,3.687Q436.576,430.208,436.569,428.364Z" transform="translate(4.579 -305.401)"/>
    <path class="cls-116" d="M315.485,434.731c1.017.03,1.325.478,1.266,1.181a1.37,1.37,0,0,1-1.531,1.373c-.773,0-1.059-.467-1.008-1.17A1.342,1.342,0,0,1,315.485,434.731Z" transform="translate(4.579 -305.401)"/>
    <path class="cls-110" d="M309.35,442.277a1.3,1.3,0,0,1-1.318,1.338c-.692.06-1.187-.2-1.2-.99s.29-1.38,1.111-1.491S309.2,441.516,309.35,442.277Z" transform="translate(4.579 -305.401)"/>
    <path class="cls-117" d="M309.788,435.729A1.368,1.368,0,0,1,308.663,437a1,1,0,0,1-1.03-1c-.015-.637.291-1.239,1.06-1.234A1.057,1.057,0,0,1,309.788,435.729Z" transform="translate(4.579 -305.401)"/>
    <path class="cls-118" d="M594.348,442.573a1.193,1.193,0,0,1-1.305-1.27,1.067,1.067,0,0,1,1.02-1.236c.825-.005,1.2.561,1.265,1.32C595.39,442.083,595.108,442.54,594.348,442.573Z" transform="translate(4.579 -305.401)"/>
    <path class="cls-112" d="M588.49,435.191c-.046.589-.256,1.067-.947.959-.845-.131-1.129-.743-1.089-1.53a.888.888,0,0,1,1.028-.921C588.487,433.732,588.5,434.459,588.49,435.191Z" transform="translate(4.579 -305.401)"/>
    <path class="cls-111" d="M594.686,434.693a1.353,1.353,0,0,1-1.13,1.235c-.484.066-.742-.405-.754-.876-.018-.693.277-1.231,1.035-1.235C594.3,433.815,594.607,434.167,594.686,434.693Z" transform="translate(4.579 -305.401)"/>
    <path class="cls-105" d="M695.531,436.144a1.187,1.187,0,0,1-1.241,1.108,1.166,1.166,0,0,1-1.226-1.369,1.131,1.131,0,0,1,1.223-1.112A1.209,1.209,0,0,1,695.531,436.144Z" transform="translate(4.579 -305.401)"/>
    <path class="cls-119" d="M701.917,442.409c-.025.735-.2,1.2-.884,1.155a1.127,1.127,0,0,1-1.124-1.176c-.011-.65.3-1.228,1.065-1.15C701.706,441.312,701.851,441.943,701.917,442.409Z" transform="translate(4.579 -305.401)"/>
    <path class="cls-111" d="M699.476,435.663c.132-.437.387-.8.865-.771a.982.982,0,0,1,.965,1.214c-.048.508-.446.7-.922.6A1.018,1.018,0,0,1,699.476,435.663Z" transform="translate(4.579 -305.401)"/>
    <path class="cls-120" d="M392.892,428.831v-7.774h.257v7.774Z" transform="translate(4.579 -305.401)"/>
    <path class="cls-121" d="M66.7,503.256l2.666-3.678c.293,3.921-1.515,6.911-4.214,9.5.19-1.811,2.317-2.763,2.109-4.751A1.3,1.3,0,0,1,66.7,503.256Z" transform="translate(4.579 -305.401)"/>
    <path class="cls-121" d="M61.456,512.249a2.492,2.492,0,0,1,2.11-1.583A2.491,2.491,0,0,1,61.456,512.249Z" transform="translate(4.579 -305.401)"/>
    <path class="cls-122" d="M262.46,491.67l-27.985-.019a.58.58,0,0,1,.286-.79c.637-.346,1.264-.045,1.9.025,7.452-.2,14.9-.355,22.357-.264a8.794,8.794,0,0,1,3.126.293A.479.479,0,0,1,262.46,491.67Z" transform="translate(4.579 -305.401)"/>
    <path class="cls-123" d="M261.937,496.949c-.776.862-1.806.51-2.726.512-8.237.026-16.474.015-24.711.014.777-.858,1.807-.508,2.727-.511C245.464,496.938,253.7,496.949,261.937,496.949Z" transform="translate(4.579 -305.401)"/>
    <path class="cls-124" d="M262.46,491.67l-.008-.569q-.263-.2-.138-.327a.315.315,0,0,1,.223-.105,10.223,10.223,0,0,0,5.739-2.156,4.14,4.14,0,0,1-3.035,2.506C264.331,491.289,263.389,491.456,262.46,491.67Z" transform="translate(4.579 -305.401)"/>
    <path class="cls-123" d="M271.431,486.4c.995,1.4-.031,2.5-.531,3.687A10.115,10.115,0,0,1,271.431,486.4Z" transform="translate(4.579 -305.401)"/>
    <path class="cls-125" d="M33.967,491.226c-4.156,1.014-8.357.127-12.723.512.285-.327.361-.5.479-.533a4.681,4.681,0,0,1,.771-.11" transform="translate(4.579 -305.401)"/>
    <path class="cls-126" d="M11.834,481.181V472.4c.436,3.088,1.9,6.207.075,9.248A.46.46,0,0,1,11.834,481.181Z" transform="translate(4.579 -305.401)"/>
    <path class="cls-127" d="M922.817,405.906c-.053,3.675-.111,7.351-.155,11.026-.012.979.148,1.943-1.39,1.914-8.226-.158-16.457.242-24.681-.218-.8-.758-.689-1.763-.693-2.714q-.033-8.953-.005-17.906a7.856,7.856,0,0,1,.107-1.574c.263-1.276.874-1.639,1.99-.766a24.044,24.044,0,0,1,3.526,3.539c2.9,3.446,6.335,5.17,11.032,4.733a27.324,27.324,0,0,1,9.679.325C922.882,404.646,922.888,405.262,922.817,405.906Z" transform="translate(4.579 -305.401)"/>
    <path class="cls-9" d="M922.541,404.622c-3.95,0-7.931-.3-11.842.1-3.468.348-5.833-1.081-8.056-3.315-1.9-1.913-3.828-3.806-6.051-6.013,0,7.928,0,15.583,0,23.237l-.187.069h-.2a1.507,1.507,0,0,1-.554-.825c-.221-7.766-.005-15.535-.111-23.3-.333-3.4.418-4.413,3.726-4.465,6.908-.109,13.818-.075,20.727-.008,1.131.011,2.308.05,3.038,1.167C922.749,395.71,923.529,400.2,922.541,404.622Z" transform="translate(4.579 -305.401)"/>
    <path class="cls-128" d="M922.89,391.617c-.767-.853-1.787-.567-2.721-.57q-10.137-.024-20.274-.008c-3.591,0-3.591,0-3.822,3.564-.573,5.136-.188,10.288-.223,15.431-.019,2.768-.394,5.565.272,8.316a.241.241,0,0,1,.084.345c-1.692.009-1.076-1.3-1.082-2.084-.051-5.971-.256-11.954.059-17.909a7.953,7.953,0,0,0-3.784-7.725,2.706,2.706,0,0,1-.157-3.576l15.385-.23,16.37.19a.487.487,0,0,1-.538.621c-9.71.027-19.421,0-29.131.015,9.9.149,19.8-.222,29.691.19A4.374,4.374,0,0,1,922.89,391.617Z" transform="translate(4.579 -305.401)"/>
    <path class="cls-129" d="M891.242,387.4q.079,1.788.157,3.576-.056,21.119-.116,42.236c-.006,1.746-.071,3.493-.108,5.239l-.885-.107c-1.1-1.258-.836-2.805-.839-4.266-.023-13.653,0-27.305-.032-40.958,0-1.7.371-3.562-1.259-4.868q-.025-.407-.05-.813Z" transform="translate(4.579 -305.401)"/>
    <path class="cls-130" d="M922.89,391.617q.052-1.673.1-3.347-.289-.17-.2-.345t.188-.177c0-.129.008-.259.011-.388a1,1,0,0,1,.551,1.07q-.065,8.6-.136,17.209c-.2.09-.4.181-.6.268-.092-.431-.184-.859-.276-1.287Q922.716,398.119,922.89,391.617Z" transform="translate(4.579 -305.401)"/>
    <path class="cls-131" d="M262.539,490.669a2.05,2.05,0,0,0-.086.432l-26.381-.007q-.247-.167-.153-.314c.06-.095.12-.142.179-.142l.007-.007,6.327-.027a166.207,166.207,0,0,1,19.469-.023Z" transform="translate(4.579 -305.401)"/>
    <path class="cls-132" d="M261.9,490.581l-19.469.023c.521-.66,1.264-.508,1.95-.509q7.78-.012,15.561,0C260.626,490.1,261.37,489.93,261.9,490.581Z" transform="translate(4.579 -305.401)"/>
    <path class="cls-133" d="M813.3,408.241a.527.527,0,0,1-.329.1,1.394,1.394,0,0,1-.866-1.1c-.4-3.141-.093-6.3-.194-9.45-.04-1.238-.229-2.348-1.807-2.331-7.179.077-14.365-.428-21.53.3-.408.265-1.7-.747-1.2.869a1.138,1.138,0,0,1-.487,1.1l-2.6-2.208a.533.533,0,0,1-.513-.494q-.049-1.865-.1-3.729c2.66-.813,5.388-.332,8.079-.356,6.012-.054,11.954-1.482,17.992-.87,1.34.136,2.866-.267,3.738,1.261C813.414,396.965,813.76,402.607,813.3,408.241Z" transform="translate(4.579 -305.401)"/>
    <path class="cls-134" d="M786.892,397.723a12.744,12.744,0,0,1,0-2.019c.218-1.406.664-.018,1-.05a3.207,3.207,0,0,1,.812,2.658c-.078,6.372,0,12.744-.041,19.117a4.214,4.214,0,0,1-.669,2.993,2.174,2.174,0,0,1-.126.51c-1.234-.625-.888-1.782-.894-2.782C786.937,411.34,786.919,404.532,786.892,397.723Z" transform="translate(4.579 -305.401)"/>
    <path class="cls-135" d="M783.779,395.022l.513.494q-.025,20.167-.069,40.336c0,1.013.378,2.121-.442,3.03Q783.78,416.952,783.779,395.022Z" transform="translate(4.579 -305.401)"/>
    <path class="cls-19" d="M788.021,421.043l24.649.006c-.136.108-.269.3-.407.309q-11.922.361-23.844,0C788.283,421.356,788.153,421.153,788.021,421.043Z" transform="translate(4.579 -305.401)"/>
    <path class="cls-136" d="M888.161,388.255c2.119-.3,2.144,1.019,2.141,2.579q-.042,23.756-.011,47.513l-2.114-.023Q888.169,413.289,888.161,388.255Z" transform="translate(4.579 -305.401)"/>
    <path class="cls-137" d="M782.661,438.938c0-14.749-.044-29.5.054-44.245.012-1.787-.526-2.72-2.123-3.2,1.5-.26,2.677-.435,2.66,1.868-.114,15.208-.106,30.417-.137,45.626A1.066,1.066,0,0,1,782.661,438.938Z" transform="translate(4.579 -305.401)"/>
    <path class="cls-138" d="M783.143,439.438q.034,7.644.069,15.289c-.957-.837-.522-1.957-.533-2.946-.047-4.088-.014-8.177-.01-12.265Q782.906,439.473,783.143,439.438Z" transform="translate(4.579 -305.401)"/>
    <path class="cls-139" d="M813.3,391.342c-4.782-.77-9.613-.474-14.387-.232-5.084.257-10.152.143-15.227.183a2.383,2.383,0,0,1-.067-.36c3.3-.649,6.626-.087,9.933-.291,1.3-.08,2.624.307,3.886-.264q-.008-1.061-.015-2.121.014-.251.024-.5c6.5-2.8,13.209-5.116,19.5-8.411,1.126.356.625,1.3.654,1.99.074,1.746.025,3.5.025,5.248,0,4.094,0,4.094-3.714,4.831Q813.536,391.919,813.3,391.342Z" transform="translate(4.579 -305.401)"/>
    <path class="cls-100" d="M797.433,390.377c-2.165,1.069-4.467.344-6.7.476-2.365.139-4.744.062-7.117.08a1.056,1.056,0,0,1-.41-.061c2.15-1.048,4.432-.352,6.649-.464C792.374,390.28,794.906,390.378,797.433,390.377Z" transform="translate(4.579 -305.401)"/>
    <path class="cls-7" d="M812.752,407.272l.223,1.072q-.059,5.267-.117,10.533c-.009.876.156,1.786-1.247,1.757-7.717-.155-15.441.271-23.155-.227-.577-4.094-.127-8.21-.238-12.314-.069-2.542-.032-5.088,0-7.632.007-.556-.314-1.317.447-1.606.64-.243,1.171.229,1.658.595a10.775,10.775,0,0,1,2.282,2.173c2.983,4.089,6.946,5.571,11.91,4.892a36.039,36.039,0,0,1,5.258-.029A4.183,4.183,0,0,1,812.752,407.272Z" transform="translate(4.579 -305.401)"/>
    <path class="cls-9" d="M812.752,407.272c-4.481,0-8.962-.058-13.441.032a4.483,4.483,0,0,1-3.691-1.564c-2.123-2.31-4.342-4.531-6.521-6.789l-.643.292q0,10.582,0,21.164l-.226.041-.228-.028q-.051-12.383-.1-24.766c.256-1.244,1.24-.992,2.079-.993,6.988-.007,13.977.009,20.965-.018,1.18,0,2.019.077,1.967,1.636C812.79,399.942,812.8,403.608,812.752,407.272Z" transform="translate(4.579 -305.401)"/>
    <path class="cls-140" d="M813.3,391.342l.607.071q-.065,8.458-.13,16.917a1.622,1.622,0,0,1-.47-.089Q813.3,399.791,813.3,391.342Z" transform="translate(4.579 -305.401)"/>
    <path class="cls-141" d="M869.033,434.386a.9.9,0,0,1-.829-1.093,1.144,1.144,0,0,1,1.179-1.138c.683-.011.832.5.82,1.061C870.189,433.965,869.65,434.221,869.033,434.386Z" transform="translate(4.579 -305.401)"/>
    <path class="cls-110" d="M863.2,437.508a1.03,1.03,0,0,1,1.12.944c.091.635-.282.93-.881.948-.561.017-1.02-.149-1.019-.82A1.15,1.15,0,0,1,863.2,437.508Z" transform="translate(4.579 -305.401)"/>
    <path class="cls-111" d="M863.885,433.978a.858.858,0,0,1-.864-.789.631.631,0,0,1,.522-.772c.544-.081.744.335.814.784C864.415,433.564,864.333,433.894,863.885,433.978Z" transform="translate(4.579 -305.401)"/>
    <path class="cls-119" d="M942.154,426.559a.919.919,0,0,1,.819,1.116c-.052.555-.358,1.036-.962,1.023-.737-.017-1.059-.537-.976-1.236C941.11,426.834,941.659,426.7,942.154,426.559Z" transform="translate(4.579 -305.401)"/>
    <path class="cls-105" d="M939.7,438.438a1.033,1.033,0,0,1-1.064.907c-.667.007-.837-.456-.824-1.017.015-.6.316-.969.948-.88A.985.985,0,0,1,939.7,438.438Z" transform="translate(4.579 -305.401)"/>
    <path class="cls-109" d="M943.893,433.817c.686.023,1.026.333,1.059.763.055.723-.44,1.078-1.11,1.082a.685.685,0,0,1-.713-.835A1.2,1.2,0,0,1,943.893,433.817Z" transform="translate(4.579 -305.401)"/>
    <path class="cls-142" d="M763.582,434a.979.979,0,0,1-.722.97c-.578.13-.727-.3-.738-.776s.121-.893.654-.956C763.294,433.173,763.567,433.47,763.582,434Z" transform="translate(4.579 -305.401)"/>
    <path class="cls-143" d="M758.07,439.144a.851.851,0,0,1-.889.753c-.356.012-.742-.087-.694-.549a.82.82,0,0,1,.85-.8A.7.7,0,0,1,758.07,439.144Z" transform="translate(4.579 -305.401)"/>
    <path class="cls-107" d="M757.533,433.42a.7.7,0,0,1,.706.614.686.686,0,0,1-.7.865c-.383,0-.584-.355-.589-.727A.73.73,0,0,1,757.533,433.42Z" transform="translate(4.579 -305.401)"/>
    <path class="cls-110" d="M833.741,435.721c-.152.535-.455.97-1.05.887a.819.819,0,0,1-.746-1.089,1.018,1.018,0,0,1,1.188-.727C833.644,434.87,833.792,435.245,833.741,435.721Z" transform="translate(4.579 -305.401)"/>
    <path class="cls-114" d="M832.078,428.96a1.044,1.044,0,0,1-1.037.9.68.68,0,0,1-.813-.742c.021-.678.391-1.17,1.112-1.094A.863.863,0,0,1,832.078,428.96Z" transform="translate(4.579 -305.401)"/>
    <path class="cls-144" d="M827.758,438.455c.468.021.93.18.968.674s-.382.729-.86.76a.658.658,0,0,1-.771-.53C826.982,438.827,827.258,438.554,827.758,438.455Z" transform="translate(4.579 -305.401)"/>
    <path class="cls-145" d="M800.027,342.884c4.768,5.031,9.606,9.991,14.75,14.642-.71.944-1.75.651-2.67.653-8.572.012-17.145.045-25.71-.007-2.234-.44-1.037-1.565-.352-2.331,1.971-2.205,4.145-4.22,6.229-6.32,1.778-1.791,3.546-3.592,5.363-5.343C798.3,343.541,798.87,342.645,800.027,342.884Z" transform="translate(4.579 -305.401)"/>
    <path class="cls-72" d="M779.429,357.5c5.409-5.46,10.834-10.9,16.217-16.39,1.521-1.55,2.384-.458,3.31.651a1.887,1.887,0,0,1-.673,1.372c-5.026,4.974-9.832,10.17-15.1,14.9a4.425,4.425,0,0,1-.778.21C781.36,358.2,780.045,359.245,779.429,357.5Z" transform="translate(4.579 -305.401)"/>
    <path class="cls-146" d="M783.164,357.625l15.793-15.859,1.07,1.119c-5.03,4.776-10,9.614-14.7,14.723C784.619,358.868,783.9,358.856,783.164,357.625Z" transform="translate(4.579 -305.401)"/>
    <path class="cls-78" d="M783.164,357.625a1.278,1.278,0,0,0,2.168-.018l29.446-.08c.537.462,1.378,1.053-.136,1.167-1.569.118-3.153.027-4.73.025l-27.34-.03c-.2-.371-.241-.716.155-.994Q782.944,357.652,783.164,357.625Z" transform="translate(4.579 -305.401)"/>
    <path class="cls-147" d="M782.727,357.694q-.076.5-.154.994a15.645,15.645,0,0,1-3.135.055c-1.516-.269-.4-.81-.009-1.237C780.456,358.824,781.6,358.051,782.727,357.694Z" transform="translate(4.579 -305.401)"/>
    <path class="cls-148" d="M236.1,490.638q-.006.229-.026.456l-1.6.168-2.589-.059q.011-.316.021-.632Z" transform="translate(4.579 -305.401)"/>
    <path class="cls-149" d="M896.123,418.352c-.587-.414-.561-1.037-.561-1.65q0-10.212,0-20.423c0-.609-.048-1.236.512-1.675C896.363,402.519,896.269,410.435,896.123,418.352Z" transform="translate(4.579 -305.401)"/>
    <path class="cls-150" d="M922.987,387.749q.009.261.008.522H892.519q0-.261,0-.522Z" transform="translate(4.579 -305.401)"/>
    <polygon class="cls-2" points="4.888 208.205 289.41 208.205 290.804 161.521 4.888 161.419 4.888 208.205"/>
    <path class="cls-1" d="M263,463.054c1.1-.045.675-1.544.807-2.43.137-.918-.1-1.946.839-2.6q20.368.053,40.735.1" transform="translate(4.579 -305.401)"/>
    <path class="cls-1" d="M215.469,463.331c.812-1.742-.291-3.75,1.069-5.217l44.787-.02c.853.711.63,1.726.778,2.648.138.858-.341,2.362.9,2.311" transform="translate(4.579 -305.401)"/>
    <path class="cls-1" d="M164.042,463.25c1.183-1.625-.108-3.783,1.359-5.158l48.6.007c1.27.343.967,1.452,1.112,2.325.151.907-.165,1.87.359,2.906" transform="translate(4.579 -305.401)"/>
    <path class="cls-1" d="M103.982,463.453c1.165-.44.95-1.377,1.039-2.157.125-1.1-.234-2.315.765-3.207l56.777-.031c1.655,1.332.237,3.54,1.479,5.19" transform="translate(4.579 -305.401)"/>
    <path class="cls-1" d="M47.69,463.265c.966-1.665-.6-3.943,1.471-5.172l53.4.01c1.416,1.459.926,3.458,1.422,5.35" transform="translate(4.579 -305.401)"/>
    <path class="cls-1" d="M46.517,458.086c1.562,1.416.342,3.482,1.172,5.179" transform="translate(4.579 -305.401)"/>
    <path class="cls-1" d="M-4.579,463.085" transform="translate(4.579 -305.401)"/>
    <path class="cls-22" d="M280.4,434.908a14.628,14.628,0,0,1-5.785,9.1c-.562-.44-.224-1.1-.275-1.665-12.872,2.99-22.805-3.863-24.814-17-.053-.349-.179-.677-.243-1.023-.748-3.854.646-7.434,1.421-11.094,5.99-6.494,17.244-6.965,23.795-.947a18.236,18.236,0,0,1,5.907,9.426" transform="translate(4.579 -305.401)"/>
    <path class="cls-23" d="M87.781,427.52A16.168,16.168,0,0,1,101.9,416.254c5.24-.424,10.179.146,13.986,4.345-.315,1.476.377,2.7.992,3.945a7.98,7.98,0,0,1,.457,4.877,18.77,18.77,0,0,1-5.554,11.809c-5.1,4.894-10.946,6.564-17.839,4.739.305.969,1.774,1.445,1.207,2.763-4.23-2.593-7.182-6.091-7.917-11.163C87.319,434.214,87.115,430.843,87.781,427.52Z" transform="translate(4.579 -305.401)"/>
    <path class="cls-22" d="M153.161,420.641a15.227,15.227,0,0,1,19.657-1.88c7.33,5.391,9.375,17.955,4.106,25.394a10.367,10.367,0,0,1-1.5,1.42c-1.706-.035-3.2.884-4.87,1.052-6.268.632-11.156-1.839-14.835-6.763a20.079,20.079,0,0,1-3.665-14.474A15.283,15.283,0,0,1,153.161,420.641Z" transform="translate(4.579 -305.401)"/>
    <path class="cls-22" d="M38.194,450.233c-5.195-3.491-6.256-9.69-4.915-15.488a13.788,13.788,0,0,1,12.33-10.57c4.536-.361,8.924-.088,12.09,3.891.171,1.386,1.041,2.571,1.149,3.978a24.966,24.966,0,0,1,.093,3.254,7.06,7.06,0,0,1-.119,1.207,17.406,17.406,0,0,1-4.4,8.757c-3.96,3.984-8.711,5.24-14.143,4.411C39.509,449.555,38.575,448.872,38.194,450.233Z" transform="translate(4.579 -305.401)"/>
    <path class="cls-22" d="M207.1,427.03c3.816-3.564,8.4-3.8,12.907-2.206,5.066,1.788,7.874,5.793,8.638,11.151a14.481,14.481,0,0,0-.017,5.787,11.724,11.724,0,0,1-4.68,8.527c-.344-1-1.03-.811-1.87-.692a15.264,15.264,0,0,1-16.9-18.305A12.906,12.906,0,0,1,207.1,427.03Z" transform="translate(4.579 -305.401)"/>
    <path class="cls-24" d="M249.775,424.345c.962,3.037,1.357,6.222,3.129,9.035,3.9,6.186,11.84,11.684,20.853,8.369.563-.207,1.154-.335,1.986-.572.017,1.239-1.508,1.713-1.125,2.831-2.577,3.282-6.373,4-10.124,4.808-1.01,1.168-2.045,1.075-3.1.062a20.062,20.062,0,0,1-14.713-10.621,16.193,16.193,0,0,1-1.752-5.411c.164-3.011.092-6.023.041-9.035.49-3.022,1.4-5.854,3.662-8.07.96,1.224.218,2.521.04,3.73A5.95,5.95,0,0,0,249.775,424.345Z" transform="translate(4.579 -305.401)"/>
    <path class="cls-24" d="M95.147,448.732c-.518-1.448-2.123-2.035-2.907-3.763,2.478.065,4.614,1.008,6.9,1.113,7.606.351,16.906-7.442,17.18-15.3a3.546,3.546,0,0,1,.5-1.146,2.823,2.823,0,0,0,1.137-2.484c-.113-1.946.954-1.555,2.068-1.295,4.942,9.879-.653,22.188-11.27,24.794-1.02.25-2.039.508-3.058.762a2.311,2.311,0,0,1-2.919-.072A17.83,17.83,0,0,1,95.147,448.732Z" transform="translate(4.579 -305.401)"/>
    <path class="cls-24" d="M152.69,424.889c-.317,5.172.391,10.05,3.478,14.453a14.924,14.924,0,0,0,17,5.937c.686-.213,1.746-1.481,2.259.3-2.366,3.749-6.147,5-10.2,5.782a2.133,2.133,0,0,1-2.6.091,17.781,17.781,0,0,1-12.847-9.321,5.706,5.706,0,0,1-.859-2.959c-.714-3.155-.33-6.369-.507-9.552a8.51,8.51,0,0,1,1.631-4.723c2.154.266.664,2.189,1.386,3.076C151.32,426.737,151.032,425.427,152.69,424.889Z" transform="translate(4.579 -305.401)"/>
    <path class="cls-24" d="M207.1,427.03c.209,1.62-.943,2.846-1.241,4.373-1.529,7.83,3.769,15.028,8.769,17.056,3.233,1.311,6.474.885,9.887-.234.2.805-.891,1.309-.565,2.064-1.9,2.476-4.791,2.89-7.523,3.639a1.668,1.668,0,0,1-2.146.083c-3.96-.933-7.42-2.675-9.842-6.091A15.534,15.534,0,0,1,207.1,427.03Z" transform="translate(4.579 -305.401)"/>
    <path class="cls-24" d="M38.194,450.233l-.627-1.9c9.405,2.6,14.651-.731,18.382-6.054,1.23-1.754,1.526-3.863,2.3-5.788.52-1.238,1.389-2.343,1.294-3.81-.061-.939.5-1.178,1.338-.925a1.1,1.1,0,0,1,.549,1.041c-.376.5.014.985.05,1.475.009.127-.205.458.171.41.079-.01.168-.276.32-.374a2.066,2.066,0,0,1,.461,1.667,15.254,15.254,0,0,0-.01,5.781c-1.225,6.195-5.236,9.729-11.039,11.543-.828.259-1.67.474-2.505.709a1.9,1.9,0,0,1-2.292-.05C43.591,453.169,40.393,452.826,38.194,450.233Z" transform="translate(4.579 -305.401)"/>
    <path class="cls-29" d="M261.4,462.511c.015-1.472-.043-2.945-.07-4.417q.035-4.607.07-9.215a7.026,7.026,0,0,0,3.1-.064q.076,4.6.154,9.205c-.052,1.47-.135,2.94-.146,4.41" transform="translate(4.579 -305.401)"/>
    <path class="cls-30" d="M102.966,463.047c-.037-1.65-.261-3.3-.407-4.943.72-2.235-.293-4.523.209-6.765l2.92.071q.047,3.341.1,6.681c-.028,1.661-.1,3.323-.072,4.983" transform="translate(4.579 -305.401)"/>
    <path class="cls-31" d="M162.679,463.006c-.017-1.649-.074-3.3-.116-4.947a31.31,31.31,0,0,1,.07-6.611l2.6-.092q.084,3.369.17,6.736c-.039,1.651-.09,3.3-.112,4.952" transform="translate(4.579 -305.401)"/>
    <path class="cls-34" d="M46.619,463.6q-.049-2.759-.1-5.517c.053-1.374-.34-2.756.072-4.124l2.292.05q.14,2.041.279,4.081c-.7,1.777-.2,3.632-.347,5.446" transform="translate(4.579 -305.401)"/>
    <path class="cls-35" d="M214.355,463.24c-.167-1.71.365-3.469-.357-5.14q.141-2.044.28-4.088l2.146-.084q.057,2.094.114,4.186c-.018,1.739-.026,3.479-.06,5.217" transform="translate(4.579 -305.401)"/>
    <path class="cls-37" d="M249.775,424.345c-1.935-.569-2.088-2.186-1.979-3.744a45.688,45.688,0,0,1,.837-4.859,4.752,4.752,0,0,1,2.075-2.52c1.007,1.53.008,3.041-.337,4.388A26.587,26.587,0,0,0,249.775,424.345Z" transform="translate(4.579 -305.401)"/>
    <path class="cls-38" d="M120.016,425.854l-.079,1.029c-.9.171-.216-1.159-1.346-.847.184-.13-.039,0-.029.024.877,1.781-.656,2.875-1.273,4.2-.117.251-.42-.307-.478-.623a14.23,14.23,0,0,0-.536-5.267c-.885-2.409-.885-2.409.011-3.17A9.346,9.346,0,0,1,120.016,425.854Z" transform="translate(4.579 -305.401)"/>
    <path class="cls-40" d="M152.69,424.889c-1.465,1.382-.452,3.1-.518,4.772-2.166-1.071-.718-3.535-2.121-4.769.785-1.6,1.5-3.252,3.11-4.251C153.915,422.158,152.507,423.435,152.69,424.889Z" transform="translate(4.579 -305.401)"/>
    <path class="cls-41" d="M60.885,431.76c-.125.477-1.1.118-.891.65.778,1.992-.612,2.963-1.741,4.086q.007-.53.015-1.06a4.219,4.219,0,0,0-.013-3.687c-.358-1.2-1.17-2.334-.556-3.683C58.834,429.234,60.471,429.969,60.885,431.76Z" transform="translate(4.579 -305.401)"/>
    <path class="cls-39" d="M87.781,427.52a29.541,29.541,0,0,1-.55,10.049C86.64,434.177,86.35,430.8,87.781,427.52Z" transform="translate(4.579 -305.401)"/>
    <path class="cls-43" d="M148.42,429.615c1.041,3.138.586,6.355.507,9.552C147.487,436.051,147.782,432.842,148.42,429.615Z" transform="translate(4.579 -305.401)"/>
    <path class="cls-44" d="M244.972,423.813a14.713,14.713,0,0,1-.041,9.035A20.188,20.188,0,0,1,244.972,423.813Z" transform="translate(4.579 -305.401)"/>
    <path class="cls-49" d="M62.425,441.76a7.367,7.367,0,0,1,.01-5.781A17.371,17.371,0,0,1,62.425,441.76Z" transform="translate(4.579 -305.401)"/>
    <path class="cls-50" d="M228.626,441.762a7.174,7.174,0,0,1,.017-5.787A23.1,23.1,0,0,1,228.626,441.762Z" transform="translate(4.579 -305.401)"/>
    <path class="cls-41" d="M61.974,434.312c-.037.691-.375,1.132-1.423,1.357.789-.958-.045-2.078.882-2.868A2.093,2.093,0,0,1,61.974,434.312Z" transform="translate(4.579 -305.401)"/>
    <path class="cls-51" d="M116.286,421.2c-1.194,1.052.393,2.114-.011,3.17-.984-1.167-1.7-2.363-.391-3.768C116.177,420.691,116.395,420.834,116.286,421.2Z" transform="translate(4.579 -305.401)"/>
    <path class="cls-105" d="M256.1,427.5c-.052.78.1,1.943-1.118,1.915a1.944,1.944,0,0,1-.2-3.882C255.933,425.507,256.09,426.477,256.1,427.5Z" transform="translate(4.579 -305.401)"/>
    <path class="cls-106" d="M263.629,438.018c-.743-.21-1.587-.643-1.5-1.636a1.539,1.539,0,0,1,1.62-1.377c1.124.038,1.314.9,1.309,1.84C265.05,437.706,264.635,438.109,263.629,438.018Z" transform="translate(4.579 -305.401)"/>
    <path class="cls-107" d="M263.118,425.973a1.748,1.748,0,0,1,1.321,1.836,1.115,1.115,0,0,1-1.375,1.2,1.551,1.551,0,0,1-1.486-1.553C261.637,426.6,262.413,426.211,263.118,425.973Z" transform="translate(4.579 -305.401)"/>
    <path class="cls-108" d="M272.337,437.008c.056.662-.224.984-.705.978a1.134,1.134,0,0,1-1.194-1.089.68.68,0,0,1,.717-.837A1.128,1.128,0,0,1,272.337,437.008Z" transform="translate(4.579 -305.401)"/>
    <path class="cls-109" d="M111.858,431.253c1.117.027,1.678.475,1.743,1.389a1.415,1.415,0,0,1-1.465,1.706c-.9.046-1.578-.364-1.553-1.3A1.687,1.687,0,0,1,111.858,431.253Z" transform="translate(4.579 -305.401)"/>
    <path class="cls-110" d="M103.485,439.169A1.386,1.386,0,0,1,105,440.636c.051.9-.709,1.092-1.456,1.122s-1.449-.048-1.454-1.043A1.4,1.4,0,0,1,103.485,439.169Z" transform="translate(4.579 -305.401)"/>
    <path class="cls-111" d="M105.178,432.775c-.011.646-.175,1.289-.882,1.391a1.168,1.168,0,0,1-1.384-1.182c0-.636.249-1.481,1.156-1.424A1.132,1.132,0,0,1,105.178,432.775Z" transform="translate(4.579 -305.401)"/>
    <path class="cls-108" d="M96.315,442.12a.852.852,0,0,1-.931-.721c-.086-.718.4-1.088,1.071-1.119a.676.676,0,0,1,.749.8A1.043,1.043,0,0,1,96.315,442.12Z" transform="translate(4.579 -305.401)"/>
    <path class="cls-112" d="M157.959,433.32c-.093.638-.136,1.46-1.174,1.2a1.664,1.664,0,0,1-1.419-1.9c.084-.79.51-1.372,1.338-1.3C157.852,431.417,157.974,432.323,157.959,433.32Z" transform="translate(4.579 -305.401)"/>
    <path class="cls-109" d="M165.815,440.314c.075,1.071-.358,1.448-1.206,1.45-.793,0-1.365-.237-1.325-1.155a1.259,1.259,0,0,1,1.226-1.382A1.224,1.224,0,0,1,165.815,440.314Z" transform="translate(4.579 -305.401)"/>
    <path class="cls-111" d="M162.85,432.927a1.364,1.364,0,0,1,1.064-1.344,1.138,1.138,0,0,1,1.247,1.091,1.392,1.392,0,0,1-1.216,1.5C163.173,434.31,163.1,433.464,162.85,432.927Z" transform="translate(4.579 -305.401)"/>
    <path class="cls-104" d="M172.037,441.165a.845.845,0,0,1-.7.925c-.729.118-1.092-.36-1.145-1.033a.675.675,0,0,1,.767-.78A1.055,1.055,0,0,1,172.037,441.165Z" transform="translate(4.579 -305.401)"/>
    <path class="cls-113" d="M48.486,444.665c-.226.894-.646,1.392-1.493,1.286-.756-.094-1.4-.411-1.174-1.324.17-.691.55-1.284,1.43-1.236C48.151,443.441,48.312,444.107,48.486,444.665Z" transform="translate(4.579 -305.401)"/>
    <path class="cls-114" d="M54.242,439.6c-.829-.185-1.294-.643-1.148-1.468a1.29,1.29,0,0,1,1.532-1.064c.794.043,1.006.572.937,1.251A1.318,1.318,0,0,1,54.242,439.6Z" transform="translate(4.579 -305.401)"/>
    <path class="cls-115" d="M48.583,438.148a1.043,1.043,0,0,1-1.036.9.682.682,0,0,1-.813-.742c.021-.677.389-1.171,1.111-1.094A.865.865,0,0,1,48.583,438.148Z" transform="translate(4.579 -305.401)"/>
    <path class="cls-24" d="M58.255,431.748c1.414,1.224.9,2.455.013,3.687Q58.262,433.592,58.255,431.748Z" transform="translate(4.579 -305.401)"/>
    <path class="cls-118" d="M216.034,445.957a1.193,1.193,0,0,1-1.305-1.27,1.067,1.067,0,0,1,1.02-1.236c.825-.005,1.2.561,1.265,1.32C217.076,445.466,216.795,445.924,216.034,445.957Z" transform="translate(4.579 -305.401)"/>
    <path class="cls-112" d="M210.176,438.575c-.046.589-.256,1.067-.947.959-.845-.131-1.129-.743-1.089-1.53a.888.888,0,0,1,1.028-.921C210.173,437.116,210.187,437.843,210.176,438.575Z" transform="translate(4.579 -305.401)"/>
    <path class="cls-111" d="M216.372,438.077a1.353,1.353,0,0,1-1.13,1.235c-.484.066-.742-.405-.754-.876-.018-.693.277-1.231,1.035-1.235C215.989,437.2,216.293,437.551,216.372,438.077Z" transform="translate(4.579 -305.401)"/>
    <path class="cls-22" d="M280.823,434.811a14.628,14.628,0,0,1-5.785,9.1c-.562-.44-.224-1.1-.275-1.665-12.872,2.99-22.805-3.863-24.814-17-.053-.349-.179-.677-.243-1.023-.748-3.854.646-7.434,1.421-11.094,5.99-6.494,17.244-6.965,23.795-.947a18.236,18.236,0,0,1,5.907,9.426,14.518,14.518,0,0,0,.261,3.882,14.731,14.731,0,0,1-.278,6.705C280.566,433.039,280.021,433.944,280.823,434.811Z" transform="translate(4.579 -305.401)"/>
    <path class="cls-24" d="M245.392,423.716c.49-3.022,1.4-5.854,3.662-8.07.96,1.224.218,2.521.04,3.73a5.95,5.95,0,0,0,1.1,4.873c.962,3.037,1.357,6.222,3.129,9.035,3.9,6.186,11.84,11.684,20.853,8.369.563-.207,1.154-.335,1.986-.572.017,1.239-1.508,1.713-1.125,2.831-2.577,3.282-6.373,4-10.124,4.808" transform="translate(4.579 -305.401)"/>
    <path class="cls-24" d="M261.816,448.783A20.062,20.062,0,0,1,247.1,438.162a16.193,16.193,0,0,1-1.752-5.411" transform="translate(4.579 -305.401)"/>
    <path class="cls-37" d="M250.2,424.249c-1.935-.569-2.088-2.186-1.979-3.744a45.688,45.688,0,0,1,.837-4.859,4.752,4.752,0,0,1,2.075-2.52c1.007,1.53.008,3.041-.337,4.388A26.587,26.587,0,0,0,250.2,424.249Z" transform="translate(4.579 -305.401)"/>
    <path class="cls-39" d="M280.823,434.811c-.383-.083-1.119.925-.954.238a34.856,34.856,0,0,0,.425-12.336c-.04-.344.347-.738.536-1.109a18.735,18.735,0,0,1,.181,11.44A8.732,8.732,0,0,0,280.823,434.811Z" transform="translate(4.579 -305.401)"/>
    <path class="cls-44" d="M245.392,423.716a14.713,14.713,0,0,1-.041,9.035" transform="translate(4.579 -305.401)"/>
    <path class="cls-105" d="M256.518,427.4c-.052.78.1,1.943-1.118,1.915a1.944,1.944,0,0,1-.2-3.882C256.353,425.411,256.51,426.381,256.518,427.4Z" transform="translate(4.579 -305.401)"/>
    <path class="cls-106" d="M264.049,437.922c-.743-.21-1.587-.643-1.5-1.636a1.539,1.539,0,0,1,1.62-1.377c1.124.038,1.314.9,1.309,1.84C265.469,437.609,265.055,438.013,264.049,437.922Z" transform="translate(4.579 -305.401)"/>
    <path class="cls-107" d="M263.538,425.876a1.748,1.748,0,0,1,1.321,1.836,1.115,1.115,0,0,1-1.375,1.2A1.551,1.551,0,0,1,262,427.357C262.057,426.5,262.833,426.114,263.538,425.876Z" transform="translate(4.579 -305.401)"/>
    <path class="cls-108" d="M272.757,436.912c.056.662-.224.984-.705.978a1.134,1.134,0,0,1-1.194-1.089.68.68,0,0,1,.717-.837A1.128,1.128,0,0,1,272.757,436.912Z" transform="translate(4.579 -305.401)"/>
    <path class="cls-34" d="M273.59,469.962" transform="translate(4.579 -305.401)"/>
    <path class="cls-34" d="M273.619,479.6" transform="translate(4.579 -305.401)"/>
  </g>
</svg>
