<svg id="Laag_1" data-name="Laag 1" xmlns="http://www.w3.org/2000/svg" viewBox="0 0 685.985 348.54">
  <defs>
    <style>
      .cls-1 {
        fill: #0e5d5a;
      }
    </style>
  </defs>
  <title>HVC logo zonder nivo aanduiding02</title>
  <g>
    <polygon class="cls-1" points="53.948 123.772 53.948 90.006 21.858 90.006 21.858 123.772 1.977 123.772 1.977 43.009 21.858 43.009 21.858 73.582 53.948 73.582 53.948 43.009 73.831 43.009 73.831 123.772 53.948 123.772"/>
    <polygon class="cls-1" points="86.27 123.772 86.27 43.009 141.613 43.009 141.613 59.437 105.454 59.437 105.454 74.723 139.636 74.723 139.636 90.35 105.454 90.35 105.454 107.117 143.706 107.117 143.706 123.772 86.27 123.772"/>
    <g>
      <path class="cls-1" d="M275.223,177.259A7.962,7.962,0,0,0,274,172.637a8.373,8.373,0,0,0-3.154-2.735,13.979,13.979,0,0,0-4.324-1.312,32.391,32.391,0,0,0-4.615-.344H251.272V187.07h9.463a32.515,32.515,0,0,0,5.025-.4,16.214,16.214,0,0,0,4.673-1.425,8.824,8.824,0,0,0,3.447-2.966,8.633,8.633,0,0,0,1.343-5.018m.814,56.008-17.872-32.053h-6.777v32.053H231.973V152.5h31.391a55.714,55.714,0,0,1,11.569,1.2,30.488,30.488,0,0,1,10.115,4.051,21.388,21.388,0,0,1,7.151,7.527,23.18,23.18,0,0,1,2.673,11.635,21.2,21.2,0,0,1-4.534,13.8,24.758,24.758,0,0,1-12.556,7.986l21.508,34.563Z" transform="translate(-77.337 -109.495)"/>
      <path class="cls-1" d="M351.029,207.943q0-5.016-3.838-6.959t-10.232-1.938H325.914v18.48h11.162a30.511,30.511,0,0,0,4.825-.4,15.444,15.444,0,0,0,4.534-1.426,8.674,8.674,0,0,0,3.314-2.908,8.468,8.468,0,0,0,1.28-4.85m-2.675-32.052a6.434,6.434,0,0,0-3.2-5.989q-3.2-1.883-9.476-1.883h-9.767v16.655h10.7q5.582,0,8.662-2.226a7.571,7.571,0,0,0,3.081-6.557M370.91,209.77a21.445,21.445,0,0,1-2.675,11.12,20.994,20.994,0,0,1-7.091,7.243,31.2,31.2,0,0,1-10.057,3.936,55.443,55.443,0,0,1-11.569,1.2H306.731V152.5h32.787a51.277,51.277,0,0,1,9.766.971,29.292,29.292,0,0,1,9.069,3.307,19.049,19.049,0,0,1,6.628,6.333,18.5,18.5,0,0,1,2.557,10.152,16.606,16.606,0,0,1-3.721,11.122,20.791,20.791,0,0,1-9.765,6.33v.227a22.911,22.911,0,0,1,6.569,2.112,18.95,18.95,0,0,1,5.347,3.936,18.053,18.053,0,0,1,4.942,12.776" transform="translate(-77.337 -109.495)"/>
    </g>
    <polygon class="cls-1" points="304.501 123.772 304.501 43.009 359.844 43.009 359.844 59.437 323.685 59.437 323.685 74.723 357.866 74.723 357.866 90.35 323.685 90.35 323.685 107.117 361.938 107.117 361.938 123.772 304.501 123.772"/>
    <path class="cls-1" d="M493.338,177.259a7.955,7.955,0,0,0-1.227-4.622,8.38,8.38,0,0,0-3.154-2.735,13.987,13.987,0,0,0-4.324-1.312,32.391,32.391,0,0,0-4.615-.344h-10.63V187.07h9.461a32.55,32.55,0,0,0,5.027-.4,16.243,16.243,0,0,0,4.673-1.425,8.842,8.842,0,0,0,3.446-2.966,8.648,8.648,0,0,0,1.343-5.018m.812,56.008-17.869-32.053H469.5v32.053H450.085V152.5h31.394a55.725,55.725,0,0,1,11.568,1.2,30.51,30.51,0,0,1,10.116,4.051,21.4,21.4,0,0,1,7.15,7.527,23.169,23.169,0,0,1,2.675,11.635,21.2,21.2,0,0,1-4.537,13.8A24.751,24.751,0,0,1,495.9,198.7L517.4,233.267Z" transform="translate(-77.337 -109.495)"/>
    <polygon class="cls-1" points="485.064 59.665 485.064 123.772 465.181 123.772 465.181 59.665 441.928 59.665 441.928 43.01 508.317 43.01 508.317 59.665 485.064 59.665"/>
    <polygon class="cls-1" points="53.484 224.043 33.601 224.043 2.443 143.279 24.765 143.279 43.834 200.546 44.298 200.546 63.25 143.279 85.225 143.279 53.484 224.043"/>
    <rect class="cls-1" x="90.921" y="143.279" width="19.997" height="80.764"/>
    <g>
      <path class="cls-1" d="M248.714,273.763a17.917,17.917,0,0,0-6.686-5.075,19.16,19.16,0,0,0-7.965-1.884,24.139,24.139,0,0,0-4.01.342,10.551,10.551,0,0,0-3.663,1.312,9,9,0,0,0-2.732,2.51,6.582,6.582,0,0,0-1.1,3.936,6.239,6.239,0,0,0,.872,3.421,7.7,7.7,0,0,0,2.557,2.4A22.915,22.915,0,0,0,230,282.6q2.323.858,5.232,1.77,4.185,1.367,8.72,3.022a32.755,32.755,0,0,1,8.254,4.393,23.219,23.219,0,0,1,6.163,6.786,19.268,19.268,0,0,1,2.441,10.1,25.969,25.969,0,0,1-2.615,12.034,24.138,24.138,0,0,1-7.035,8.384,30.412,30.412,0,0,1-10.115,4.9,43.333,43.333,0,0,1-11.743,1.6,49.329,49.329,0,0,1-17.092-3.022,36.24,36.24,0,0,1-13.719-8.612l13.022-13a23.93,23.93,0,0,0,7.964,6.1,21.935,21.935,0,0,0,9.825,2.453,20.16,20.16,0,0,0,4.3-.455,10.887,10.887,0,0,0,3.662-1.483,7.5,7.5,0,0,0,2.5-2.738,8.5,8.5,0,0,0,.93-4.107,6.433,6.433,0,0,0-1.162-3.879,11.356,11.356,0,0,0-3.314-2.909,27.069,27.069,0,0,0-5.348-2.393q-3.2-1.085-7.267-2.34a69.961,69.961,0,0,1-7.732-2.965,25.933,25.933,0,0,1-6.743-4.392,20.327,20.327,0,0,1-4.768-6.5,21.671,21.671,0,0,1-1.8-9.3,22.5,22.5,0,0,1,2.791-11.52,23.972,23.972,0,0,1,7.325-7.873,31.8,31.8,0,0,1,10.231-4.505,47.212,47.212,0,0,1,11.511-1.426,43.474,43.474,0,0,1,14.242,2.51,36.873,36.873,0,0,1,12.732,7.414Z" transform="translate(-77.337 -109.495)"/>
      <path class="cls-1" d="M317.426,273.763a17.917,17.917,0,0,0-6.686-5.075,19.16,19.16,0,0,0-7.965-1.884,24.139,24.139,0,0,0-4.01.342,10.551,10.551,0,0,0-3.663,1.312,8.991,8.991,0,0,0-2.732,2.51,6.582,6.582,0,0,0-1.1,3.936,6.239,6.239,0,0,0,.872,3.421,7.7,7.7,0,0,0,2.557,2.4,22.915,22.915,0,0,0,4.012,1.881q2.323.858,5.232,1.77,4.185,1.367,8.72,3.022a32.773,32.773,0,0,1,8.254,4.393,23.219,23.219,0,0,1,6.163,6.786,19.268,19.268,0,0,1,2.441,10.1,25.969,25.969,0,0,1-2.615,12.034,24.138,24.138,0,0,1-7.035,8.384,30.412,30.412,0,0,1-10.115,4.9,43.339,43.339,0,0,1-11.743,1.6,49.329,49.329,0,0,1-17.092-3.022,36.24,36.24,0,0,1-13.719-8.612l13.021-13a23.944,23.944,0,0,0,7.965,6.1,21.935,21.935,0,0,0,9.825,2.453,20.16,20.16,0,0,0,4.3-.455,10.9,10.9,0,0,0,3.662-1.483,7.5,7.5,0,0,0,2.5-2.738,8.5,8.5,0,0,0,.929-4.107,6.426,6.426,0,0,0-1.162-3.879,11.344,11.344,0,0,0-3.314-2.909,27.032,27.032,0,0,0-5.347-2.393q-3.2-1.085-7.267-2.34a69.961,69.961,0,0,1-7.732-2.965,25.956,25.956,0,0,1-6.744-4.392,20.325,20.325,0,0,1-4.767-6.5,21.671,21.671,0,0,1-1.8-9.3,22.5,22.5,0,0,1,2.791-11.52,23.972,23.972,0,0,1,7.325-7.873,31.777,31.777,0,0,1,10.231-4.505,47.212,47.212,0,0,1,11.511-1.426,43.474,43.474,0,0,1,14.242,2.51,36.873,36.873,0,0,1,12.732,7.414Z" transform="translate(-77.337 -109.495)"/>
    </g>
    <polygon class="cls-1" points="263.109 224.043 263.109 143.279 318.452 143.279 318.452 159.706 282.293 159.706 282.293 174.993 316.476 174.993 316.476 190.621 282.293 190.621 282.293 207.388 320.543 207.388 320.543 224.043 263.109 224.043"/>
    <g>
      <path class="cls-1" d="M454.269,277.529a7.962,7.962,0,0,0-1.226-4.622,8.364,8.364,0,0,0-3.154-2.735,13.977,13.977,0,0,0-4.325-1.312,32.193,32.193,0,0,0-4.612-.344H430.319v18.823h9.462a32.669,32.669,0,0,0,5.026-.4,16.216,16.216,0,0,0,4.673-1.426,8.83,8.83,0,0,0,3.447-2.965,8.636,8.636,0,0,0,1.342-5.018m.815,56.009-17.872-32.053h-6.777v32.053H411.02V252.774h31.39a55.664,55.664,0,0,1,11.571,1.2,30.467,30.467,0,0,1,10.113,4.05,21.374,21.374,0,0,1,7.151,7.528,23.174,23.174,0,0,1,2.674,11.635,21.2,21.2,0,0,1-4.534,13.8,24.762,24.762,0,0,1-12.558,7.986l21.51,34.563Z" transform="translate(-77.337 -109.495)"/>
      <path class="cls-1" d="M531.588,273.763a17.909,17.909,0,0,0-6.686-5.075,19.148,19.148,0,0,0-7.963-1.884,24.145,24.145,0,0,0-4.012.342,10.564,10.564,0,0,0-3.664,1.312,9,9,0,0,0-2.73,2.51,6.576,6.576,0,0,0-1.1,3.936,6.231,6.231,0,0,0,.873,3.421,7.693,7.693,0,0,0,2.556,2.4,22.916,22.916,0,0,0,4.012,1.881q2.324.858,5.23,1.77,4.186,1.367,8.72,3.022a32.785,32.785,0,0,1,8.256,4.393,23.175,23.175,0,0,1,6.162,6.786,19.239,19.239,0,0,1,2.442,10.1,25.993,25.993,0,0,1-2.614,12.034,24.189,24.189,0,0,1-7.034,8.384,30.417,30.417,0,0,1-10.118,4.9,43.317,43.317,0,0,1-11.743,1.6,49.346,49.346,0,0,1-17.092-3.022,36.244,36.244,0,0,1-13.718-8.612l13.022-13a23.905,23.905,0,0,0,7.963,6.1,21.942,21.942,0,0,0,9.825,2.453,20.178,20.178,0,0,0,4.3-.455,10.907,10.907,0,0,0,3.661-1.483,7.484,7.484,0,0,0,2.5-2.738,8.51,8.51,0,0,0,.929-4.107,6.439,6.439,0,0,0-1.161-3.879,11.366,11.366,0,0,0-3.316-2.909,26.974,26.974,0,0,0-5.349-2.393q-3.2-1.085-7.266-2.34a70.022,70.022,0,0,1-7.731-2.965A25.928,25.928,0,0,1,492,291.845a20.315,20.315,0,0,1-4.769-6.5,21.686,21.686,0,0,1-1.8-9.3,22.487,22.487,0,0,1,2.791-11.52,23.972,23.972,0,0,1,7.325-7.873,31.777,31.777,0,0,1,10.231-4.505,47.218,47.218,0,0,1,11.511-1.426,43.468,43.468,0,0,1,14.241,2.51,36.841,36.841,0,0,1,12.731,7.414Z" transform="translate(-77.337 -109.495)"/>
      <path class="cls-1" d="M151.05,420.687a33.951,33.951,0,0,1-5.058,5.822,32.784,32.784,0,0,1-6.859,4.83,38.646,38.646,0,0,1-8.6,3.3,41.119,41.119,0,0,1-10.289,1.216,45.518,45.518,0,0,1-17.208-3.194,40.662,40.662,0,0,1-13.6-8.84,40.211,40.211,0,0,1-8.9-13.4,44.17,44.17,0,0,1-3.2-17,43.483,43.483,0,0,1,3.255-17A40.532,40.532,0,0,1,89.6,363.023a41.617,41.617,0,0,1,13.6-8.84,44.759,44.759,0,0,1,17.033-3.193,43,43,0,0,1,17.092,3.535,34.961,34.961,0,0,1,6.975,4.035,23.818,23.818,0,0,1,5.232,5.32l-6.975,5.017a20.655,20.655,0,0,0-3.431-3.876,23.476,23.476,0,0,0-5.058-3.424,32.034,32.034,0,0,0-6.336-2.393,28.575,28.575,0,0,0-7.383-.914A34.746,34.746,0,0,0,106,361.132a32.322,32.322,0,0,0-10.753,7.676,33.364,33.364,0,0,0-6.744,11.2,38.8,38.8,0,0,0-2.326,13.418,37.966,37.966,0,0,0,2.383,13.417,34.134,34.134,0,0,0,6.8,11.2,32.235,32.235,0,0,0,10.755,7.674,34.4,34.4,0,0,0,14.242,2.842,32.725,32.725,0,0,0,13.487-2.852,25.407,25.407,0,0,0,10.7-9.125Z" transform="translate(-77.337 -109.495)"/>
      <path class="cls-1" d="M233.484,393.482a38.947,38.947,0,0,0-2.325-13.439,33.466,33.466,0,0,0-6.745-11.217,32.251,32.251,0,0,0-10.753-7.686,37.018,37.018,0,0,0-28.487,0,32.225,32.225,0,0,0-10.754,7.686,33.415,33.415,0,0,0-6.744,11.217,40,40,0,0,0,0,26.878,32.19,32.19,0,0,0,17.5,18.789,37.053,37.053,0,0,0,28.487,0,32.2,32.2,0,0,0,17.5-18.789,38.955,38.955,0,0,0,2.325-13.439m8.836-.057a43.516,43.516,0,0,1-3.255,17,40.535,40.535,0,0,1-9.011,13.4,41.505,41.505,0,0,1-13.6,8.84,47.025,47.025,0,0,1-34.065,0,41.505,41.505,0,0,1-13.6-8.84,40.519,40.519,0,0,1-9.011-13.4,46.005,46.005,0,0,1,0-33.994,40.532,40.532,0,0,1,9.011-13.405,41.633,41.633,0,0,1,13.6-8.84,47.025,47.025,0,0,1,34.065,0,41.633,41.633,0,0,1,13.6,8.84,40.547,40.547,0,0,1,9.011,13.405,43.5,43.5,0,0,1,3.255,17" transform="translate(-77.337 -109.495)"/>
    </g>
    <polygon class="cls-1" points="186.259 317.01 224.626 317.01 224.626 324.31 177.887 324.31 177.887 243.547 186.259 243.547 186.259 317.01"/>
    <polygon class="cls-1" points="245.554 317.01 283.921 317.01 283.921 324.31 237.182 324.31 237.182 243.547 245.554 243.547 245.554 317.01"/>
    <polygon class="cls-1" points="302.524 317.01 346.587 317.01 346.587 324.31 294.152 324.31 294.152 243.547 345.195 243.547 345.195 250.848 302.524 250.848 302.524 278.568 342.404 278.568 342.404 285.868 302.524 285.868 302.524 317.01"/>
    <path class="cls-1" d="M500.546,367.645a30.063,30.063,0,0,0-10.231-6.9,35.376,35.376,0,0,0-13.605-2.453,34.372,34.372,0,0,0-14.241,2.849,32.2,32.2,0,0,0-10.754,7.687,34.165,34.165,0,0,0-6.8,11.216,39.059,39.059,0,0,0,0,26.879,33.546,33.546,0,0,0,6.8,11.16,32.582,32.582,0,0,0,10.754,7.629,34.355,34.355,0,0,0,14.241,2.847,51.666,51.666,0,0,0,12.792-1.483,32.824,32.824,0,0,0,9.416-3.763V398.784H479.732v-7.3h27.559v36.484a53.923,53.923,0,0,1-14.534,5.946,66.572,66.572,0,0,1-16.163,1.943,45.525,45.525,0,0,1-17.208-3.194,40.639,40.639,0,0,1-13.6-8.84,40.16,40.16,0,0,1-8.9-13.4,44.167,44.167,0,0,1-3.2-17,43.483,43.483,0,0,1,3.255-17,40.532,40.532,0,0,1,9.011-13.4,41.634,41.634,0,0,1,13.6-8.84,44.769,44.769,0,0,1,17.032-3.193,46.588,46.588,0,0,1,17.207,2.9,37.041,37.041,0,0,1,12.558,8.052Z" transform="translate(-77.337 -109.495)"/>
    <polygon class="cls-1" points="455.179 317.01 499.244 317.01 499.244 324.31 446.807 324.31 446.807 243.547 497.851 243.547 497.851 250.848 455.179 250.848 455.179 278.568 495.06 278.568 495.06 285.868 455.179 285.868 455.179 317.01"/>
    <path class="cls-1" d="M653.544,257.58c-.345.891-1.5,3.565-2.422,5.9s-4.382,5.014-5.19,6.574-.807,3.231-2.768,8.578-11.188,20.723-12,22.95,4.729,3.789,4.729,3.789-1.383,1.855-2.394,3.2a6.081,6.081,0,0,0-.744-1.307c-1.2-1.4-3.5-2.422-4.968-3.632s-2.668-7.916-4.324-10.244-7.084-10.8-7.084-11.827,2.484-4.191,2.944-5.4.092-6.239-.368-7.822-4.232-5.029-4.508-5.867,2.3-2.98,2.76-3.818,2.024-3.912,1.932-4.564,0-2.514-.552-3.445a13.6,13.6,0,0,1-2.944-6.147c-.552-3.445,3.4-13.037,4.6-16.11.011-.028.031-.061.042-.089,1.166.688,2.852,1.346,4.163,2.126,2.106,1.251,11.016,6.571,16.524,8.292s15.551,4.694,15.551,4.694c1.482,3.552-2.636,13.271-2.983,14.163m-45.388,55.892c-4.6.166-11.656-1.33-11.656-1.33s8.044-5.649,10.671-5.649a8.351,8.351,0,0,1,5.417,1.5,45.461,45.461,0,0,1,4.269,2.991,21.572,21.572,0,0,1-8.7,2.493m155-91.134c-.231-.334-.5-1.19-1.654-.744s-1.642-.823-3.257.626-2.157,5.655-3.56,3.675c-.508-.717.012-6.083-.1-6.752s-.923-1.114-1.615-.111a8.178,8.178,0,0,0-1.038,3.565c-.23,1.448-.807,5.236-.807,5.236a8.046,8.046,0,0,1-2.653-.891c-1.5-.78-2.768-.891-3-.111a1.3,1.3,0,0,0,.923,1.559,20.56,20.56,0,0,1,3.505,2.6c2.311,1.94.071,6.643-.622,9.094s-10.265,12.255-12.687,14.149-9.573,6.908-11.534,7.576-7.959-2.785-9.343-4.122-3.806-4.456-5.421-5.793-6.229-3.454-6.92-4.679,2.191-4.011,3.344-5.9a21.21,21.21,0,0,1,3.922-4.122,5.4,5.4,0,0,0,1.73.557c.923.111,1.384.668,3.114-1.114a10.977,10.977,0,0,0,2.653-5.794c.115-1.225-.461-1.559-.461-1.559a24.731,24.731,0,0,0,3-4.457,11.5,11.5,0,0,0,1.384-6.573c-.116-3.454-3.691-7.019-6.229-8.8s-4.109-3.476-6.81-3.6c-2.263-.1-4.174-1.3-7.243-1.422-2.087,2.964-5.788,8.235-7.98,10.909s-2.881,7.923-4.034,11.6-1.431,5.659-.508,6.661,1.964,1.348,1.964,2.016-1.917,2.241-1.917,2.241a2.429,2.429,0,0,1-1.846.557c-.923-.223-1.038-1.337-1.5-2.117s-2.192-1.337-3.691-1.782-3.46-.223-4.845-.334S675,232.4,672,231.064s-6.228-1.225-11.3-1.448-13.611-3.008-15.687-3.677-3.575-1.782-5.652-2.005-4.267-.78-5.19-2.674c-.6-1.223-.367-4.588.3-8.286a27.2,27.2,0,0,1,3.352-.785c2.668-.465,8.648-3.259,12.421-4.749s16.284-6.053,20.884-8.568,19.872-13.13,21.345-14.155,6.005-4.314,7.385-4.5a45.744,45.744,0,0,1,7.059.589,3.32,3.32,0,0,0,2.484-.559c.644-.652-.092-1.211-1.2-2.049s-4.876-1.489-4.876-1.489a29.689,29.689,0,0,0,4.876-1.677c1.288-.745,2.248-.837,2.431-1.488a1.754,1.754,0,0,0-.131-1.771c-.46-.652-.81-.783-1.656-.373-1.688.819-.973.4-2.526,1.182a7.12,7.12,0,0,1-3.233.607s1.558-1.511,2.275-2.424c1.7-2.167,2.17-2.583,2.524-3.556.413-1.136.2-1.636-.076-2.009s-.712-.225-1.264-.039a4.727,4.727,0,0,0-1.932,1.49c-.46.652-2.576,3.073-2.576,3.073a21.4,21.4,0,0,0,.582-2.206c.092-.652,1.442-3.382,1.626-3.94s.674-1.614.4-2.266-1.235-1.052-2.155-.121a14.087,14.087,0,0,0-2.634,4.483,11.3,11.3,0,0,1-1.911,3.356c-.2.216-1.242.415-2.254.88s-.184-1.211-.092-3.352a4.805,4.805,0,0,0-1.656-4c-.828-.838-2.852-.186-2.484.466a10.161,10.161,0,0,1,.858,4.113c0,1.676-1.144,5.176-.839,6.489.128.551-1.952,1.97-2.963,2.9s-15.089,8.661-17.941,9.778-9.476,5.588-10.856,6.426-3.312,1.117-5.7,1.863c-1.678.522-9,.952-13.229,1.163a17.959,17.959,0,0,1,2.557-3.77c1.615-1.449,7.068-3.974,10.067-6.76s6.02-6.3,6.481-8.749-.626-2.864-1.2-2.753-1.243.909-1.474,2.135-1.822,3.181-2.975,3.292.922-4.9.692-5.682-.946-.755-1.522.137-1.823,3.874-2.746,5.545a4.545,4.545,0,0,1-3,2.005,58.8,58.8,0,0,0,1.5-6.016c0-.891-.9-.565-1.382.217s-1.458,4.068-2.916,5.633-5.021,3.442-6.642,4.694c-1.24.958-1.69,2.97-2.268,4.7-.024-.056-.042-.118-.066-.172a25.432,25.432,0,0,1-.828-3.539s-1.38-2.608-1.84-3.818a32.666,32.666,0,0,0-3.68-6.8c-1.84-2.515-6.072-6.054-9.568-6.426s-12.208-.278-13.036.094a32.31,32.31,0,0,0-4.775,1.8,25.168,25.168,0,0,0-3.858,2.441c-1.2,1.025-3.344,2.8-3.62,2.99a19.206,19.206,0,0,1-2.477,1.929c-.736-.466-1.715-3.28-2.5-5.16-.227-.542-1.706-3.067-2.166-3.906s-2.109-3.691-2.477-4.436-1.448-3.132-2-4.436-1.36-5.381-2.28-8.175-3.22-7.636-4.416-10.9a41.4,41.4,0,0,1-2.116-8.754c-.092-1.4-1.1-4.842-.736-5.96s3.772-3.818,4.508-4.563l2.392-2.421a5.123,5.123,0,0,0-1.1-1.118c-.736-.558-2.484.28-3.864,1.025s-2.853,2.421-3.68,2.887-1.84-.652-2.393-2.142,0-9.592,0-9.592l-.552-1.583a1.209,1.209,0,0,0-1.2.186,4.25,4.25,0,0,0-.828,2.514c-.092,1.118,0,4.75,0,4.75s-.184-1.4-.368-2.422-.828-3.818-.828-3.818a5.809,5.809,0,0,0-.552-1.117c-.276-.373-.736-.28-1.38-.093s-.644.744-.552,1.955.276,5.495.276,5.495l-.644-1.584s-.92-2.421-1.1-2.886-1.012-.652-1.748-.187-.368,1.3-.184,3.26,2.116,6.519,2.116,6.519a11.124,11.124,0,0,1-2.392-1.863,3.374,3.374,0,0,0-2.116-1.117,1.729,1.729,0,0,0-1.656,1.21c-.276.745.644,1.025,1.472,1.676a24.921,24.921,0,0,1,5.753,6.7c1.748,3.259,3.436,6.1,3.712,7.029s1.116,10.02,3.232,17.936,7.084,26.356,7.084,26.356,2.678,7.8,3,10.306a36.527,36.527,0,0,0-2.572,4.34,6.35,6.35,0,0,0,.381,5.69,28.9,28.9,0,0,1,1.524-5.015,7.127,7.127,0,0,1,2-2.315l-1.524,2.893a21.346,21.346,0,0,0-.858,3.761,6.663,6.663,0,0,0,.763,2.8,14.837,14.837,0,0,1,1.238-4.436c.92-1.676,1.048.579,1.048.579l-.559,2.814c.119-.192-4.9,20.679-5.086,21.331a62.251,62.251,0,0,1-3.5,6.519c-1.012,1.583-2.577,10.337-2.484,11.641s-.737,1.583-3.865,6.612-17.664,24.119-18.032,25.144a4.777,4.777,0,0,0-.46,3.445c.46,1.4,5.8,6.054,6.992,7.73s-.276,9.219-.184,11.268-1.656,4.377-1.564,5.867.276,2.328,2.944,4.284c-.092,4.191,1.38,20.581,3.864,24.026s11.869,2.422,11.869,2.422a12.337,12.337,0,0,0,4.876,2.421c2.392.373,12.788-1.118,24.38-5.4s19.965-4.005,19.965-4.005a20.021,20.021,0,0,1,1.932,1.583,34.181,34.181,0,0,0,3.99,2.339c-.057.93-.1,1.835-.1,2.65,0,4.568,1.845,14.261,2.537,16.712s0,3.565-.346,6.35,4.268,29.19,4.268,29.19.115,3.008.115,4.568,1.153,8.244,1.038,10.7-1.384,18.494-.577,18.828,3,1,3,1-.346,3.676-.576,4.679-.923,3.454-1.039,4.345-.692,3.677-.692,3.677-4.382,9.8-5.19,16.043,3.345,8.8,4.96,9.135,5.882.112,7.728-1.782,2.191-6.239,2.653-9.247,2.883-13.592,2.768-14.706-1.5-4.456-2.076-6.573.807-6.462.807-6.462,1.961-.334,2.076-.668,3.576-12.367,4.037-14.707,1.269-12.478,2.192-14.929,2.306-6.8,2.306-9.8,1.384-5.125,2.077-8.133,1.5-18.048,1.5-18.048,1.384,2,1.961,2.785,1.615,2.9,3.691,8.022,7.613,23.061,7.613,23.061-.231,3.9-.923,8.579-.808,12.032-.231,14.038.692,3.119-.115,6.461a13.984,13.984,0,0,0-.577,4.791l2.768,1.448a28.042,28.042,0,0,1,.346,4.791,42.936,42.936,0,0,1-.577,5.682c-.345,1.671-2.537,2.228-3.46,3.676a4.556,4.556,0,0,0-.807,3.788,3.6,3.6,0,0,0,2.307,1.894,5.242,5.242,0,0,1,3,3.008c.461,1.449,1.5,9.693,2.075,11.476s4.153,2.339,6.46,2.785,8.3-.223,8.535-1.337-.461-1.448-2.883-4.679-3.691-11.921-4.152-14.483.807-9.136,1.153-11.587a27.492,27.492,0,0,0,.115-5.236l2.538-1,.23-2.117c.231-2.117,2.192-21.948,2.653-27.518s.461-10.25.808-12.589,2.191-7.911,1.845-10.25-.807-3.788-.923-5.682.231-23.173-.461-26.293-5.075-13.48-6.69-16.934-2.653-6.128-2.653-6.128a54.029,54.029,0,0,1,2.422-8.913c1.961-5.682,16.148-30.972,17.071-32.866s2.307-.78,4.5-.334,19.724,7.019,22.723,6.573,5.651-4.567,9.573-9.024,8.189-13.926,9.689-16.711,6-8.133,7.266-10.25.347-8.467.923-10.138,1.688-4.8,3.534-5.805,1.581-1.919,1.35-2.253" transform="translate(-77.337 -109.495)"/>
  </g>
</svg>
