<svg id="Laag_1" data-name="Laag 1" xmlns="http://www.w3.org/2000/svg" xmlns:xlink="http://www.w3.org/1999/xlink" viewBox="0 0 456.625 343.654">
  <defs>
    <style>
      .cls-1 {
        fill: none;
      }

      .cls-2 {
        clip-path: url(#clip-path);
      }

      .cls-3 {
        fill: #0e5d5a;
      }

      .cls-4 {
        fill: #00862f;
      }

      .cls-5 {
        fill: #f48100;
      }

      .cls-6 {
        fill: #d9000d;
      }

      .cls-7 {
        fill: #fff;
      }

      .cls-8 {
        fill: #004391;
      }
    </style>
    <clipPath id="clip-path" transform="translate(-192 -125.626)">
      <rect class="cls-1" x="192" y="125.626" width="456.625" height="343.654"/>
    </clipPath>
  </defs>
  <title>HVClogo CMYK</title>
  <g class="cls-2">
    <path class="cls-3" d="M561.744,251.582c-5.063-1.638-13.254-6.7-15.19-7.893-1.257-.773-2.88-1.422-3.953-2.107-.072.152-.143.3-.2.447-1.128,2.861-4.856,11.793-4.337,15a12.63,12.63,0,0,0,2.775,5.725c.521.866.434,2.6.521,3.207s-1.388,3.47-1.822,4.251-2.861,2.775-2.6,3.555,3.815,3.989,4.249,5.463.78,6.159.346,7.285-2.775,4.076-2.775,5.031,5.117,8.845,6.678,11.013,2.688,8.413,4.076,9.541,3.556,2.081,4.683,3.382a8.253,8.253,0,0,1,1.069,2.043c.859-1.189,1.811-2.511,1.811-2.511s-5.091-1.484-4.348-3.606c.628-1.792,6.778-12.515,9.756-18.866V251.82l-.74-.238" transform="translate(-192 -125.626)"/>
    <path class="cls-3" d="M555.7,459.008c-1.485-.318-5.3-2.757-4.56-8.695s4.771-15.268,4.771-15.268.531-2.651.637-3.5.742-3.182.955-4.135.529-4.454.529-4.454-2.014-.637-2.756-.954.424-15.588.529-17.92-.953-8.695-.953-10.178-.107-4.348-.107-4.348-4.241-25.13-3.923-27.781.955-3.711.318-6.044-2.332-11.557-2.332-15.9c0-1.247.072-2.68.2-4.159a37.987,37.987,0,0,1-4.006-2.32,18.945,18.945,0,0,0-1.822-1.474s-7.891-.261-18.819,3.728-20.727,5.377-22.981,5.031a11.693,11.693,0,0,1-4.6-2.256s-8.845.955-11.186-2.254-3.73-18.473-3.643-22.374c-2.514-1.822-2.688-2.6-2.775-3.99s1.561-3.556,1.474-5.463,1.3-8.933.173-10.494-6.157-5.9-6.59-7.2a4.407,4.407,0,0,1,.433-3.209c.348-.954,14.049-18.731,17-23.414s3.728-4.944,3.641-6.159,1.388-9.366,2.343-10.84a57.831,57.831,0,0,0,3.295-6.07c.173-.608,4.906-20.043,4.794-19.865l.527-2.621s-.12-2.1-.988-.539a13.7,13.7,0,0,0-1.167,4.131,6.142,6.142,0,0,1-.719-2.6,19.73,19.73,0,0,1,.809-3.5l1.436-2.693a6.687,6.687,0,0,0-1.886,2.155,26.616,26.616,0,0,0-1.436,4.67,5.854,5.854,0,0,1-.36-5.3,34.149,34.149,0,0,1,2.425-4.041c-.3-2.33-2.829-9.6-2.829-9.6s-4.681-17.172-6.676-24.544-2.788-15.836-3.047-16.7-1.852-3.51-3.5-6.546a23.287,23.287,0,0,0-5.422-6.236c-.782-.607-1.649-.867-1.388-1.561a1.63,1.63,0,0,1,1.561-1.127,3.184,3.184,0,0,1,1.994,1.041,10.511,10.511,0,0,0,2.255,1.734,32.262,32.262,0,0,1-1.995-6.071c-.173-1.82-.519-2.6.173-3.035s1.475-.26,1.649.173,1.041,2.689,1.041,2.689l.606,1.474s-.173-3.989-.26-5.116-.086-1.648.521-1.822,1.04-.259,1.3.087a5.408,5.408,0,0,1,.519,1.04s.607,2.6.782,3.557.346,2.254.346,2.254-.087-3.382,0-4.422a3.922,3.922,0,0,1,.78-2.342,1.156,1.156,0,0,1,1.128-.174l.521,1.475s-.521,7.544,0,8.932,1.474,2.428,2.254,1.994,2.169-1.994,3.469-2.688,2.949-1.474,3.643-.954a4.805,4.805,0,0,1,1.04,1.042l-2.255,2.254c-.693.694-3.9,3.209-4.249,4.249s.606,4.249.694,5.55a38.169,38.169,0,0,0,1.995,8.153c1.126,3.035,3.3,7.545,4.162,10.146s1.63,6.4,2.15,7.613,1.539,3.438,1.886,4.131,1.9,3.35,2.335,4.132,1.827,3.132,2.042,3.637c.741,1.751,1.665,4.37,2.359,4.8a18.111,18.111,0,0,0,2.334-1.8c.261-.173,2.286-1.83,3.412-2.785a24,24,0,0,1,3.637-2.273,30.527,30.527,0,0,1,4.5-1.677c.781-.348,8.992-.435,12.288-.089s7.285,3.643,9.02,5.984a30.4,30.4,0,0,1,3.469,6.33c.433,1.128,1.733,3.557,1.733,3.557s.311,1.8.618,2.824c.608-1.734.99-3.909,2.23-4.9.78-.623,2.047-1.411,3.272-2.233V133.357s0-7.731-7.731-7.731H199.731s-7.731,0-7.731,7.731V461.549s0,7.731,7.731,7.731H554.752s7.731,0,7.731-7.731v-3.976c-1.82,1.545-5.383,1.736-6.786,1.435" transform="translate(-192 -125.626)"/>
    <path class="cls-3" d="M561.047,211.665c.432-.02.919-.044,1.436-.071v-2.511c-.447.735-.934,1.61-1.436,2.582" transform="translate(-192 -125.626)"/>
    <path class="cls-3" d="M558.965,226.938a25.274,25.274,0,0,0-3.317.783c-.527,3.26-.678,6.148-.164,7.24.848,1.8,2.864,2.333,4.772,2.544a7.8,7.8,0,0,1,2.227.637v-12.3a22.014,22.014,0,0,1-3.518,1.094" transform="translate(-192 -125.626)"/>
    <path class="cls-4" d="M571.071,275.148c.848-2.227,1.908-4.772,2.227-5.62s4.1-10.1,2.741-13.479c0,0-2.728-.836-6.028-1.861v22.744a7.515,7.515,0,0,0,1.06-1.784" transform="translate(-192 -125.626)"/>
    <path class="cls-4" d="M570.672,222.516c-.207.081-.441.177-.661.266V240.86a47.5,47.5,0,0,0,9.86,2.054c4.667.212,7.635.107,10.391,1.379s3.712,2.863,4.985,2.969a21.488,21.488,0,0,1,4.452.318c1.379.424,2.969.954,3.394,1.7s.53,1.8,1.378,2.014a2.183,2.183,0,0,0,1.7-.529s1.764-1.5,1.764-2.133-.958-.964-1.806-1.918-.593-2.841.466-6.34,1.7-8.5,3.71-11.041,5.416-7.562,7.335-10.383c2.822.113,4.578,1.26,6.659,1.355,2.483.112,3.927,1.726,6.261,3.422s5.618,5.089,5.725,8.376a11.258,11.258,0,0,1-1.273,6.257,23.639,23.639,0,0,1-2.756,4.241s.529.317.424,1.483a10.628,10.628,0,0,1-2.439,5.514c-1.59,1.7-2.015,1.167-2.863,1.061a4.857,4.857,0,0,1-1.59-.531,19.893,19.893,0,0,0-3.605,3.924c-1.061,1.8-3.711,4.454-3.076,5.619s4.878,3.182,6.362,4.454,3.712,4.241,4.984,5.514,6.786,4.559,8.589,3.923c1.578-.557,6.813-4.284,9.586-6.413V221.7s0-7.731-7.731-7.731H591.351c-.369.217-.7.409-.993.564-4.335,2.341-16.129,6.591-19.686,7.979" transform="translate(-192 -125.626)"/>
    <path class="cls-4" d="M644.339,287.554c-2.756.424-18.874-5.831-20.888-6.255s-3.286-1.485-4.135.317c-.355.755-2.848,5.415-5.758,10.971h27.336s7.731,0,7.731-7.731v-.4c-1.484,1.685-2.842,2.873-4.286,3.095" transform="translate(-192 -125.626)"/>
    <path class="cls-5" d="M588.706,380.933c-1.42-4.557-2.972-9.384-3.85-11.628-1.909-4.878-2.863-6.892-3.393-7.634s-1.8-2.651-1.8-2.651-.742,14.313-1.379,17.177c-.387,1.747-1.01,3.178-1.438,4.679.293.025.58.057.9.057Z" transform="translate(-192 -125.626)"/>
    <path class="cls-5" d="M601.4,321.378s.955,2.545,2.44,5.833,5.513,13.147,6.149,16.116.319,23.221.424,25.024.53,3.181.849,5.407c.226,1.58-.559,4.7-1.15,7.175h30.786s7.731,0,7.731-7.73V310.051s0-7.731-7.731-7.731H608.538a111.512,111.512,0,0,0-4.915,10.576,52.918,52.918,0,0,0-2.227,8.482" transform="translate(-192 -125.626)"/>
    <path class="cls-6" d="M573.171,189.6c.53-.848,1.186-.873,1.4-.131s-1.7,5.515-.637,5.409,2.524-1.968,2.736-3.134.825-1.926,1.354-2.032,1.53.287,1.106,2.621-3.2,5.676-5.958,8.327a17.592,17.592,0,0,1-1.526,1.286,6.413,6.413,0,0,0,5.323,2.29h10.063a23.872,23.872,0,0,1,2.808-1.411c2.688-1.04,15.956-8.238,16.91-9.1s2.914-2.189,2.794-2.7c-.288-1.223.791-4.482.791-6.044a9.34,9.34,0,0,0-.81-3.829c-.347-.607,1.561-1.214,2.343-.434a4.45,4.45,0,0,1,1.56,3.729c-.086,1.995-.868,3.556.087,3.122s1.938-.619,2.125-.819a10.486,10.486,0,0,0,1.8-3.126,13.1,13.1,0,0,1,2.482-4.175c.867-.868,1.771-.494,2.032.113s-.2,1.59-.375,2.109-1.446,3.063-1.533,3.67a19.9,19.9,0,0,1-.548,2.055s1.994-2.255,2.427-2.862a4.461,4.461,0,0,1,1.822-1.388c.52-.174.932-.31,1.191.036s.461.813.072,1.871c-.333.906-.776,1.293-2.378,3.311-.677.851-2.145,2.257-2.145,2.257a6.78,6.78,0,0,0,3.048-.564c1.463-.731.789-.338,2.381-1.1.8-.381,1.126-.26,1.56.348a1.621,1.621,0,0,1,.124,1.649c-.174.607-1.078.693-2.291,1.385a28.243,28.243,0,0,1-4.6,1.562s3.555.607,4.6,1.388,1.733,1.3,1.126,1.908a3.151,3.151,0,0,1-2.341.519,43.879,43.879,0,0,0-6.654-.548c-1.3.173-5.573,3.238-6.962,4.191-.421.29-2.051,1.409-4.225,2.885h35.412s6.959,0,6.959-6.958v-64.7s0-6.958-6.959-6.958h-64.7s-6.957,0-6.957,6.958V195.7a3.213,3.213,0,0,0,.636-.814c.848-1.592,1.993-4.43,2.524-5.278" transform="translate(-192 -125.626)"/>
    <path class="cls-7" d="M617.441,197.164a43.752,43.752,0,0,1,6.654.548,3.16,3.16,0,0,0,2.341-.519c.607-.609-.086-1.128-1.126-1.908s-4.6-1.388-4.6-1.388a28.241,28.241,0,0,0,4.6-1.562c1.213-.693,2.117-.779,2.291-1.385a1.621,1.621,0,0,0-.124-1.649c-.434-.608-.763-.73-1.561-.348-1.591.762-.917.37-2.381,1.1a6.79,6.79,0,0,1-3.047.564s1.468-1.406,2.145-2.257c1.6-2.018,2.045-2.4,2.378-3.311.389-1.058.188-1.523-.072-1.871s-.671-.21-1.191-.037a4.472,4.472,0,0,0-1.822,1.389c-.433.607-2.427,2.862-2.427,2.862a19.9,19.9,0,0,0,.548-2.055c.087-.607,1.36-3.149,1.533-3.67s.635-1.5.375-2.109-1.165-.981-2.032-.114a13.123,13.123,0,0,0-2.482,4.176,10.471,10.471,0,0,1-1.8,3.126c-.186.2-1.171.386-2.124.819s-.173-1.128-.087-3.123a4.45,4.45,0,0,0-1.56-3.728c-.782-.78-2.69-.173-2.343.434a9.348,9.348,0,0,1,.81,3.829c0,1.561-1.079,4.821-.791,6.044.12.513-1.84,1.834-2.794,2.7s-14.223,8.065-16.91,9.106a23.92,23.92,0,0,0-2.809,1.41h19.222c2.175-1.475,3.8-2.594,4.226-2.884,1.389-.954,5.661-4.018,6.962-4.191" transform="translate(-192 -125.626)"/>
    <path class="cls-7" d="M571.646,201.951a17.587,17.587,0,0,0,1.526-1.287c2.756-2.651,5.534-5.995,5.958-8.327s-.576-2.726-1.106-2.621-1.142.866-1.354,2.032-1.675,3.028-2.736,3.134.848-4.665.637-5.408-.869-.718-1.4.131-1.676,3.686-2.524,5.277a3.258,3.258,0,0,1-.636.815v1.586a8.321,8.321,0,0,0,1.634,4.668" transform="translate(-192 -125.626)"/>
    <path class="cls-3" d="M530.076,314.758c-2.477,0-10.059,5.261-10.059,5.261A58.5,58.5,0,0,0,531,321.257a20.528,20.528,0,0,0,8.2-2.321,42.784,42.784,0,0,0-4.024-2.786,7.949,7.949,0,0,0-5.106-1.392" transform="translate(-192 -125.626)"/>
    <path class="cls-8" d="M606.38,421.685l-.213,2.014-2.332.955a27.1,27.1,0,0,1-.106,4.983c-.318,2.333-1.485,8.588-1.061,11.028s1.591,10.709,3.818,13.784,2.863,3.393,2.65,4.453-5.725,1.7-7.845,1.272-5.409-.953-5.939-2.651-1.484-9.542-1.908-10.92a4.9,4.9,0,0,0-2.758-2.863,3.345,3.345,0,0,1-2.12-1.8,4.462,4.462,0,0,1,.742-3.605c.849-1.379,2.864-1.908,3.181-3.5a42.678,42.678,0,0,0,.531-5.408,27.59,27.59,0,0,0-.318-4.56l-2.545-1.377a13.789,13.789,0,0,1,.529-4.56c.744-3.181.637-4.241.107-6.149s-.424-8.908.213-13.361.848-8.164.848-8.164-.064-.216-.176-.588H577.742a9.83,9.83,0,0,0-2.789.526c-.243.774-.485,1.484-.7,2.076-.848,2.333-1.591,11.982-2.015,14.209-.233,1.223-1.3,5.224-2.226,8.639v45.433s0,7.731,7.731,7.731h63.151s7.731,0,7.731-7.731V398.4s0-7.731-7.731-7.731H609.12c-.073,1.494-.164,3.11-.3,4.829-.424,5.3-2.227,24.176-2.438,26.19" transform="translate(-192 -125.626)"/>
  </g>
  <polygon class="cls-7" points="41.574 54.018 41.574 35.853 24.637 35.853 24.637 54.018 14.143 54.018 14.143 10.57 24.637 10.57 24.637 27.017 41.574 27.017 41.574 10.57 52.068 10.57 52.068 54.018 41.574 54.018"/>
  <polygon class="cls-7" points="58.634 54.018 58.634 10.57 87.844 10.57 87.844 19.407 68.759 19.407 68.759 27.631 86.801 27.631 86.801 36.038 68.759 36.038 68.759 45.058 88.949 45.058 88.949 54.018 58.634 54.018"/>
  <g class="cls-2">
    <path class="cls-7" d="M309.545,149.513a4.346,4.346,0,0,0-.647-2.486,4.444,4.444,0,0,0-1.665-1.472,7.271,7.271,0,0,0-2.282-.7,16.741,16.741,0,0,0-2.436-.186H296.9v10.127h5a16.864,16.864,0,0,0,2.652-.216,8.418,8.418,0,0,0,2.466-.767,4.452,4.452,0,0,0,2.528-4.295m.43,30.131L300.542,162.4h-3.577v17.243H286.717V136.2h16.569a28.886,28.886,0,0,1,6.106.644,15.942,15.942,0,0,1,5.339,2.179,11.417,11.417,0,0,1,3.774,4.05,12.652,12.652,0,0,1,1.411,6.259,11.546,11.546,0,0,1-2.393,7.426,13.039,13.039,0,0,1-6.627,4.3l11.352,18.594Z" transform="translate(-192 -125.626)"/>
    <path class="cls-7" d="M349.557,166.02a3.838,3.838,0,0,0-2.026-3.743,11.845,11.845,0,0,0-5.4-1.043H336.3v9.941h5.891a15.763,15.763,0,0,0,2.547-.214,8.035,8.035,0,0,0,2.393-.767,4.356,4.356,0,0,0,2.425-4.174m-1.412-17.243a3.479,3.479,0,0,0-1.687-3.222,9.892,9.892,0,0,0-5-1.013H336.3v8.96h5.646a7.6,7.6,0,0,0,4.572-1.2,4.1,4.1,0,0,0,1.626-3.528M360.05,167a11.713,11.713,0,0,1-1.412,5.982,11.191,11.191,0,0,1-3.743,3.9A16.256,16.256,0,0,1,349.587,179a28.691,28.691,0,0,1-6.106.645H326.176V136.2h17.305a26.54,26.54,0,0,1,5.155.522,15.27,15.27,0,0,1,4.786,1.779,9.571,9.571,0,0,1,4.848,8.868,9.048,9.048,0,0,1-1.964,5.984,10.949,10.949,0,0,1-5.154,3.4v.122a11.964,11.964,0,0,1,3.467,1.136,10.043,10.043,0,0,1,2.823,2.118,9.936,9.936,0,0,1,1.9,3.006A10.109,10.109,0,0,1,360.05,167" transform="translate(-192 -125.626)"/>
  </g>
  <polygon class="cls-7" points="173.818 54.018 173.818 10.57 203.028 10.57 203.028 19.407 183.943 19.407 183.943 27.631 201.985 27.631 201.985 36.038 183.943 36.038 183.943 45.058 204.133 45.058 204.133 54.018 173.818 54.018"/>
  <g class="cls-2">
    <path class="cls-7" d="M424.668,149.513a4.346,4.346,0,0,0-.648-2.486,4.444,4.444,0,0,0-1.665-1.472,7.271,7.271,0,0,0-2.282-.7,16.741,16.741,0,0,0-2.436-.186h-5.611v10.127h5a16.864,16.864,0,0,0,2.652-.216,8.418,8.418,0,0,0,2.466-.767,4.454,4.454,0,0,0,2.529-4.295m.429,30.131L415.664,162.4h-3.577v17.243H401.839V136.2h16.569a28.879,28.879,0,0,1,6.106.644,15.942,15.942,0,0,1,5.339,2.179,11.429,11.429,0,0,1,3.775,4.05,12.663,12.663,0,0,1,1.41,6.259,11.545,11.545,0,0,1-2.393,7.426,13.039,13.039,0,0,1-6.627,4.3l11.352,18.594Z" transform="translate(-192 -125.626)"/>
  </g>
  <polygon class="cls-7" points="269.12 19.53 269.12 54.018 258.627 54.018 258.627 19.53 246.353 19.53 246.353 10.57 281.393 10.57 281.393 19.53 269.12 19.53"/>
  <polygon class="cls-7" points="41.329 107.959 30.835 107.959 14.389 64.511 26.171 64.511 36.236 95.318 36.481 95.318 46.483 64.511 58.082 64.511 41.329 107.959"/>
  <rect class="cls-7" x="61.089" y="64.511" width="10.555" height="43.448"/>
  <g class="cls-2">
    <path class="cls-7" d="M295.554,201.429a9.477,9.477,0,0,0-3.529-2.73,9.955,9.955,0,0,0-4.2-1.014,12.575,12.575,0,0,0-2.116.184,5.517,5.517,0,0,0-1.934.706,4.787,4.787,0,0,0-1.442,1.35,3.6,3.6,0,0,0-.582,2.118,3.407,3.407,0,0,0,.46,1.84,4.085,4.085,0,0,0,1.349,1.289,12.034,12.034,0,0,0,2.118,1.013q1.227.461,2.761.952,2.209.735,4.6,1.626a17.223,17.223,0,0,1,4.357,2.362,12.406,12.406,0,0,1,3.252,3.651,10.523,10.523,0,0,1,1.289,5.432,14.174,14.174,0,0,1-1.381,6.473,12.9,12.9,0,0,1-3.712,4.511,15.9,15.9,0,0,1-5.339,2.638,22.444,22.444,0,0,1-6.2.859,25.6,25.6,0,0,1-9.022-1.626,19.08,19.08,0,0,1-7.241-4.633l6.873-7a12.67,12.67,0,0,0,4.2,3.283,11.4,11.4,0,0,0,5.186,1.32,10.414,10.414,0,0,0,2.27-.245,5.667,5.667,0,0,0,1.933-.8,4,4,0,0,0,1.319-1.473,4.64,4.64,0,0,0,.491-2.209,3.508,3.508,0,0,0-.613-2.087,6.036,6.036,0,0,0-1.749-1.565,14.141,14.141,0,0,0-2.823-1.288q-1.689-.582-3.835-1.258a36.538,36.538,0,0,1-4.081-1.6,13.664,13.664,0,0,1-3.56-2.363,10.935,10.935,0,0,1-2.516-3.5,11.846,11.846,0,0,1-.951-5,12.292,12.292,0,0,1,1.473-6.2,12.808,12.808,0,0,1,3.866-4.235,16.634,16.634,0,0,1,5.4-2.424,24.509,24.509,0,0,1,6.076-.767,22.534,22.534,0,0,1,7.517,1.351,19.376,19.376,0,0,1,6.72,3.988Z" transform="translate(-192 -125.626)"/>
    <path class="cls-7" d="M331.821,201.429a9.485,9.485,0,0,0-3.529-2.73,9.955,9.955,0,0,0-4.2-1.014,12.586,12.586,0,0,0-2.117.184,5.519,5.519,0,0,0-1.933.706,4.787,4.787,0,0,0-1.442,1.35,3.6,3.6,0,0,0-.583,2.118,3.408,3.408,0,0,0,.461,1.84,4.085,4.085,0,0,0,1.349,1.289,12.034,12.034,0,0,0,2.118,1.013q1.227.461,2.761.952,2.209.735,4.6,1.626a17.2,17.2,0,0,1,4.356,2.362,12.4,12.4,0,0,1,3.253,3.651,10.523,10.523,0,0,1,1.289,5.432,14.174,14.174,0,0,1-1.381,6.473,12.907,12.907,0,0,1-3.713,4.511,15.887,15.887,0,0,1-5.338,2.638,22.45,22.45,0,0,1-6.2.859,25.6,25.6,0,0,1-9.022-1.626,19.08,19.08,0,0,1-7.241-4.633l6.873-7a12.66,12.66,0,0,0,4.2,3.283,11.4,11.4,0,0,0,5.186,1.32,10.414,10.414,0,0,0,2.27-.245,5.667,5.667,0,0,0,1.933-.8,4,4,0,0,0,1.319-1.473,4.64,4.64,0,0,0,.491-2.209,3.508,3.508,0,0,0-.613-2.087,6.036,6.036,0,0,0-1.749-1.565,14.167,14.167,0,0,0-2.823-1.288q-1.689-.582-3.835-1.258a36.554,36.554,0,0,1-4.082-1.6,13.675,13.675,0,0,1-3.559-2.363,10.935,10.935,0,0,1-2.516-3.5,11.846,11.846,0,0,1-.951-5,12.292,12.292,0,0,1,1.473-6.2,12.808,12.808,0,0,1,3.866-4.235,16.624,16.624,0,0,1,5.4-2.424,24.5,24.5,0,0,1,6.076-.767,22.534,22.534,0,0,1,7.517,1.351,19.376,19.376,0,0,1,6.72,3.988Z" transform="translate(-192 -125.626)"/>
  </g>
  <polygon class="cls-7" points="151.971 107.959 151.971 64.511 181.181 64.511 181.181 73.348 162.096 73.348 162.096 81.572 180.138 81.572 180.138 89.979 162.096 89.979 162.096 98.999 182.286 98.999 182.286 107.959 151.971 107.959"/>
  <g class="cls-2">
    <path class="cls-7" d="M404.048,203.454a4.346,4.346,0,0,0-.648-2.486,4.444,4.444,0,0,0-1.665-1.472,7.271,7.271,0,0,0-2.282-.7,16.741,16.741,0,0,0-2.436-.186h-5.611v10.127h5a16.864,16.864,0,0,0,2.652-.216,8.418,8.418,0,0,0,2.466-.767,4.454,4.454,0,0,0,2.529-4.295m.429,30.131-9.433-17.243h-3.577v17.243H381.219V190.137h16.569a28.879,28.879,0,0,1,6.106.644,15.942,15.942,0,0,1,5.339,2.179,11.429,11.429,0,0,1,3.775,4.05,12.663,12.663,0,0,1,1.41,6.259,11.545,11.545,0,0,1-2.393,7.426,13.039,13.039,0,0,1-6.627,4.3l11.352,18.594Z" transform="translate(-192 -125.626)"/>
    <path class="cls-7" d="M444.857,201.429a9.477,9.477,0,0,0-3.529-2.73,9.955,9.955,0,0,0-4.2-1.014,12.566,12.566,0,0,0-2.116.184,5.517,5.517,0,0,0-1.934.706,4.787,4.787,0,0,0-1.442,1.35,3.6,3.6,0,0,0-.583,2.118,3.408,3.408,0,0,0,.461,1.84,4.085,4.085,0,0,0,1.349,1.289,12.034,12.034,0,0,0,2.118,1.013q1.226.461,2.761.952,2.209.735,4.6,1.626a17.223,17.223,0,0,1,4.357,2.362,12.405,12.405,0,0,1,3.252,3.651,10.523,10.523,0,0,1,1.289,5.432,14.174,14.174,0,0,1-1.381,6.473,12.915,12.915,0,0,1-3.712,4.511,15.9,15.9,0,0,1-5.339,2.638,22.45,22.45,0,0,1-6.2.859,25.6,25.6,0,0,1-9.022-1.626,19.08,19.08,0,0,1-7.241-4.633l6.873-7a12.67,12.67,0,0,0,4.2,3.283,11.4,11.4,0,0,0,5.186,1.32,10.414,10.414,0,0,0,2.27-.245,5.667,5.667,0,0,0,1.933-.8,4,4,0,0,0,1.319-1.473,4.64,4.64,0,0,0,.491-2.209,3.508,3.508,0,0,0-.613-2.087,6.036,6.036,0,0,0-1.749-1.565,14.141,14.141,0,0,0-2.823-1.288q-1.689-.582-3.835-1.258a36.629,36.629,0,0,1-4.082-1.6,13.676,13.676,0,0,1-3.559-2.363,10.935,10.935,0,0,1-2.516-3.5,11.846,11.846,0,0,1-.951-5,12.292,12.292,0,0,1,1.473-6.2,12.8,12.8,0,0,1,3.866-4.235,16.634,16.634,0,0,1,5.4-2.424,24.509,24.509,0,0,1,6.076-.767,22.534,22.534,0,0,1,7.517,1.351,19.376,19.376,0,0,1,6.72,3.988Z" transform="translate(-192 -125.626)"/>
    <path class="cls-7" d="M244.006,280.471a18.171,18.171,0,0,1-2.669,3.132,17.315,17.315,0,0,1-3.621,2.6,20.141,20.141,0,0,1-4.541,1.777,21.3,21.3,0,0,1-5.431.654,23.631,23.631,0,0,1-9.082-1.718,21.427,21.427,0,0,1-7.18-4.756,21.66,21.66,0,0,1-4.7-7.21A24.168,24.168,0,0,1,205.1,265.8a23.794,23.794,0,0,1,1.718-9.144,21.556,21.556,0,0,1,11.936-11.967,23.223,23.223,0,0,1,8.99-1.718,22.307,22.307,0,0,1,9.021,1.9,18.4,18.4,0,0,1,3.682,2.17,12.7,12.7,0,0,1,2.761,2.862l-3.681,2.7a10.988,10.988,0,0,0-1.811-2.086,12.392,12.392,0,0,0-2.669-1.842,16.736,16.736,0,0,0-3.345-1.287,14.813,14.813,0,0,0-3.9-.492,18.042,18.042,0,0,0-7.579,1.529,17.048,17.048,0,0,0-5.675,4.13,18.013,18.013,0,0,0-3.56,6.024,21.226,21.226,0,0,0-1.227,7.219,20.76,20.76,0,0,0,1.257,7.217,18.406,18.406,0,0,0,3.591,6.025,17.022,17.022,0,0,0,5.676,4.129,17.867,17.867,0,0,0,7.517,1.529,16.991,16.991,0,0,0,7.119-1.534,13.484,13.484,0,0,0,5.645-4.909Z" transform="translate(-192 -125.626)"/>
    <path class="cls-7" d="M287.515,265.835a21.309,21.309,0,0,0-1.227-7.23,18.077,18.077,0,0,0-3.56-6.035,17.047,17.047,0,0,0-5.676-4.135,19.21,19.21,0,0,0-15.035,0,17.037,17.037,0,0,0-5.676,4.135,18.077,18.077,0,0,0-3.56,6.035,21.915,21.915,0,0,0,0,14.46,17.737,17.737,0,0,0,3.56,6,17.226,17.226,0,0,0,5.676,4.1,19.222,19.222,0,0,0,15.035,0,17.236,17.236,0,0,0,5.676-4.1,17.737,17.737,0,0,0,3.56-6,21.309,21.309,0,0,0,1.227-7.23m4.664-.031a23.8,23.8,0,0,1-1.718,9.144,21.561,21.561,0,0,1-11.936,11.965,24.381,24.381,0,0,1-17.98,0,21.566,21.566,0,0,1-11.937-11.965,25.193,25.193,0,0,1,0-18.288,21.57,21.57,0,0,1,11.937-11.967,24.381,24.381,0,0,1,17.98,0,21.564,21.564,0,0,1,11.936,11.967,23.794,23.794,0,0,1,1.718,9.144" transform="translate(-192 -125.626)"/>
  </g>
  <polygon class="cls-7" points="111.409 157.974 131.659 157.974 131.659 161.901 106.99 161.901 106.99 118.453 111.409 118.453 111.409 157.974"/>
  <polygon class="cls-7" points="142.705 157.974 162.955 157.974 162.955 161.901 138.286 161.901 138.286 118.453 142.705 118.453 142.705 157.974"/>
  <polygon class="cls-7" points="172.775 157.974 196.033 157.974 196.033 161.901 168.356 161.901 168.356 118.453 195.296 118.453 195.296 122.38 172.775 122.38 172.775 137.293 193.823 137.293 193.823 141.221 172.775 141.221 172.775 157.974"/>
  <g class="cls-2">
    <path class="cls-7" d="M428.473,251.935a15.846,15.846,0,0,0-5.4-3.713,18.36,18.36,0,0,0-7.18-1.32,17.846,17.846,0,0,0-7.517,1.533,17.018,17.018,0,0,0-5.677,4.135,18.477,18.477,0,0,0-3.59,6.034,21.405,21.405,0,0,0,0,14.46,18.114,18.114,0,0,0,3.59,6,17.217,17.217,0,0,0,5.677,4.1,17.83,17.83,0,0,0,7.517,1.532,26.744,26.744,0,0,0,6.75-.8,17.148,17.148,0,0,0,4.971-2.024V268.687H417.488V264.76h14.544v19.627a28.139,28.139,0,0,1-7.671,3.2,34.522,34.522,0,0,1-8.529,1.045,23.613,23.613,0,0,1-9.083-1.718,21.426,21.426,0,0,1-7.179-4.755,21.672,21.672,0,0,1-4.7-7.21,24.177,24.177,0,0,1-1.687-9.144,23.794,23.794,0,0,1,1.718-9.144,21.562,21.562,0,0,1,11.937-11.967,23.234,23.234,0,0,1,8.99-1.718,24.171,24.171,0,0,1,9.082,1.56,19.5,19.5,0,0,1,6.627,4.332Z" transform="translate(-192 -125.626)"/>
  </g>
  <polygon class="cls-7" points="253.348 157.974 276.606 157.974 276.606 161.901 248.929 161.901 248.929 118.453 275.869 118.453 275.869 122.38 253.348 122.38 253.348 137.293 274.396 137.293 274.396 141.221 253.348 141.221 253.348 157.974"/>
  <g class="cls-2">
    <path class="cls-7" d="M518.245,450.331h.054V433.885h1.964v19.31h-2.455l-11.237-16.61h-.054v16.61h-1.964v-19.31h2.455Zm-28.42,1.118h10.337v1.746h-12.3v-19.31h11.974v1.745h-10.01v6.628h9.355V444h-9.355Zm-16.883-8.973h3.409a6.542,6.542,0,0,0,3.655-.859,2.9,2.9,0,0,0,1.282-2.577,3.35,3.35,0,0,0-.354-1.61,2.9,2.9,0,0,0-.982-1.063,4.471,4.471,0,0,0-1.528-.6,9.634,9.634,0,0,0-1.991-.191h-3.491Zm0,10.719h-1.964v-19.31h5.673a12.046,12.046,0,0,1,2.632.272,5.954,5.954,0,0,1,2.1.887,4.188,4.188,0,0,1,1.377,1.6,5.335,5.335,0,0,1,.491,2.4,4.73,4.73,0,0,1-1.418,3.45,4.973,4.973,0,0,1-1.555,1.022,6.732,6.732,0,0,1-1.964.491l5.646,9.192h-2.4l-5.346-9.028h-3.273Zm-16.692-1.746h10.337v1.746h-12.3v-19.31H466.26v1.745H456.25v6.628h9.355V444H456.25Zm-14.455,0h9v1.746H439.831v-19.31H441.8Zm-17.019-1.118h.054V433.885h1.964v19.31h-2.455L413.1,436.585h-.054v16.61h-1.964v-19.31h2.455Zm-30.629-4.009h8.509L398.4,436.067Zm-2.837,6.873h-2.154l8.346-19.31h1.909l8.291,19.31H405.52l-2.127-5.073h-9.982Zm-10.664-2.537h.055l6.273-16.773h2.1l-7.391,19.31H379.61l-7.364-19.31h2.127Zm-24.628.791h9v1.746H354.054v-19.31h1.964Zm-15.983-2.209a3.519,3.519,0,0,0,1.023,1.923,2.914,2.914,0,0,0,2.114.777,3.367,3.367,0,0,0,1.663-.367,2.9,2.9,0,0,0,1.05-.994,4.04,4.04,0,0,0,.546-1.43,9.107,9.107,0,0,0,.15-1.675V433.885h1.964v13.746a10.734,10.734,0,0,1-.2,2.018,5.581,5.581,0,0,1-.777,1.964,4.539,4.539,0,0,1-1.582,1.486,5.109,5.109,0,0,1-2.591.587,5.279,5.279,0,0,1-3.464-1.119,4.828,4.828,0,0,1-1.718-2.836Zm-4.582,3.955h-1.964v-19.31h1.964Zm-11.864,0h-1.964V435.63h-6.464v-1.745h14.892v1.745h-6.464Zm-12.274-16.2a4.714,4.714,0,0,0-1.609-1.4,4.923,4.923,0,0,0-2.373-.532,5.051,5.051,0,0,0-1.445.219,4.186,4.186,0,0,0-1.337.668,3.436,3.436,0,0,0-.968,1.132,3.342,3.342,0,0,0-.368,1.609,2.978,2.978,0,0,0,.353,1.527,3.362,3.362,0,0,0,.939,1.023,5.442,5.442,0,0,0,1.333.7q.747.272,1.564.545,1,.327,2.026.709a7.3,7.3,0,0,1,1.836,1,4.823,4.823,0,0,1,1.333,1.554,4.929,4.929,0,0,1,.516,2.387,5.3,5.3,0,0,1-.551,2.5,5.231,5.231,0,0,1-1.432,1.732,5.942,5.942,0,0,1-2.012,1.009,8.138,8.138,0,0,1-2.278.328,8.758,8.758,0,0,1-1.745-.178,7.9,7.9,0,0,1-1.664-.531,6.8,6.8,0,0,1-1.473-.9,6.516,6.516,0,0,1-1.2-1.254l1.691-1.255a5.158,5.158,0,0,0,1.76,1.732,4.97,4.97,0,0,0,2.659.7,5.17,5.17,0,0,0,1.5-.232,4.209,4.209,0,0,0,1.377-.709,3.928,3.928,0,0,0,1.009-1.173,3.635,3.635,0,0,0,0-3.3,3.511,3.511,0,0,0-1.05-1.118,6.473,6.473,0,0,0-1.5-.751q-.846-.3-1.773-.6-.954-.3-1.882-.681a6.382,6.382,0,0,1-1.663-1,4.65,4.65,0,0,1-1.187-1.514,5.532,5.532,0,0,1,.109-4.609,5.077,5.077,0,0,1,1.46-1.664,6.109,6.109,0,0,1,1.991-.954,8.1,8.1,0,0,1,2.154-.3,7.444,7.444,0,0,1,3.355.695,5.769,5.769,0,0,1,2.1,1.65Zm-38.781,13.5h.055l4.827-16.61h2.346l4.827,16.61h.055l4.718-16.61h2.073l-5.7,19.31h-2.291l-4.855-16.583h-.055l-4.854,16.583h-2.291l-5.7-19.31h2.073Zm-17.456,3.191a7.5,7.5,0,0,1-3.572-.75,6.372,6.372,0,0,1-2.21-1.9,6.977,6.977,0,0,1-1.132-2.5,11.3,11.3,0,0,1-.313-2.551V433.885h1.964v11.891a9.464,9.464,0,0,0,.272,2.278,5.686,5.686,0,0,0,.887,1.963,4.563,4.563,0,0,0,1.622,1.391,6.056,6.056,0,0,0,4.964,0,4.566,4.566,0,0,0,1.623-1.391,5.686,5.686,0,0,0,.887-1.963,9.515,9.515,0,0,0,.272-2.278V433.885h1.964v12.109a11.3,11.3,0,0,1-.314,2.551,6.974,6.974,0,0,1-1.131,2.5,6.347,6.347,0,0,1-2.223,1.9,7.526,7.526,0,0,1-3.56.75M241.25,443.553a9.486,9.486,0,0,0-.545-3.213,8.043,8.043,0,0,0-1.582-2.682,7.583,7.583,0,0,0-2.523-1.838,8.536,8.536,0,0,0-6.682,0,7.583,7.583,0,0,0-2.523,1.838,8.026,8.026,0,0,0-1.582,2.682,9.744,9.744,0,0,0,0,6.426,7.861,7.861,0,0,0,1.582,2.669,7.662,7.662,0,0,0,2.523,1.825,8.548,8.548,0,0,0,6.682,0,7.662,7.662,0,0,0,2.523-1.825,7.877,7.877,0,0,0,1.582-2.669,9.478,9.478,0,0,0,.545-3.213m2.073-.013a10.576,10.576,0,0,1-.764,4.064,9.583,9.583,0,0,1-5.3,5.318,10.832,10.832,0,0,1-7.992,0,9.589,9.589,0,0,1-5.3-5.318,11.2,11.2,0,0,1,0-8.128,9.587,9.587,0,0,1,5.3-5.319,10.846,10.846,0,0,1,7.992,0,9.581,9.581,0,0,1,5.3,5.319,10.576,10.576,0,0,1,.764,4.064m-33.111,5.7a3.512,3.512,0,0,0,1.023,1.923,2.914,2.914,0,0,0,2.114.777,3.367,3.367,0,0,0,1.663-.367,2.9,2.9,0,0,0,1.05-.994,4.04,4.04,0,0,0,.546-1.43,9.2,9.2,0,0,0,.15-1.675V433.885h1.964v13.746a10.734,10.734,0,0,1-.2,2.018,5.6,5.6,0,0,1-.777,1.964,4.539,4.539,0,0,1-1.582,1.486,5.109,5.109,0,0,1-2.591.587,5.279,5.279,0,0,1-3.464-1.119,4.823,4.823,0,0,1-1.718-2.836Z" transform="translate(-192 -125.626)"/>
  </g>
</svg>
