<svg id="Laag_1" data-name="Laag 1" xmlns="http://www.w3.org/2000/svg" viewBox="0 0 4910.978 1987.975">
  <defs>
    <style>
      .cls-1 {
        fill: #005493;
      }

      .cls-2, .cls-6, .cls-7 {
        fill: #fff;
      }

      .cls-3 {
        fill: #f28c2b;
      }

      .cls-4 {
        fill: #e62d32;
      }

      .cls-5 {
        fill: #009642;
      }

      .cls-6, .cls-7 {
        stroke: #fff;
        stroke-miterlimit: 10;
      }

      .cls-6 {
        stroke-width: 2px;
      }
    </style>
  </defs>
  <title>Logo vierkant lijnen Sterk TechniekOnderwijs</title>
  <g>
    <g>
      <circle class="cls-1" cx="4151.712" cy="1278.864" r="350.105"/>
      <path class="cls-2" d="M3979.064,2313.046c-31.289,50.336-117.461,161.643-134.826,183.969v-87.828c33.231-10.314,102.013-39.489,102.013-104.411V2172.3s0-14.254-14.114-17.665c-12.629-3.03-57.943,45.1-64.628,45.477-7.428-.377-26.741-33.348-40.856-35.621a1.171,1.171,0,0,1-1.753,0c-14.114,2.273-33.428,35.244-40.856,35.621-6.685-.377-52-48.507-64.627-45.477-14.114,3.411-14.114,17.665-14.114,17.665v132.479c0,64.922,68.783,94.1,102.013,104.411v87.828c-17.366-22.326-103.539-133.633-134.828-183.969-18.191-18.189-36.382-3.788-31.834,18.194,11.9,189.79,125.015,265.3,166.662,286.1v22.118a18.461,18.461,0,0,0,36.922,0v-22.118c41.647-20.8,154.759-96.313,166.661-286.1C4015.446,2309.258,3997.255,2294.856,3979.064,2313.046Z" transform="translate(325.936 -1127.342)"/>
    </g>
    <g>
      <circle class="cls-3" cx="3024.28" cy="1278.864" r="350.105"/>
      <g>
        <g>
          <path class="cls-2" d="M2524.255,2476.4a66.142,66.142,0,1,1,66.142-66.142A66.217,66.217,0,0,1,2524.255,2476.4Zm0-117.6a51.457,51.457,0,1,0,51.457,51.457A51.515,51.515,0,0,0,2524.255,2358.8Z" transform="translate(325.936 -1127.342)"/>
          <circle class="cls-2" cx="2850.191" cy="1282.919" r="27.581"/>
        </g>
        <path class="cls-2" d="M2743.358,2569.914l-148.626-143c3.652,33.945-41.026,59.819-56.958,59.2l87.095,83.795H2610.6v71.146h181.859v-71.146Zm34.418,56.461H2625.288V2584.6h152.488Z" transform="translate(325.936 -1127.342)"/>
        <path class="cls-2" d="M2923.889,2228.584l-14.011-7.534-46.864,87.144-55.938-4.182-35.944-69.47,18.3-41.992,103.713,3.84.588-15.9-114.55-4.244-18.894,43.346-37,19.143,6.951,13.435-171.855,89.7s48.888,28.455,38.012,72.828l171.594-89.562,7.282,14.075,36.519-18.894,60.336,4.512Z" transform="translate(325.936 -1127.342)"/>
      </g>
    </g>
    <g>
      <circle class="cls-4" cx="769.416" cy="1278.864" r="350.105"/>
      <path class="cls-2" d="M713.628,2281.173l-5.924-7.547a21.35,21.35,0,0,0-29.889-3.6l-86.935,68.241-63.834-81.286,83.382-65.451a21.377,21.377,0,0,0,3.605-29.927l-5.924-7.547a21.35,21.35,0,0,0-29.889-3.6l-83.412,65.475-46.372-59.05-70.4,55.24-24.2,18.989c-63.733,50.007-79.577,139.236-40.307,207.562L180.9,2542.778a31.791,31.791,0,0,0-5.362,44.5l6.976,8.887a31.832,31.832,0,0,0,44.562,5.368l131.932-103.562c57.5,59.853,152.912,67.667,219.526,15.4l22.978-18.029c1.672-1.312,3.261-2.69,4.812-4.1l.161.193,64.774-50.823-48.14-61.3,86.9-68.218A21.377,21.377,0,0,0,713.628,2281.173Z" transform="translate(325.936 -1127.342)"/>
    </g>
    <g>
      <circle class="cls-5" cx="1896.848" cy="1278.864" r="350.105"/>
      <g>
        <path class="cls-2" d="M1405.8,2385.619l334.668-155.687s78.412-30.718,93.772,17.784c6.467,26.676-21.018,48.5-21.018,48.5l-124.49,59.82s-71.945,206.54-77.6,223.112c-8.97,36.628-64.67,30.718-64.67,30.718l18.22-192.271s-132.932,42.47-149.177,46.763c-22.23,6.718-43.652,0-43.652,0l-97.005-90.744s21.422-30.109,53.353-14.345Z" transform="translate(325.936 -1127.342)"/>
        <path class="cls-2" d="M1583.041,2285.915l-98.827,41.83-90.942-61.841s48.5-33.952,86.092-19.4C1496.774,2252.522,1583.041,2285.915,1583.041,2285.915Z" transform="translate(325.936 -1127.342)"/>
      </g>
    </g>
  </g>
  <g>
    <path class="cls-6" d="M1559.994,1407.051q10.02,17.347,26.021,25.828t36.429,8.481a72.775,72.775,0,0,0,23.9-3.855,60.914,60.914,0,0,0,19.467-10.793,50.818,50.818,0,0,0,13.107-16.769,49.714,49.714,0,0,0,4.819-22.166q0-14.257-5.975-23.515a47.964,47.964,0,0,0-16-15.227,118.042,118.042,0,0,0-22.552-10.216q-12.532-4.238-25.828-8.481t-25.828-9.637a86.413,86.413,0,0,1-22.551-14.071,62.643,62.643,0,0,1-16-21.78q-5.982-13.1-5.975-32.382,0-18.115,7.131-32.188a68.77,68.77,0,0,1,19.275-23.515,85.868,85.868,0,0,1,27.948-14.264,113.114,113.114,0,0,1,33.153-4.818,107.33,107.33,0,0,1,41.44,7.9q19.082,7.906,32.96,26.406l-21.973,15.806q-9.641-13.49-22.552-20.239t-30.646-6.746a83.289,83.289,0,0,0-23.515,3.277,58.75,58.75,0,0,0-19.468,9.637,47.419,47.419,0,0,0-13.3,16q-5.015,9.641-5.012,22.744,0,20.438,10.408,31.418a73.386,73.386,0,0,0,26.021,17.347,275.822,275.822,0,0,0,33.924,11.18,164.531,164.531,0,0,1,33.923,12.914,73.193,73.193,0,0,1,26.021,22.551q10.408,14.456,10.408,39.9,0,18.5-6.939,32.767a72.079,72.079,0,0,1-18.7,24.093,80.853,80.853,0,0,1-27.177,14.841,103,103,0,0,1-32,5.012q-26.988,0-49.729-9.445t-38.935-31.8Z" transform="translate(325.936 -1127.342)"/>
    <path class="cls-6" d="M1827.527,1207.75h-93.29v-23.13h212.022v23.13h-93.29v249.8h-25.443Z" transform="translate(325.936 -1127.342)"/>
    <path class="cls-6" d="M1988.275,1184.62h166.919v23.13H2013.717v97.145h132.61v23.13h-132.61v106.4h147.645v23.13H1988.275Z" transform="translate(325.936 -1127.342)"/>
    <path class="cls-6" d="M2216.867,1184.62h71.7q5.4,0,14.649.386a150.781,150.781,0,0,1,20.046,2.313,123.581,123.581,0,0,1,21.973,6.168,62.316,62.316,0,0,1,20.046,12.336,64.085,64.085,0,0,1,14.648,20.431q5.783,12.342,5.783,30.068,0,19.66-6.746,32.382a62.827,62.827,0,0,1-16.962,20.624,71.269,71.269,0,0,1-22.552,11.757,145.379,145.379,0,0,1-23.516,5.4l79.412,131.068h-28.912l-76.713-129.526h-47.416v129.526h-25.443Zm25.443,120.274h53.969q20.041,0,32.574-5.011t19.468-12.336a39.037,39.037,0,0,0,9.444-15.805,48.7,48.7,0,0,0,0-30.839,39.118,39.118,0,0,0-9.444-15.806q-6.939-7.318-19.468-12.335t-32.574-5.012h-53.969Z" transform="translate(325.936 -1127.342)"/>
    <path class="cls-6" d="M2445.461,1184.62H2470.9v120.274h2.313l132.225-120.274h35.08l-138.007,124.9,145.717,148.03h-36.622l-138.393-141.091H2470.9v141.091h-25.443Z" transform="translate(325.936 -1127.342)"/>
    <path class="cls-6" d="M180.13,1670.344H86.84v-23.13H298.862v23.13h-93.29v249.8H180.13Z" transform="translate(325.936 -1127.342)"/>
    <path class="cls-6" d="M340.877,1647.214H507.8v23.13H366.32v97.145H498.93v23.13H366.32v106.4H513.965v23.13H340.877Z" transform="translate(325.936 -1127.342)"/>
    <path class="cls-6" d="M794.215,1877.354q-19.66,26.6-45.489,38.164a135.2,135.2,0,0,1-55.9,11.565q-31.225,0-57.246-10.6a128.885,128.885,0,0,1-44.524-29.683,136.262,136.262,0,0,1-28.912-45.488q-10.408-26.4-10.409-57.632t10.409-57.438a136.739,136.739,0,0,1,28.912-45.3,131.233,131.233,0,0,1,44.524-29.876q26.021-10.788,57.246-10.793a135.923,135.923,0,0,1,51.849,9.83q24.087,9.83,42.211,32.959l-20.816,17.348q-12.721-19.272-32.575-28.141a98.825,98.825,0,0,0-40.669-8.867q-26.6,0-47.994,9.252a106.948,106.948,0,0,0-36.429,25.443,112.576,112.576,0,0,0-23.13,38.164,142.911,142.911,0,0,0,0,94.832,112.581,112.581,0,0,0,23.13,38.164,106.941,106.941,0,0,0,36.429,25.442q21.395,9.252,47.994,9.252a99.989,99.989,0,0,0,43.368-10.215,104.594,104.594,0,0,0,20.238-13.107,83.88,83.88,0,0,0,16.962-19.082Z" transform="translate(325.936 -1127.342)"/>
    <path class="cls-6" d="M840.857,1647.214H866.3v120.274h152.656V1647.214H1044.4v272.931h-25.443V1790.618H866.3v129.526H840.857Z" transform="translate(325.936 -1127.342)"/>
    <path class="cls-6" d="M1119.179,1647.214h32.767l166.148,239.007h.771V1647.214h25.442v272.931h-32.767l-166.148-239.007h-.771v239.007h-25.442Z" transform="translate(325.936 -1127.342)"/>
    <path class="cls-6" d="M1419.094,1647.214h25.442v272.931h-25.442Z" transform="translate(325.936 -1127.342)"/>
    <path class="cls-6" d="M1519.321,1647.214H1686.24v23.13H1544.763v97.145h132.61v23.13h-132.61v106.4h147.645v23.13H1519.321Z" transform="translate(325.936 -1127.342)"/>
    <path class="cls-6" d="M1747.914,1647.214h25.442v120.274h2.313l132.225-120.274h35.08l-138.007,124.9,145.717,148.03h-36.622l-138.393-141.091h-2.313v141.091h-25.442Z" transform="translate(325.936 -1127.342)"/>
    <path class="cls-6" d="M1965.716,1783.679q0-31.225,10.409-57.438a136.739,136.739,0,0,1,28.912-45.3,131.233,131.233,0,0,1,44.524-29.876q26.021-10.788,57.246-10.793t57.245,10.793a131.237,131.237,0,0,1,44.525,29.876,136.755,136.755,0,0,1,28.912,45.3q10.409,26.219,10.408,57.438t-10.408,57.632a136.277,136.277,0,0,1-28.912,45.488,128.889,128.889,0,0,1-44.525,29.683q-26.019,10.6-57.245,10.6t-57.246-10.6a128.885,128.885,0,0,1-44.524-29.683,136.262,136.262,0,0,1-28.912-45.488Q1965.716,1814.91,1965.716,1783.679Zm25.443,0a136.1,136.1,0,0,0,8.1,47.416,112.581,112.581,0,0,0,23.13,38.164,106.941,106.941,0,0,0,36.429,25.442q21.395,9.252,47.994,9.252t47.993-9.252a106.924,106.924,0,0,0,36.43-25.442,112.6,112.6,0,0,0,23.131-38.164,142.9,142.9,0,0,0,0-94.832,112.594,112.594,0,0,0-23.131-38.164,106.932,106.932,0,0,0-36.43-25.443q-21.393-9.252-47.993-9.252t-47.994,9.252a106.948,106.948,0,0,0-36.429,25.443,112.577,112.577,0,0,0-23.13,38.164A136.1,136.1,0,0,0,1991.159,1783.679Z" transform="translate(325.936 -1127.342)"/>
    <path class="cls-6" d="M2304.95,1647.214h32.768l166.148,239.007h.771V1647.214h25.443v272.931h-32.768l-166.148-239.007h-.771v239.007H2304.95Z" transform="translate(325.936 -1127.342)"/>
    <path class="cls-6" d="M2601.4,1647.214h84.423q35.462,0,60.138,8.674t41.055,22.166a110.19,110.19,0,0,1,25.828,29.876,145.972,145.972,0,0,1,19.468,58.6q1.157,12.143,1.156,17.154t-1.156,17.155a145.978,145.978,0,0,1-19.468,58.6,110.017,110.017,0,0,1-25.828,29.876q-16.389,13.5-41.055,22.166t-60.138,8.674H2601.4Zm25.442,249.8h52.428a182.348,182.348,0,0,0,50.5-6.746,115.581,115.581,0,0,0,40.863-20.624,97.207,97.207,0,0,0,27.37-35.272q10.02-21.4,10.022-50.693T2798,1732.987a97.209,97.209,0,0,0-27.37-35.273,115.686,115.686,0,0,0-40.863-20.624,182.587,182.587,0,0,0-50.5-6.746h-52.428Z" transform="translate(325.936 -1127.342)"/>
    <path class="cls-6" d="M2890.517,1647.214h166.92v23.13H2915.96v97.145h132.61v23.13H2915.96v106.4H3063.6v23.13H2890.517Z" transform="translate(325.936 -1127.342)"/>
    <path class="cls-6" d="M3119.109,1647.214h71.7q5.4,0,14.649.386a150.781,150.781,0,0,1,20.046,2.313,123.581,123.581,0,0,1,21.973,6.168,62.316,62.316,0,0,1,20.046,12.336,64.085,64.085,0,0,1,14.648,20.431q5.783,12.342,5.783,30.068,0,19.66-6.746,32.382a62.827,62.827,0,0,1-16.962,20.624,71.269,71.269,0,0,1-22.552,11.757,145.379,145.379,0,0,1-23.516,5.4l79.412,131.068h-28.912l-76.713-129.526h-47.416v129.526h-25.443Zm25.443,120.274h53.969q20.041,0,32.574-5.011t19.468-12.336a39.037,39.037,0,0,0,9.444-15.805,48.7,48.7,0,0,0,0-30.839,39.118,39.118,0,0,0-9.444-15.806q-6.939-7.318-19.468-12.335t-32.574-5.012h-53.969Z" transform="translate(325.936 -1127.342)"/>
    <path class="cls-6" d="M3314.55,1647.214h26.214l67.847,241.706h.771l69-241.706h32.382l69,241.706h.771l67.847-241.706H3674.6l-79.412,272.931h-31.225l-69-242.862h-.771l-69,242.862h-31.225Z" transform="translate(325.936 -1127.342)"/>
    <path class="cls-6" d="M3713.916,1647.214h25.443v272.931h-25.443Z" transform="translate(325.936 -1127.342)"/>
    <path class="cls-6" d="M3925.166,1839.961a240.549,240.549,0,0,1-1.735,27.37,74.345,74.345,0,0,1-9.252,28.334q-7.516,13.3-22.358,22.359t-41.44,9.059q-30.069,0-47.609-15.227t-23.322-40.67l25.443-4.626q9.25,37.4,45.488,37.393,13.488,0,22.937-4.433a39.671,39.671,0,0,0,15.228-12.143,51.168,51.168,0,0,0,8.48-18.311,92.949,92.949,0,0,0,2.7-22.937V1647.214h25.443Z" transform="translate(325.936 -1127.342)"/>
    <path class="cls-6" d="M4007.274,1869.645q10.02,17.347,26.021,25.828t36.43,8.481a72.774,72.774,0,0,0,23.9-3.855,60.922,60.922,0,0,0,19.468-10.793,50.823,50.823,0,0,0,13.106-16.769,49.707,49.707,0,0,0,4.818-22.166q0-14.257-5.975-23.515a47.959,47.959,0,0,0-16-15.227,118.056,118.056,0,0,0-22.552-10.216q-12.532-4.238-25.828-8.481t-25.828-9.637a86.432,86.432,0,0,1-22.552-14.071,62.649,62.649,0,0,1-16-21.78q-5.981-13.1-5.975-32.382,0-18.115,7.132-32.188a68.763,68.763,0,0,1,19.274-23.515,85.873,85.873,0,0,1,27.948-14.264,113.113,113.113,0,0,1,33.152-4.818,107.335,107.335,0,0,1,41.441,7.9q19.081,7.906,32.959,26.406l-21.973,15.806q-9.64-13.49-22.552-20.239t-30.646-6.746a83.292,83.292,0,0,0-23.516,3.277,58.745,58.745,0,0,0-19.467,9.637,47.41,47.41,0,0,0-13.3,16q-5.014,9.641-5.012,22.744,0,20.438,10.408,31.418a73.384,73.384,0,0,0,26.021,17.347,275.805,275.805,0,0,0,33.923,11.18,164.514,164.514,0,0,1,33.924,12.914,73.2,73.2,0,0,1,26.021,22.551q10.408,14.456,10.408,39.9,0,18.5-6.939,32.767a72.091,72.091,0,0,1-18.7,24.093,80.856,80.856,0,0,1-27.178,14.841,103,103,0,0,1-32,5.012q-26.987,0-49.729-9.445t-38.935-31.8Z" transform="translate(325.936 -1127.342)"/>
  </g>
  <g>
    <path class="cls-7" d="M-308.479,2856.364h21.169v63.929h79.516v-63.929h21.169v154.714h-21.169v-72.354h-79.516v72.354h-21.169Z" transform="translate(325.936 -1127.342)"/>
    <path class="cls-7" d="M-108.268,2856.364h23.7l56.135,154.714H-51.4l-15.692-46.341h-61.19l-16.746,46.341h-21.485Zm34.439,91.312-23.486-68.352-24.961,68.352Z" transform="translate(325.936 -1127.342)"/>
    <path class="cls-7" d="M35.6,2856.364h23.7l56.135,154.714H92.47l-15.692-46.341H15.587l-16.746,46.341H-22.644Zm34.439,91.312-23.486-68.352L21.59,2947.676Z" transform="translate(325.936 -1127.342)"/>
    <path class="cls-7" d="M137.021,2856.364h70.325q17.372,0,28.647,5.161,21.406,9.9,21.408,36.545,0,13.9-5.74,22.749a41.484,41.484,0,0,1-16.061,14.219q9.056,3.687,13.639,9.689t5.108,19.483l.737,20.748a63.721,63.721,0,0,0,1.475,13.165q1.9,7.373,6.741,9.479v3.476H237.6a19.31,19.31,0,0,1-1.685-5.16,98.794,98.794,0,0,1-1.053-12.218l-1.264-25.8q-.716-15.166-10.948-20.327-5.835-2.843-18.317-2.843H157.979v66.351H137.021Zm68.072,70.88q14.336,0,22.685-5.9t8.349-21.275q0-16.532-11.676-22.538-6.25-3.16-16.695-3.159H157.979v52.87Z" transform="translate(325.936 -1127.342)"/>
    <path class="cls-7" d="M290.26,2856.364h20.958v136.283h77.62v18.431H290.26Z" transform="translate(325.936 -1127.342)"/>
    <path class="cls-7" d="M412.219,2856.364H524.49v18.957H432.651v46.973h84.887v17.9H432.651v52.449h93.418v18.431H412.219Z" transform="translate(325.936 -1127.342)"/>
    <path class="cls-7" d="M553.558,2856.364h30.026l44.487,130.807,44.171-130.807h29.815v154.714H682.047v-91.312q0-4.74.21-15.692t.211-23.486L638.3,3011.078H617.529l-44.593-130.49v4.739q0,5.687.316,17.325t.316,17.114v91.312H553.558Z" transform="translate(325.936 -1127.342)"/>
    <path class="cls-7" d="M733.232,2856.364h30.026l44.487,130.807,44.171-130.807h29.815v154.714H861.721v-91.312q0-4.74.21-15.692t.211-23.486l-44.172,130.49H797.2l-44.593-130.49v4.739q0,5.687.316,17.325t.316,17.114v91.312H733.232Z" transform="translate(325.936 -1127.342)"/>
    <path class="cls-7" d="M915.434,2856.364H1027.7v18.957H935.866v46.973h84.887v17.9H935.866v52.449h93.418v18.431H915.434Z" transform="translate(325.936 -1127.342)"/>
    <path class="cls-7" d="M1059.827,2856.364h70.325q17.372,0,28.647,5.161,21.406,9.9,21.408,36.545,0,13.9-5.74,22.749a41.484,41.484,0,0,1-16.061,14.219q9.056,3.687,13.639,9.689t5.108,19.483l.737,20.748a63.721,63.721,0,0,0,1.475,13.165q1.9,7.373,6.741,9.479v3.476h-25.7a19.31,19.31,0,0,1-1.685-5.16,98.794,98.794,0,0,1-1.053-12.218l-1.264-25.8q-.716-15.166-10.948-20.327-5.835-2.843-18.317-2.843h-46.354v66.351h-20.958Zm68.072,70.88q14.336,0,22.685-5.9t8.349-21.275q0-16.532-11.676-22.538-6.25-3.16-16.695-3.159h-49.776v52.87Z" transform="translate(325.936 -1127.342)"/>
    <path class="cls-7" d="M1212.54,2856.364h30.026l44.487,130.807,44.171-130.807h29.815v154.714h-20.011v-91.312q0-4.74.21-15.692t.211-23.486l-44.172,130.49h-20.768l-44.593-130.49v4.739q0,5.687.316,17.325t.316,17.114v91.312H1212.54Z" transform="translate(325.936 -1127.342)"/>
    <path class="cls-7" d="M1394.741,2856.364h112.271v18.957h-91.838v46.973h84.887v17.9h-84.887v52.449h93.418v18.431h-113.85Z" transform="translate(325.936 -1127.342)"/>
    <path class="cls-7" d="M1538.607,2856.364h112.271v18.957H1559.04v46.973h84.887v17.9H1559.04v52.449h93.418v18.431h-113.85Z" transform="translate(325.936 -1127.342)"/>
    <path class="cls-7" d="M1683,2856.364h70.325q17.372,0,28.647,5.161,21.406,9.9,21.408,36.545,0,13.9-5.74,22.749a41.484,41.484,0,0,1-16.061,14.219q9.056,3.687,13.639,9.689t5.108,19.483l.737,20.748a63.721,63.721,0,0,0,1.475,13.165q1.9,7.373,6.741,9.479v3.476h-25.7a19.31,19.31,0,0,1-1.685-5.16,98.794,98.794,0,0,1-1.053-12.218l-1.264-25.8q-.716-15.166-10.948-20.327-5.835-2.843-18.317-2.843h-46.354v66.351H1683Zm68.072,70.88q14.336,0,22.685-5.9t8.349-21.275q0-16.532-11.676-22.538-6.25-3.16-16.695-3.159h-49.776v52.87Z" transform="translate(325.936 -1127.342)"/>
    <path class="cls-7" d="M1912.911,3011.078H1894.9V2854.152h18.009Z" transform="translate(325.936 -1127.342)"/>
    <path class="cls-7" d="M2011.6,2856.364h66.894q27.35,0,38.907,16.219a37.322,37.322,0,0,1,6.784,22.117q0,14.641-8.32,24.013a40.648,40.648,0,0,1-12.427,9.058q11.9,4.529,17.8,10.216,10.425,10.112,10.426,27.91a42.967,42.967,0,0,1-9.431,27.066q-14.094,18.116-44.824,18.115H2011.6Zm59.063,65.4q13.408,0,20.858-3.687,11.7-5.791,11.707-20.853,0-15.167-12.451-20.433-7.025-2.947-20.86-2.948h-37.78v47.92Zm7.084,71.406q19.456,0,27.748-11.164a27.926,27.926,0,0,0,5.21-17.062q0-16.849-15.2-22.96-8.082-3.262-21.37-3.265h-41.994v54.45Z" transform="translate(325.936 -1127.342)"/>
    <path class="cls-7" d="M2283.424,2878.481q15.375,20.537,15.376,52.554,0,34.652-17.588,57.61-20.644,26.962-58.873,26.961-35.7,0-56.136-23.591-18.221-22.749-18.22-57.5,0-31.383,15.587-53.713,20.01-28.645,59.189-28.646Q2263.729,2852.151,2283.424,2878.481ZM2264.94,2977.1q12.374-19.869,12.375-45.694,0-27.3-14.271-43.954t-39.021-16.655q-24.013,0-39.179,16.5t-15.166,48.645q0,25.721,13.007,43.375t42.181,17.656Q2252.563,2996.966,2264.94,2977.1Z" transform="translate(325.936 -1127.342)"/>
    <path class="cls-7" d="M2323.761,2856.364h20.959v136.283h77.62v18.431h-98.579Z" transform="translate(325.936 -1127.342)"/>
    <path class="cls-7" d="M2443.72,2856.364h20.959v136.283h77.62v18.431H2443.72Z" transform="translate(325.936 -1127.342)"/>
    <path class="cls-7" d="M2565.679,2856.364h112.271v18.957H2586.11v46.973H2671v17.9H2586.11v52.449h93.419v18.431H2565.679Z" transform="translate(325.936 -1127.342)"/>
    <path class="cls-7" d="M2707.544,2856.364h24.689l77.154,125v-125H2829.4v154.714h-23.546l-78.3-124.854v124.854h-20.011Z" transform="translate(325.936 -1127.342)"/>
    <path class="cls-7" d="M2877,2961.157q.712,13.166,5.985,21.38,10.044,15.378,35.407,15.376a60.554,60.554,0,0,0,20.7-3.37q18.06-6.529,18.06-23.381,0-12.639-7.652-18.01-7.756-5.265-24.283-9.162l-20.3-4.74q-19.9-4.632-28.16-10.216-14.285-9.688-14.284-28.963,0-20.852,14.041-34.229t39.766-13.375q23.675,0,40.228,11.743t16.551,37.546h-19.694q-1.516-12.426-6.462-19.062-9.19-12.11-31.2-12.112-17.773,0-25.548,7.794a24.876,24.876,0,0,0-7.774,18.115q0,11.375,9.185,16.64,6.021,3.372,27.246,8.426l21.021,4.95q15.205,3.582,23.47,9.795,14.287,10.849,14.287,31.49,0,25.7-18.231,36.756t-42.368,11.059q-28.146,0-44.063-14.744-15.929-14.638-15.611-39.705Z" transform="translate(325.936 -1127.342)"/>
    <path class="cls-7" d="M3119.657,2856.364v18.431h-52.133v136.283h-21.169V2874.795h-52.133v-18.431Z" transform="translate(325.936 -1127.342)"/>
    <path class="cls-7" d="M3141.458,2856.364h70.325q17.373,0,28.647,5.161,21.406,9.9,21.407,36.545,0,13.9-5.739,22.749a41.492,41.492,0,0,1-16.062,14.219q9.057,3.687,13.639,9.689t5.108,19.483l.737,20.748a63.652,63.652,0,0,0,1.475,13.165q1.9,7.373,6.74,9.479v3.476h-25.7a19.311,19.311,0,0,1-1.685-5.16,98.762,98.762,0,0,1-1.054-12.218l-1.264-25.8q-.716-15.166-10.948-20.327-5.836-2.843-18.317-2.843h-46.354v66.351h-20.959Zm68.073,70.88q14.336,0,22.685-5.9t8.348-21.275q0-16.532-11.676-22.538-6.249-3.16-16.694-3.159h-49.776v52.87Z" transform="translate(325.936 -1127.342)"/>
    <path class="cls-7" d="M3296.7,2856.364H3408.97v18.957h-91.839v46.973h84.888v17.9h-84.888v52.449h93.419v18.431H3296.7Z" transform="translate(325.936 -1127.342)"/>
    <path class="cls-7" d="M3440.565,2856.364h112.271v18.957H3461v46.973h84.888v17.9H3461v52.449h93.419v18.431H3440.565Z" transform="translate(325.936 -1127.342)"/>
    <path class="cls-7" d="M3582.431,2856.364h20.432v75.728l77.4-75.728h29.3l-66.1,62.439,67.474,92.274h-27.426l-55.43-77.743-25.216,23.819v53.924h-20.432Z" transform="translate(325.936 -1127.342)"/>
    <path class="cls-7" d="M3718.818,2941.252h52.87v19.483h-52.87Z" transform="translate(325.936 -1127.342)"/>
    <path class="cls-7" d="M3798.124,2856.364h24.689l77.154,125v-125h20.011v154.714h-23.546l-78.3-124.854v124.854h-20.011Z" transform="translate(325.936 -1127.342)"/>
    <path class="cls-7" d="M4081.328,2878.481q15.375,20.537,15.376,52.554,0,34.652-17.588,57.61-20.644,26.962-58.873,26.961-35.7,0-56.136-23.591-18.221-22.749-18.22-57.5,0-31.383,15.587-53.713,20.01-28.645,59.189-28.646Q4061.633,2852.151,4081.328,2878.481Zm-18.483,98.615q12.374-19.869,12.375-45.694,0-27.3-14.271-43.954t-39.021-16.655q-24.013,0-39.179,16.5t-15.166,48.645q0,25.721,13.007,43.375t42.181,17.656Q4050.468,2996.966,4062.845,2977.1Z" transform="translate(325.936 -1127.342)"/>
    <path class="cls-7" d="M4249.1,2878.481q15.375,20.537,15.376,52.554,0,34.652-17.588,57.61-20.644,26.962-58.873,26.961-35.7,0-56.136-23.591-18.221-22.749-18.22-57.5,0-31.383,15.587-53.713,20.01-28.645,59.189-28.646Q4229.406,2852.151,4249.1,2878.481Zm-18.483,98.615q12.374-19.869,12.375-45.694,0-27.3-14.271-43.954t-39.021-16.655q-24.013,0-39.179,16.5t-15.166,48.645q0,25.721,13.007,43.375t42.181,17.656Q4218.241,2996.966,4230.618,2977.1Z" transform="translate(325.936 -1127.342)"/>
    <path class="cls-7" d="M4291.966,2856.364h70.325q17.373,0,28.647,5.161,21.406,9.9,21.407,36.545,0,13.9-5.739,22.749a41.492,41.492,0,0,1-16.062,14.219q9.057,3.687,13.639,9.689t5.108,19.483l.737,20.748a63.652,63.652,0,0,0,1.475,13.165q1.9,7.373,6.74,9.479v3.476h-25.7a19.311,19.311,0,0,1-1.685-5.16,98.763,98.763,0,0,1-1.054-12.218l-1.264-25.8q-.716-15.166-10.948-20.327-5.836-2.843-18.317-2.843h-46.354v66.351h-20.959Zm68.073,70.88q14.336,0,22.685-5.9t8.348-21.275q0-16.532-11.676-22.538-6.249-3.16-16.694-3.159h-49.776v52.87Z" transform="translate(325.936 -1127.342)"/>
    <path class="cls-7" d="M4446.153,2856.364h61.839q31.491,0,48.848,22.644,15.485,20.433,15.485,52.344,0,24.645-9.146,44.55-16.109,35.178-55.395,35.177h-61.631Zm57.728,136.81q10.4,0,17.095-2.212,11.944-4.107,19.566-15.8,6.075-9.372,8.753-24.013a93.544,93.544,0,0,0,1.545-16.219q0-28.752-11.173-44.655t-35.991-15.9h-36.354v118.8Z" transform="translate(325.936 -1127.342)"/>
  </g>
</svg>
